<svg id="Capa_1" data-name="Capa 1" xmlns="http://www.w3.org/2000/svg" viewBox="0 0 1327.13 842.75"><defs><style>.cls-1{fill:none;}</style></defs><path d="M644.26,314a305.73,305.73,0,0,0-34.51,35c-7.49,8.92-11.54,9-19,.19-.54-.63-1.09-1.26-1.62-1.9C551.67,302.77,506.49,270,450,253.57,411.61,242.4,373,239.63,333.9,247.08q-99.87,19-165.73,96.86c-41.89,49.58-64.22,107-64.6,171.85-.69,120.33-.15,240.66-.12,361v5.46h102.3V867.62q0-172.75,0-345.5c0-25.52,4.93-50.28,16.26-73.06,28.81-58,74.73-93.07,140-100.15,34.77-3.77,67.92,2.56,97.75,21.34,54.86,34.52,85,83.24,84.84,149.41-.27,119.49,0,239,0,358.49,0,1.28.13,2.57.21,4.11H645.8v-6.94q0-97.94,0-195.87h-1.56Z" transform="translate(-103.22 -39.51)"/><path d="M645.28,515.18c2.29-32.81,13.57-62.73,33.26-89.43,49.12-66.63,132.13-93,210.9-70.1,50.92,14.8,89.64,46.84,118.26,91s42.29,93,41.53,145.8c-.2,13.76-.79,27.52-1.2,41.52h100.52c.43-8.71.87-17,1.25-25.33,3.11-68.18-9.7-133-41.78-193.51-32-60.36-77.53-107.75-138.42-139.25-76.9-39.77-156.41-44-237.37-13.74a291.68,291.68,0,0,0-88.88,52.45V680.06h1.55q0-76,0-152.12Q644.85,521.49,645.28,515.18Z" transform="translate(-103.22 -39.51)"/><path d="M963.46,561.63c-21-.07-42,0-63,0-2.27,0-4.53-.2-7.29-.34v-6.35c0-21.16.06-42.33,0-63.49,0-17.11-12.39-29.65-29.5-29.9-7.66-.11-15.33-.07-23,0-18.62.19-30.46,12.19-30.49,30.9,0,20.83,0,41.65,0,62.48,0,2,0,3.93,0,6.72h-7.72c-21,0-42,0-63,0-18.33.06-29.9,11.69-30,30.09-.06,6.66,0,13.33,0,20,.06,17.79,12,29.62,29.92,29.63q32.49,0,65,0h6v8.88c0,21.33-.1,42.66-.05,64,.05,16.88,12.18,29,29,29.14,7.67,0,15.33,0,23,0,19.17.05,30.88-11.56,30.92-30.75q.06-32.74,0-65.48v-5.79h6.61c21.66,0,43.32,0,65,0,17.33,0,29.07-11.84,29.16-29.25,0-6.67.06-13.33,0-20C993.89,573.05,982.58,561.7,963.46,561.63Z" transform="translate(-103.22 -39.51)"/><path d="M1089.92,39.52c-49.75.77-85.88,39.41-86,87.4-.17,48.15,39.5,87,87,86.54,47.09-.46,85.6-40.05,85-87.41C1175.25,78.06,1136.33,38.8,1089.92,39.52Z" transform="translate(-103.22 -39.51)"/><rect class="cls-1" x="682.26" y="294.22" width="644.87" height="432.01"/></svg>