<svg id="mas_Imagen" data-name="mas Imagen" xmlns="http://www.w3.org/2000/svg" viewBox="0 0 1024.2 1036.2"><defs><style>.cls-1{fill:#fefefe;}.cls-2{fill:#dfcaed;}.cls-3{fill:#30164e;}.cls-4{fill:#b593c6;}.cls-5{fill:#030203;}.cls-6{fill:#503a7d;}</style></defs><path class="cls-1" d="M-3.93,517.83Q-3.93,260.16-4,2.48C-4,.23-3.48-.27-1.23-.27q509.34.09,1018.69,0c2.25,0,2.75.5,2.75,2.75q-.08,515.36,0,1030.69c0,2.25-.5,2.76-2.75,2.76q-509.34-.09-1018.69,0c-2.25,0-2.76-.51-2.76-2.76Q-3.88,775.5-3.93,517.83ZM500.34,983.3a.49.49,0,0,0,.38.39l.17.22A1.16,1.16,0,0,0,502,985l.59.58a68.41,68.41,0,0,0,5.39,6c6.4,5.65,12.83,11.24,20.18,15.76A113.23,113.23,0,0,0,552.38,1019c16.3,5.3,33.1,7.76,50.3,5.48a108.15,108.15,0,0,0,34.18-10.08c12.12-6,22.91-14,33.09-22.74,2.56-2.2,5.9-3.84,7.29-7.29a5.72,5.72,0,0,0,1.31-.65c8-7,16.42-13.59,26.08-18.29,7.18-3.49,14.44-6.89,22.75-6.17,3,.25,6,.73,7.44,4,1.55,3.52,1.7,6.9-.7,10.16-2.09,2.83-4.74,5.13-7.09,7.7-5.92,6.46-5.3,16,.48,21.25,6.84,6.26,14.74,6.9,23,3.22a13.42,13.42,0,0,0,6-4.63c-3.78,1.23-6.75,2.2-10,2.07-3.83-.16-7.23-1-8.81-4.88s-1.75-7.7,1.15-11.26a30.15,30.15,0,0,1,7.22-6.17c5.29-3.43,9.7-7.53,11.42-13.88a2,2,0,0,0,1.17-1.63c1.12-4.58,2.55-9.12,1.35-14-.78-3.18-1.56-6.29-3.37-9.13-1.58-2.45-1.12-3.09,1.79-3.37a4.89,4.89,0,0,0,2.74-1l.62-.25.55-.32.64-.29.54-.42.86-.68a.5.5,0,0,0,.34-.36,1.24,1.24,0,0,0,.28-.28.54.54,0,0,0,.37-.32l.61-.33.51-.45.13-.13.47-.47.14-.13.46-.47.12-.1c1.24-.2,2.34-.82,3.75-.24a15.44,15.44,0,0,1,9.38,16.07,78.14,78.14,0,0,0-.66,16.26c1,12.31,10.9,22.17,23.33,24.11s23.53-2.25,33.54-9.61c6.28-4.62,11.32-10.63,17.37-15.48,5.57-4.47,11.78-7.34,19.23-6.5,6.29.7,10,3.87,11.54,10a19,19,0,0,1-.16,10c-.22.8-1,1.9.1,2.33s1.39-1,1.73-1.69c4.35-8.69,6.78-17.73,3.5-27.32a15.82,15.82,0,0,0-12.2-10.74c-9.62-2.14-17.9.9-25.22,6.87-5.09,4.16-10.08,8.41-15.92,11.48-7.3,3.85-14.77,5.63-22.88,2.12-7.56-3.28-12-11.8-11.61-19,.55-9.52,5.75-16.5,13.6-21.56,6.78-4.37,14.38-7.24,21.26-11.47a138.74,138.74,0,0,0,17.39-12c8.93-7.56,10.37-17.7,9.55-28.14-.62-7.85-3.19-15.53-4.74-23.32a60.47,60.47,0,0,1-1.36-15.41c.23-3.76.74-7.5,1.13-11.25.64-1,1.78-1.23,2.74-1.67a84.06,84.06,0,0,0,13.52-8l.5-.36.25-.16a.9.9,0,0,0,1-.55l.56-.24a2.15,2.15,0,0,0,1.93-.53c3.89-3,8.21-5.43,11.64-9,.81-.83,2.38-1.35,1.8-3l.18-.22c1.09.58,1.82,0,2.65-.67A117.5,117.5,0,0,0,911.93,778a104.91,104.91,0,0,0,13.72-20.51c4.68-9.15,8.07-18.72,9-29.15A65.78,65.78,0,0,0,934,710.3a45.38,45.38,0,0,0-15.7-26.42c-4.43-3.77-9.08-7.5-15.18-8.43a6.69,6.69,0,0,1,1.83-4.6,44.65,44.65,0,0,0,5.53-9.51c5-11,6-22.28,4.11-34.08-1.81-11.38-6.41-21.55-12.84-30.91-2.6-3.79-5.1-7.88-9.32-10.3l-.49-.43-.11-.15c0-1-.81-1.55-1.44-2.17-4.74-4.74-10.45-7.88-16.65-10.28-5.89-2.27-12.2-3.57-17.58-7.07s-9.88-7.43-10-14.69c-.09-4.08,3-6.28,7.31-4.92a10.12,10.12,0,0,1,3.52,2.2c4,3.41,8.21,6.53,13.89,5.79,10.89-1.41,16.67-8.87,17.25-19.25.62-11-4.49-18.94-14.16-24.05-5.66-3-7.12-7.45-4.81-13.42.78-2,2.75-4,1.12-6.58a7.51,7.51,0,0,0-3,2.79l0,.05a12.9,12.9,0,0,0-4.26,8.82c-.3,6,1.47,11,6.15,14.84,2.41,2,3.38,4.68,4,7.5a7.55,7.55,0,0,1-7.12,9,25.25,25.25,0,0,1-8.5-1.34c-11.62-3.42-25.39.78-29.88,14.13-4.74,14.08.33,26.94,13.38,33a63.18,63.18,0,0,1,8.36,4.59c13.16,8.73,9.74,25.36-1.28,32.69a29.54,29.54,0,0,1-11.72,4.13,40.23,40.23,0,0,1-27.8-5.5c-10.17-6.19-18.09-14.93-24.88-24.6A200,200,0,0,1,766.92,562a261.4,261.4,0,0,1-15.83-43.74,327,327,0,0,1-7.77-36.67,330.55,330.55,0,0,1-3.6-35.51c-.53-12-1.27-24-2.57-36-.85-7.8-1.33-15.65-2.59-23.38-2-12.52-3.75-25.09-6.19-37.56-4-20.28-8.67-40.37-13.68-60.4-1-4.12-2.7-8.13-2.76-12.48,3.12,0,4.68-1.64,5.21-4.64a20,20,0,0,0,.42-3.84,226.78,226.78,0,0,0-3.26-32c-2.53-15.51-5.49-30.93-9.26-46.19a449.25,449.25,0,0,0-17.81-56.65,121.17,121.17,0,0,0-44.89-56.51,230,230,0,0,0-40.94-22.3,372.51,372.51,0,0,0-53.67-18.29,340.8,340.8,0,0,0-48.38-8.66,3.29,3.29,0,0,1-3.15-2.53c-1.89-5.32-5.76-8.77-10.74-11.08-10.39-4.82-21.1-4.58-31.75-1.26-5.52,1.71-10.8,4.79-13.14,10.2-1.77,4.08-3.84,5.81-8,5.33a3.81,3.81,0,0,0-.89.06,433.29,433.29,0,0,0-52.58,10.52c-22.87,6.16-45,14.23-66,25.19A167.13,167.13,0,0,0,278.65,86.8a146.93,146.93,0,0,0-36,49.87c-9.93,22-16.77,44.94-22.5,68.27-4.82,19.62-9.11,39.36-11.51,59.46-.46,3.81-.53,7.36,3.36,9.59-1.34,4.27-3.59,8.17-5.24,12.31-5.92,14.77-11.29,29.74-15.85,45a465.73,465.73,0,0,0-11.35,46.88c-2.91,15.49-4.88,31.11-6.69,46.77a354.81,354.81,0,0,0-2.2,36c-.2,14.85-.34,29.7.5,44.55.44,7.73,1.28,15.41,2.29,23.08,1.15,8.75,2.9,17.44,2.52,26.34l-.09.18c-.65.46-.52,1.1-.37,1.73-1.26,12-2.52,23.93-2.5,36,0,8.28-.08,16.54.48,24.82.76,11.41,1.63,22.78,3.93,34,2.78,13.51,6.36,26.75,13.36,38.78a86.54,86.54,0,0,0,17.61,21.35,74.09,74.09,0,0,0,22.18,13.79l1.09.36.66.23.48.35.74.7a1,1,0,0,0,.55,1.07l.07.13c0,.78-.31,1.65.51,2.25l.09.16c0,.78-.3,1.62.48,2.23l.1.22c.56,3.45,1,6.94,2.92,10l.07.16c-.47,3.37,1,6.46,1.48,9.68,2.13,13.52,4.92,26.9,3.41,40.77a100,100,0,0,1-7.62,29.88c-3.64,8.21-6.87,16.33-6.42,25.72a33.94,33.94,0,0,0,9,21.55c10.12,11.43,23.63,16,38.25,17.94,2.08.28,2.75.94,2.74,2.93,0,4-.44,8-.22,12.15A84.13,84.13,0,0,0,285,931.45a64.54,64.54,0,0,0,24.89,30.74,62.33,62.33,0,0,0,36,10.73c2.3,0,4.5-.69,6.82-.67A24.73,24.73,0,0,0,363,970a117.61,117.61,0,0,0,16-6.3c7.21-3.4,14.35-6.87,22.08-9,5.66-1.56,11.39-1.71,17.16-1.56,1.41,0,3,.25,3.43,1.84.53,1.8-1.19,2-2.27,2.59A8.64,8.64,0,0,0,415,963c-2.5,8.17,5.33,19.3,15.5,18.6,14.12-1,19.52-14.39,13.7-25a29.82,29.82,0,0,0-11.53-11.83,54,54,0,0,0-40.07-5.67c-6.75,1.56-12.94,4.63-19.2,7.45-8.19,3.68-19.67,1.08-24.08-4.92-2.13-2.88-4.09-5.88-6.1-8.85a4.16,4.16,0,0,1-.64-2.57c.05-1.23.32-1.86,1.81-1.36a18.44,18.44,0,0,0,5.55,1c10.61.21,20.08-3.72,29.27-8.32a66.25,66.25,0,0,1,26.25-7.23c12.35-.66,24.17,1.46,35.17,7.44A94,94,0,0,1,466,941.31c4.88,5.41,9.05,11.36,13.53,17.08,5.28,6.74,10.68,13.37,16,20l.44.43.17.17.42.44.16.17.42.44.18.19.41.41.19.19.41.42.18.18.4.41.2.21a.49.49,0,0,0,.39.4,1,1,0,0,0,.21.21.49.49,0,0,0,.39.39A1,1,0,0,0,500.34,983.3ZM873.67,490.06l-.23-.62a3.88,3.88,0,0,0-1,.55.34.34,0,0,0,.28.57A3.12,3.12,0,0,0,873.67,490.06Z" transform="translate(3.99 0.27)"/><path class="cls-2" d="M867.29,493.82a7.51,7.51,0,0,1,3-2.79c1.63,2.58-.34,4.55-1.12,6.58-2.31,6-.85,10.43,4.81,13.42,9.67,5.11,14.78,13.07,14.16,24.05-.58,10.38-6.36,17.84-17.25,19.25-5.68.74-9.89-2.38-13.89-5.79a10.12,10.12,0,0,0-3.52-2.2c-4.36-1.36-7.4.84-7.31,4.92.14,7.26,4.69,11.21,10,14.69s11.69,4.8,17.58,7.07c6.2,2.4,11.91,5.54,16.65,10.28.63.62,1.43,1.14,1.44,2.17-1.72.49-.55,1.39-.19,2a42.89,42.89,0,0,1,5.21,12.95c3.93,16.94-3.28,32.82-16.43,42.61-11.91,8.87-25.5,9.85-39.6,6.93-10.48-2.17-20.06-6.63-29.1-12.19-11.41-7-22-15-30.74-25.38-.77-.9-1.11-2.54-3-2.67.55,2.54,2.2,4.1,3.3,5.94,8.69,14.5,19.9,26.59,34.49,35.32a129.3,129.3,0,0,0,56.08,18c10.68.92,21.43,1.6,31.3,6.5,6.1.93,10.75,4.66,15.18,8.43A45.38,45.38,0,0,1,934,710.3a65.78,65.78,0,0,1,.58,18.07c-.88,10.43-4.27,20-9,29.15A104.91,104.91,0,0,1,911.93,778a117.5,117.5,0,0,1-15.75,15.79c-.83.66-1.56,1.25-2.65.67,5.11-6.47,10.55-12.67,15.15-19.57a125.15,125.15,0,0,0,16.56-35c2.81-9.77,4.11-19.65.37-29.61-2.88-7.64-9.72-10.74-17-7.24A43,43,0,0,0,893,715.85c-8.9,11.59-15.06,24.85-22.31,37.43-4.38,7.6-8.35,15.43-13.41,22.62-4.69,6.66-10.44,11.93-18.12,15.05-7.06,2.87-14.49,3.38-21.92,3.78a35.23,35.23,0,0,0-22.64,9.44c-8.95,8.17-14.32,18.51-18.39,29.67-2.15,5.88-3.8,12-6.74,17.55-4.29,8.15-15.22,12.62-24.08,10.08-6.57-1.88-10.38-6.74-13.83-12-4.13-6.36-8.14-12.77-14.39-17.37-6.58-4.84-13.81-7.53-22.07-6.46-11.09,1.43-20.19,7-28.34,14.26a30.72,30.72,0,0,0-5.65,6c.31.22.4.34.47.33a3.47,3.47,0,0,0,.85-.17c12.35-4.41,24-3,35.12,3.94,6.7,4.17,12.12,10,18.92,14.05,12,7.11,24.29,10.57,37.76,4.48a4,4,0,0,1,2.87,0,53.94,53.94,0,0,0,22.52.43c13.91-2.45,24.93-9.82,33.74-20.56,10.06-12.28,22.8-20.67,37.38-26.48,2.93-1.17,5.54-3.13,8.76-3.61-.39,3.75-.9,7.49-1.13,11.25a60.47,60.47,0,0,0,1.36,15.41c1.55,7.79,4.12,15.47,4.74,23.32.82,10.44-.62,20.58-9.55,28.14a138.74,138.74,0,0,1-17.39,12c-6.88,4.23-14.48,7.1-21.26,11.47-7.85,5.06-13.05,12-13.6,21.56-.42,7.16,4,15.68,11.61,19,8.11,3.51,15.58,1.73,22.88-2.12C843,955.22,847.94,951,853,946.81c7.32-6,15.6-9,25.22-6.87a15.82,15.82,0,0,1,12.2,10.74c3.28,9.59.85,18.63-3.5,27.32-.34.69-.65,2.1-1.73,1.69s-.32-1.53-.1-2.33a19,19,0,0,0,.16-10c-1.59-6.13-5.25-9.3-11.54-10-7.45-.84-13.66,2-19.23,6.5-6,4.85-11.09,10.86-17.37,15.48-10,7.36-21.1,11.55-33.54,9.61s-22.31-11.8-23.33-24.11a78.14,78.14,0,0,1,.66-16.26,15.44,15.44,0,0,0-9.38-16.07c-1.41-.58-2.51,0-3.75.24,2.53-2.73,2.84-6.24,2.86-9.62.12-19.35-14.59-28.91-31.06-28.59-7.62.15-14.4,3.42-20.5,8a170.59,170.59,0,0,0-26.34,25.26c-.12-2.71-2.06-1.63-3.28-1.41a24.06,24.06,0,0,1-12.92-.94c-8.37-3-13.28-9.58-12.46-17.23.38-3.51,1.81-6.9,2.65-10.37,1.17-4.84-.45-9.67-4.4-11.72-5.07-2.63-10.5-2.66-15.92-.93a4.91,4.91,0,0,0-2.65,2.32,105.88,105.88,0,0,1-11.61,16.58c-4.25,4.79-9.25,8.36-15.54,10-1.2-.94-2.27.05-3.4.21-5.06.71-10.07,1.7-15.25.8a64,64,0,0,1-27.41-11.92c-.88-.66-1.76-1.5-1.91.46-.88,11.53-1.36,23.09.76,34.54,2.42,13.09,8.46,24.07,19.23,32.34a49,49,0,0,0,36.48,10.13c12.17-1.36,23.19-6.17,33.66-12.37,12-7.14,22.42-16.54,34-24.33,8.18-5.52,16.39-11,26.06-13.72,11.13-3.12,21.58-1.62,30.81,5.4,2.71,2.07,4.76,4,8.3,2.13.84-.45,2.15,0,3.24,0a5,5,0,0,1-2.74,1c-2.91.28-3.37.92-1.79,3.37,1.81,2.84,2.59,5.95,3.37,9.13,1.2,4.84-.23,9.38-1.35,14a2,2,0,0,1-1.17,1.63,30.57,30.57,0,0,0-1.81-13.19c-4.69-11.55-16.46-17-28.43-13.31-9.58,2.92-17.17,8.81-24.1,15.55-7.22,7-14,14.47-20.76,21.93-1.84,2-4.08,3.86-5.14,6.54-1.39,3.45-4.73,5.09-7.29,7.29-10.18,8.77-21,16.73-33.09,22.74a108.15,108.15,0,0,1-34.18,10.08c-17.2,2.28-34-.18-50.3-5.48a113.23,113.23,0,0,1-24.19-11.61c-7.35-4.52-13.78-10.11-20.18-15.76a68.41,68.41,0,0,1-5.39-6l.12-.12c.49-.21.39-.39,0-.57h0c-.18-.43-.36-.53-.57,0L502,985a1.16,1.16,0,0,1-1.14-1.1c1.95-1.22.15-2.31-.35-3.06a112.05,112.05,0,0,1-6.8-11.58c-8.26-16.18-14.36-33.31-21.85-49.83S454.71,888.53,441,876.67c-14.48-12.55-30.82-21.2-49.86-24-5.94-.89-12.45-1.8-16.67,4.67a11.67,11.67,0,0,1-3,2.47c-8.28,6.22-16.41,12.77-26,16.85-8.49,3.61-16.79,7.46-23.79,13.54-12,10.46-19.42,23.11-17.47,39.72,1.74,14.84,8.58,26.68,21.68,34.23a48.71,48.71,0,0,0,26,6.56c3.73-.09,7.39-1.11,11.13-.66a24.73,24.73,0,0,1-10.37,2.24c-2.32,0-4.52.63-6.82.67a62.33,62.33,0,0,1-36-10.73A64.54,64.54,0,0,1,285,931.45,84.13,84.13,0,0,1,278.89,904c-.22-4.11.2-8.1.22-12.15,0-2-.66-2.65-2.74-2.93C261.75,887,248.24,882.4,238.12,871a33.94,33.94,0,0,1-9-21.55c-.45-9.39,2.78-17.51,6.42-25.72a100,100,0,0,0,7.62-29.88c1.51-13.87-1.28-27.25-3.41-40.77-.5-3.22-1.95-6.31-1.48-9.68a4.48,4.48,0,0,0,2.56,2.26,65.25,65.25,0,0,0,14.38,2.31c2.46.13,3.64,1.08,4.35,3.17,1.33,3.86,2.71,7.7,4,11.57,3.52,10.71,6.38,21.61,7,32.88.72,13,.06,25.87-3.49,38.5-1.84,6.55-3.85,13-7.69,18.73-5.16,7.67-10.53,8.74-18.24,3.76-.56-.36-1-1.36-2.06-.66A32,32,0,0,0,250,872c8.25,6.69,18.22,10.14,27.81,14.29,1.37.59,1.72,0,1.89-1.29,1.84-14.11,5.6-27.85,8-41.85,2.82-16.44,4.28-32.89,2.26-49.56a190.25,190.25,0,0,0-11.18-45.38c-1-2.64-.47-3.6,2.17-4.46a32.51,32.51,0,0,0,17-13.08c11.26-16.75,12.4-35.54,10.25-54.86-1.13-10.12-3.92-19.88-6.64-29.65-5.07-18.19-11.63-36-13.16-55a200.55,200.55,0,0,1,0-28.9c.19-3.07.52-6.14.79-9.21l-.82-.22c-2.05,3.92-4.35,7.73-6.12,11.77-7.59,17.26-9.72,35.6-10.27,54.19-.19,6.37.62,12.71,1.05,19.07.65,9.42,1.89,18.78,2.65,28.2a89.14,89.14,0,0,1-2.09,29.61c-4.43,17.2-16.41,26.18-34.57,22.32-10.46-2.22-19.34-7.89-27.06-15.18-8.39-7.91-14.26-17.58-18.84-28.12a135.66,135.66,0,0,1-8.9-31.81,243,243,0,0,1-2.91-26c-.61-10.82-1.21-21.61-.76-32.5q.84-20.29,2.57-40.51c.72-8.41,1.35-16.83,2.86-25.15.18-1,.55-2.09-.86-3.28-1.53,5.15-3.19,9.92-4.34,14.82-1.63,6.87-5,13.39-4,20.83.15,1.1.37,2.82-.81,3.93.38-8.9-1.37-17.59-2.52-26.34-1-7.67-1.85-15.35-2.29-23.08-.84-14.85-.7-29.7-.5-44.55a354.81,354.81,0,0,1,2.2-36c1.81-15.66,3.78-31.28,6.69-46.77a465.73,465.73,0,0,1,11.35-46.88c4.56-15.27,9.93-30.24,15.85-45,1.65-4.14,3.9-8,5.24-12.31l14.38-7.66.32,1.53-.34,1.14a1,1,0,0,0-.25,1.27l-1,4.73a.92.92,0,0,0-.24,1.26l-.42,2.92a1.6,1.6,0,0,0-.19,1.88,26.16,26.16,0,0,0,0,9.46,3.08,3.08,0,0,0,.28,3.06c1.19,11.19,7.62,19.18,17.39,21.61a1,1,0,0,0,1.25.35,17.11,17.11,0,0,0,5.94.9,7.38,7.38,0,0,0,5.41,0,34.86,34.86,0,0,0,10.14-1.48,1,1,0,0,0,1.26-.3A117.89,117.89,0,0,0,284.12,308c13.12-5.82,26-12.25,39.2-17.81a495.07,495.07,0,0,1,55.83-19.59,1,1,0,0,0,1.25-.36l18.53-4.48a1,1,0,0,0,1.27-.26l1.73-.34a1,1,0,0,0,1.26-.29l8.93-1.54a1,1,0,0,0,1.27-.24l7.13-1a1,1,0,0,0,1.27-.18l2.93-.4a1.59,1.59,0,0,0,1.86-.23l2.93-.37a1.6,1.6,0,0,0,1.87-.22l4.12-.43a1.56,1.56,0,0,0,1.87-.21l4.73-.33a1.59,1.59,0,0,0,1.87-.25l8.32-.42a8.42,8.42,0,0,0,4.87-.18l15.57,0a11.34,11.34,0,0,0,5.46.2l5.34.37a3.93,3.93,0,0,0,3.06.24l4.73.38a1.57,1.57,0,0,0,1.86.22l2.94.36a1.54,1.54,0,0,0,1.86.24l2.93.41a.92.92,0,0,0,1.26.24l2.34.35a.94.94,0,0,0,1.27.2l5.93,1a1,1,0,0,0,1.26.28l8.33,1.53a1,1,0,0,0,1.25.33l1.15.24a1,1,0,0,0,1.26.31l1.14.28a.94.94,0,0,0,1.26.31l13.13,3.3a1,1,0,0,0,1.25.35l3,.81a1,1,0,0,0,1.24.38c14.3,4.45,28.47,9.28,42.43,14.69a13.41,13.41,0,0,0,7.94,3.3c12.45,5.67,24.87,11.4,37.35,17,10.68,4.79,21.44,9.5,33.29,10.43,17.63,1.38,30.75-6.55,34.34-24.7,1.33-6.74,1.28-13.5,1-20.29,0-.66-.63-1.48.1-1.94.9-.57,1.41.45,2,.88,2.54,1.87,5,3.81,7.56,5.72.06,4.35,1.73,8.36,2.76,12.48,5,20,9.72,40.12,13.68,60.4,2.44,12.47,4.15,25,6.19,37.56,1.26,7.73,1.74,15.58,2.59,23.38,1.3,11.95,2,23.93,2.57,36a330.55,330.55,0,0,0,3.6,35.51,327,327,0,0,0,7.77,36.67A261.4,261.4,0,0,0,766.92,562a200,200,0,0,0,16.77,29.18c6.79,9.67,14.71,18.41,24.88,24.6a40.23,40.23,0,0,0,27.8,5.5,29.54,29.54,0,0,0,11.72-4.13c11-7.33,14.44-24,1.28-32.69a63.18,63.18,0,0,0-8.36-4.59c-13-6-18.12-18.9-13.38-33,4.49-13.35,18.26-17.55,29.88-14.13a25.25,25.25,0,0,0,8.5,1.34,7.55,7.55,0,0,0,7.12-9c-.62-2.82-1.59-5.53-4-7.5-4.68-3.82-6.45-8.8-6.15-14.84a12.9,12.9,0,0,1,4.26-8.82c.06.55-.16,1.38.51,1.5,1,.18,1.47-.65,1.82-1.68ZM339.67,407.68a53.53,53.53,0,0,0,11.38-11.41,51,51,0,0,0-1.17-59.95c-11-14.56-29.21-20.29-46.25-14.58-10.08,3.37-17.62,9.94-23.54,18.58-.82.13-1.06.64-.89,1.4q-1.15,2.28-2.29,4.57a12.29,12.29,0,0,0-2.78,7.81l-.29,1.17c-1,1.91-1.74,3.84-.93,6-.07.79-.14,1.58-.22,2.37a6.87,6.87,0,0,0,0,6.73c.08.79.16,1.58.23,2.37-.81,2-.1,3.73.9,5.43l.28,1.17c-.63.62-.31,1,.35,1.23l.3,1.16a7.9,7.9,0,0,0,2.17,6l2.29,4.56c-.16.74,0,1.26.85,1.42,4.61,6.79,9.83,12.93,17.58,16.35.1.86.83,1.07,1.44,1.36a40.7,40.7,0,0,0,23.27,3.58c2.66-.36,5.51-.57,7.77-2.42l8.18-4A1.05,1.05,0,0,0,339.67,407.68ZM619.08,554.16c.41,2.91.73,5.84,1.26,8.73,2.63,14.06,2,28.18.29,42.23-1.69,13.85-5.6,27.24-9.77,40.55-3.21,10.26-5.85,20.71-6.77,31.43a73.48,73.48,0,0,0,11.66,47.32c5.16,8,4.5,9,14.69,4,1.37-.66,2-.45,2.7.58a35.63,35.63,0,0,0,6.34,6.75A46.31,46.31,0,0,0,672,747.91c9.84-.1,18.91-3.5,27.18-8.9a85.19,85.19,0,0,0,16.42-14.67c1.49-1.65,2.55-1.64,4.12,0a193.58,193.58,0,0,0,27.21,23.25,264.72,264.72,0,0,0,27.25,17.23c13.19,7.07,26.91,13.05,40.68,18.92,9.44,4,18.52,3.85,26.39-2.85,11.73-10,19.19-23,24.48-37.35a7,7,0,0,0-.56-6.63A16.15,16.15,0,0,0,854,730a55.88,55.88,0,0,0-8.87-.07,156.6,156.6,0,0,1-17.32-.4A116.41,116.41,0,0,1,806.1,726c-16.56-4.63-32.55-10.74-47.34-19.69a134.13,134.13,0,0,1-21.51-15.54c-1.22-1.11-2.27-2.24-1.7-4.12.86-2.86,1.23-5.83,1.81-8.75,3.12-15.87,4.83-31.79,3.55-48-.74-9.42-1.81-18.8-3.31-28.1a284.66,284.66,0,0,0-10.89-45.49c-1-3-1.77-6.05-3.94-9.29a24.84,24.84,0,0,0,0,2.68,343.9,343.9,0,0,1,3.37,36.48c.49,14.63.68,29.3-1,43.93-1.73,15.39-4.53,30.47-10.77,44.77-6,13.73-14.1,25.91-26.06,35.17-8.37,6.49-17.66,10-28.59,8.7-10.74-1.23-17.93-7-22.89-16.12-4.44-8.14-6-17.06-6.37-26.18-.56-12.58,1.46-25,3.14-37.41a164.05,164.05,0,0,0,1.06-37.51,131.85,131.85,0,0,0-9.38-37.5C623.88,560.5,622.17,557,619.08,554.16ZM552.17,767.27a44.16,44.16,0,0,1-14.58-5.12,101.82,101.82,0,0,1-37-32.67c-9.41-13.77-14-29.16-14.62-45.75-.2-5.28,0-10.59-.06-15.88,0-.94.57-2.33-.47-2.72-1.21-.46-1.45,1.12-1.93,1.85a76.34,76.34,0,0,0-7.81,15.79c-4,11.06-6.2,22.32-4.85,34.23.91,8,2.72,15.5,7.09,22.24,7.12,11,17.18,18.7,28.43,25s22.88,11.35,34.13,17.37,21.63,12.71,30.8,21.45a124.64,124.64,0,0,1,23.33,29.39c7.85,14,12.72,28.94,13.6,45,.5,9.08-.59,18.11-1.22,27.14-.25,3.52-.39,3.53,3,2.87a9.73,9.73,0,0,0,2.24-.77c5.77-2.81,9.11-7.72,11-13.55,3.26-10,3.82-20.18,3.12-30.62a92.49,92.49,0,0,0-8.4-33.37c-5.81-12.44-13.74-23.52-22-34.4-8.79-11.57-16.28-23.84-21-37.7-6.61-19.54-12.23-39.3-14.87-59.85a124.29,124.29,0,0,1,.62-35.36,7.86,7.86,0,0,0-.33-4.29c-1.12,1.45-1.84,2.39-2.57,3.32a102.36,102.36,0,0,0-17.37,34.16c-3.39,11.34-5,22.84-3.64,34.76,1,8.82,3.1,17.22,7.61,24.9C546.77,758.79,549.32,762.69,552.17,767.27Zm-2.7-403.16c0,12.29,2.5,21.36,7.44,29.4,15.21,24.72,48.21,29.22,68.19,6.4,16.7-19.06,16-49.37-1.68-67.47-14.68-15-38-17.36-54.45-5.29A46.73,46.73,0,0,0,549.47,364.11Zm-50,454.1a1.72,1.72,0,0,0-1-1.84c-14.73-10.86-29.86-21.21-44-32.85-9.83-8.09-18.3-17.47-24.28-28.88-7.26-13.85-10.26-28.81-11.28-44.2a123.61,123.61,0,0,1,2.62-32.64,130.87,130.87,0,0,1,13.36-36.3c.27-.49.86-1.08.34-1.61-.66-.69-1.27,0-1.82.35-2.54,1.75-5.17,3.38-7.75,5.07a98.68,98.68,0,0,0-33.69,37.28c-9.38,17.9-11.25,37-7.09,56.6,3.19,15,10.28,28.39,18.63,41.14,7,10.67,16.06,19.47,25.16,28.27a4.33,4.33,0,0,0,5.07,1.2c7.18-2.65,14.76-3.27,22.29-3.44,6.95-.14,13.82,1.16,20.64,2.64C484.67,810.75,492.05,814.12,499.44,818.21Zm46.71,175.94c-.17-1.38-1.22-2-2-2.88A59.25,59.25,0,0,1,533.73,976c-7.34-15.76-7.8-32.31-5-49.11,1.53-9,3.29-18,3.83-27.11a97,97,0,0,0-6.44-41c-5.16-13.48-13.39-24.49-25.7-32.05a99.2,99.2,0,0,0-34.85-13.67c-14.83-2.61-28.7,0-41.84,7.12-.58.32-1.44.52-1.27,1.43s1.1.67,1.72.87a95.07,95.07,0,0,1,14.66,5.93A112.65,112.65,0,0,1,472.06,855a142.93,142.93,0,0,1,19.61,30.6c7.15,14.7,10.77,30.57,15.3,46.14s10.27,30.39,19.46,43.79A66.25,66.25,0,0,0,546.15,994.15ZM382.77,414.35a8.39,8.39,0,0,0,1.79,4.25c6.77,10,16.17,17.08,26.84,22.28a96.09,96.09,0,0,0,58.69,8.68c19.26-3.13,36.06-11.07,49.47-25.54a25.07,25.07,0,0,0,5.67-9C477.65,450.78,430.37,447.52,382.77,414.35Zm102.08,47.3c-10.29,3.65-20.26,4.69-30.45,4.68a85.54,85.54,0,0,1-30.59-5.07C435.33,475.39,473.11,474.83,484.85,461.65Z" transform="translate(3.99 0.27)"/><path class="cls-3" d="M521.3,264.85,513,263.32c-.28-.74-.64-1.1-1.26-.28l-5.93-1c-.32-.76-.71-1-1.27-.2l-2.34-.35c-.29-.79-.67-1.11-1.26-.24l-2.93-.41c-.5-1-1.12-1.11-1.86-.24l-2.94-.36c-.51-1-1.13-1.1-1.86-.22l-4.73-.38c-.93-1.29-2-1.12-3.06-.24l-5.34-.37c-1.77-1.33-3.6-1.06-5.46-.2l-15.57,0c-1.66-.82-3.3-1.09-4.87.18l-8.32.42c-.75-.9-1.37-.75-1.87.25l-4.73.33c-.73-.86-1.35-.74-1.87.21l-4.12.43c-.74-.9-1.36-.79-1.87.22l-2.93.37c-.74-.89-1.36-.78-1.86.23l-2.93.4c-.56-.85-1-.58-1.27.18l-7.13,1c-.6-.83-1-.5-1.27.24l-8.93,1.54c-.63-.83-1-.46-1.26.29l-1.73.34c-.61-.85-1-.51-1.27.26l-18.53,4.48c-.69-.81-1-.39-1.25.36a495.07,495.07,0,0,0-55.83,19.59c-13.24,5.56-26.08,12-39.2,17.81a117.89,117.89,0,0,1-18.22,6.67c-.64-.84-1-.5-1.26.3a34.86,34.86,0,0,1-10.14,1.48,5.42,5.42,0,0,0-5.41,0,17.11,17.11,0,0,1-5.94-.9c-.24-.74-.57-1.17-1.25-.35-9.77-2.43-16.2-10.42-17.39-21.61.72-1.09,1-2.15-.28-3.06a26.16,26.16,0,0,1,0-9.46c1-.54,1.05-1.16.19-1.88l.42-2.92c.67-.31,1-.68.24-1.26l1-4.73c.67-.31,1-.68.25-1.27.11-.38.23-.76.34-1.14a1.22,1.22,0,0,0,.59-1.92c-.38-.58-.8-.2-.91.39L212,274c-3.89-2.23-3.82-5.78-3.36-9.59,2.4-20.1,6.69-39.84,11.51-59.46,5.73-23.33,12.57-46.31,22.5-68.27a146.93,146.93,0,0,1,36-49.87A167.13,167.13,0,0,1,313,63.55c21-11,43.17-19,66-25.19a433.29,433.29,0,0,1,52.58-10.52,3.81,3.81,0,0,1,.89-.06c4.2.48,6.27-1.25,8-5.33,2.34-5.41,7.62-8.49,13.14-10.2,10.65-3.32,21.36-3.56,31.75,1.26,5,2.31,8.85,5.76,10.74,11.08a3.29,3.29,0,0,0,3.15,2.53,340.8,340.8,0,0,1,48.38,8.66A372.51,372.51,0,0,1,601.4,54.07a230,230,0,0,1,40.94,22.3,121.17,121.17,0,0,1,44.89,56.51A449.25,449.25,0,0,1,705,189.53c3.77,15.26,6.73,30.68,9.26,46.19a226.78,226.78,0,0,1,3.26,32,20,20,0,0,1-.42,3.84c-.53,3-2.09,4.65-5.21,4.64-2.52-1.91-5-3.85-7.56-5.72-.58-.43-1.09-1.45-2-.88-.73.46-.13,1.28-.1,1.94.29,6.79.34,13.55-1,20.29C697.7,310,684.58,318,667,316.58c-11.85-.93-22.61-5.64-33.29-10.43-12.48-5.6-24.9-11.33-37.35-17a17.14,17.14,0,0,0-7.94-3.3c-14-5.41-28.13-10.24-42.43-14.69-.23-.73-.55-1.17-1.24-.38l-3-.81c-.24-.76-.57-1.18-1.25-.35l-13.13-3.3c-.26-.73-.61-1.12-1.26-.31l-1.14-.28c-.26-.75-.61-1.13-1.26-.31l-1.15-.24C522.31,264.4,522,264,521.3,264.85Zm-51.39-89.67c-1.48,7.22-.7,14.47-.17,21.71.09,1.27,1,1.33,1.91,1.34,5.17.05,10.35.34,15.52.5,9.46.3,18.9,1,28.25,2.1,13.08,1.61,26.16,3.36,39.17,5.66a517.19,517.19,0,0,1,64.53,15.9A381.54,381.54,0,0,1,672,243c1.68.81,2.34.64,2.26-1.35-.15-3.68-.14-7.35-.55-11-1-9.18-1.43-18.43-2.6-27.59-1.53-12-3.17-24-5.48-35.89-3.43-17.62-8-34.92-17-50.74a126,126,0,0,0-16.39-22.72,151.83,151.83,0,0,0-34.7-28.1C586.93,59.3,576.43,52.72,564.49,49a340.15,340.15,0,0,0-44.86-11,326.2,326.2,0,0,0-34.87-4.19c-3.87-.22-7.76-.26-11.62-.56-3.24-.26-4.5.75-3.87,4a32.75,32.75,0,0,1,.43,6.24q0,39.87,0,79.73c0,1.29-.65,2.85.91,3.81l-5.45,5.39c-.08-1.39-.23-2.78-.23-4.18q0-45.86,0-91.7c0-.7,0-1.4,0-2.1,0-1.1-.37-1.54-1.64-1.45-8.91.65-17.83,1.1-26.72,2.11a333.05,333.05,0,0,0-46,8.14c-13,3.37-26.15,6.4-38.12,12.82-4,2.16-8,4.47-11.92,6.86-8.45,5.16-16.87,10.51-24.42,16.85a145,145,0,0,0-17.56,17,127.73,127.73,0,0,0-15.25,21.7c-9.17,16.9-14.49,35.12-18,53.89-2.47,13.07-4.41,26.22-6.19,39.4-1.28,9.53-2.51,19.08-3.91,28.59-.11.69-.32,1.48.26,2s1.24-.08,1.87-.35c7.33-3.12,14.6-6.41,22-9.26a548.67,548.67,0,0,1,61.11-19.48c16.09-4.11,32.37-7.15,48.77-9.7,15.34-2.38,30.77-3.62,46.22-4.54,8.64-.51,17.32-1.16,26-.68,2.68.15,3.58-.58,3.56-3.43,0-8.08-.37-16.17.16-24.26C466.3,172.59,468.49,173.49,469.91,175.18Zm200.9,133a50.2,50.2,0,0,0,6.85-.43c8.94-1.75,13.47-8,15.63-16.22,2.12-8,1.46-16.18.44-24.32-.31-2.54-1-4.5-3.45-5.73-5.89-2.92-11.64-6.14-17.55-9-12.12-5.88-24.55-11-37.18-15.69a443.17,443.17,0,0,0-54-16.2,617.23,617.23,0,0,0-68.67-11.67c-13.46-1.54-27-2.1-40.45-2.71a233,233,0,0,0-23.63.3c-10.62.6-21.25,1.16-31.87,1.87-10.82.73-21.55,2.2-32.22,3.92-12.33,2-24.61,4.4-36.78,7.39q-25.26,6.21-49.77,14.74a444.86,444.86,0,0,0-59.46,25.95,6.44,6.44,0,0,0-3.44,4.45,102.12,102.12,0,0,0-3.43,22.34A29.1,29.1,0,0,0,234,300c2,4.74,5.62,8,11.57,8.31,6.25.34,12.53.79,18.58-.57,6.27-1.42,12.12-4.37,18-7,12.94-5.85,25.73-12,38.71-17.76a406.57,406.57,0,0,1,60.91-21.11,348.19,348.19,0,0,1,68.48-10.62,238.3,238.3,0,0,1,48,1.76,337.19,337.19,0,0,1,36.26,6.89A455.8,455.8,0,0,1,587.1,276.7c20.69,8.1,40.26,18.78,61.11,26.51C655.56,305.93,662.88,308.25,670.81,308.14ZM328.46,65.21a1.84,1.84,0,0,0-2.25.05A212.44,212.44,0,0,0,300.9,79.39a133.2,133.2,0,0,0-31.08,27.28,149.72,149.72,0,0,0-22.62,38.86,447.6,447.6,0,0,0-17.34,53c-4.17,15.55-7.58,31.28-10.6,47.09-.91,4.76-1.93,9.55-2,14.45,0,1.63-.16,2.77,2.22,1.46,9.41-5.16,19-10.08,28.45-15.09.81-.42,1.68-.83,1.68-1.9,0-2.52,1-4.89,1.19-7.35,1.45-15,4-29.9,6.26-44.79,2.21-14.31,4.67-28.61,8.82-42.54a182.5,182.5,0,0,1,8.79-24.44c10.38-22.6,26.57-40.3,46.39-54.93C323.44,68.79,325.84,67.1,328.46,65.21Zm278.21,0A1.79,1.79,0,0,0,607.78,67c11,8,21.29,16.66,30.28,26.93a124.48,124.48,0,0,1,23.84,41.44c7.88,22.46,11.19,45.89,14,69.37,1.42,11.93,2.88,23.88,3.12,35.92.08,4.08,1.58,6.76,5.72,8.59,7.65,3.38,14.58,8.17,21.67,12.61.87.55,1.75,1.91,2.76,1.26s.45-2.07.33-3.11c-.93-7.88-1.75-15.78-3-23.62-2-12.95-4.35-25.87-7.47-38.59-5.6-22.81-11.71-45.5-21.28-67.06-5.23-11.8-11.44-23-20.79-32.19A161.16,161.16,0,0,0,627.4,76,168.27,168.27,0,0,0,606.67,65.2ZM447.8,25.72c6.2-.8,12.39-.45,18.47-.35,6.71.1,13.53-.61,20.23.75.52.11,1.33.22,1.49-.54.07-.36-.32-.9-.63-1.23a19.8,19.8,0,0,0-10.14-6A37.06,37.06,0,0,0,461,17.85C455.75,19,451,21,447.8,25.72Z" transform="translate(3.99 0.27)"/><path class="cls-4" d="M363,970c-3.74-.45-7.4.57-11.13.66a48.71,48.71,0,0,1-26-6.56c-13.1-7.55-19.94-19.39-21.68-34.23-1.95-16.61,5.44-29.26,17.47-39.72,7-6.08,15.3-9.93,23.79-13.54,9.61-4.08,17.74-10.63,26-16.85a11.67,11.67,0,0,0,3-2.47c4.22-6.47,10.73-5.56,16.67-4.67,19,2.84,35.38,11.49,49.86,24,13.68,11.86,23.43,26.39,30.86,42.77s13.59,33.65,21.85,49.83a112.05,112.05,0,0,0,6.8,11.58c.5.75,2.3,1.84.35,3.06l-.16-.22-.39-.39a1,1,0,0,1-.21-.21l-.39-.39a1,1,0,0,1-.21-.21l-.39-.4-.2-.21-.4-.41-.18-.18-.41-.42-.18-.18-.42-.42-.18-.19-.42-.44-.16-.17-.42-.44-.17-.17-.44-.43c-5.36-6.67-10.76-13.3-16-20-4.48-5.72-8.65-11.67-13.53-17.08a94,94,0,0,0-25.37-19.63c-11-6-22.82-8.1-35.17-7.44a66.25,66.25,0,0,0-26.25,7.23c-9.19,4.6-18.66,8.53-29.27,8.32a18.44,18.44,0,0,1-5.55-1c-1.49-.5-1.76.13-1.81,1.36a4.16,4.16,0,0,0,.64,2.57c2,3,4,6,6.1,8.85,4.41,6,15.89,8.6,24.08,4.92,6.26-2.82,12.45-5.89,19.2-7.45a54,54,0,0,1,40.07,5.67,29.82,29.82,0,0,1,11.53,11.83c5.82,10.6.42,24-13.7,25-10.17.7-18-10.43-15.5-18.6a8.64,8.64,0,0,1,4.42-5.37c1.08-.56,2.8-.79,2.27-2.59-.47-1.59-2-1.81-3.43-1.84-5.77-.15-11.5,0-17.16,1.56-7.73,2.13-14.87,5.6-22.08,9A117.61,117.61,0,0,1,363,970Z" transform="translate(3.99 0.27)"/><path class="cls-4" d="M175.94,554.89c1.18-1.11,1-2.83.81-3.93-1-7.44,2.38-14,4-20.83,1.15-4.9,2.81-9.67,4.34-14.82,1.41,1.19,1,2.3.86,3.28-1.51,8.32-2.14,16.74-2.86,25.15q-1.75,20.24-2.57,40.51c-.45,10.89.15,21.68.76,32.5a243,243,0,0,0,2.91,26,135.66,135.66,0,0,0,8.9,31.81c4.58,10.54,10.45,20.21,18.84,28.12,7.72,7.29,16.6,13,27.06,15.18,18.16,3.86,30.14-5.12,34.57-22.32A89.14,89.14,0,0,0,275.66,666c-.76-9.42-2-18.78-2.65-28.2-.43-6.36-1.24-12.7-1.05-19.07.55-18.59,2.68-36.93,10.27-54.19,1.77-4,4.07-7.85,6.12-11.77l.82.22c-.27,3.07-.6,6.14-.79,9.21a200.55,200.55,0,0,0,0,28.9c1.53,19,8.09,36.86,13.16,55,2.72,9.77,5.51,19.53,6.64,29.65,2.15,19.32,1,38.11-10.25,54.86a32.51,32.51,0,0,1-17,13.08c-2.64.86-3.17,1.82-2.17,4.46A190.25,190.25,0,0,1,290,793.56c2,16.67.56,33.12-2.26,49.56-2.39,14-6.15,27.74-8,41.85-.17,1.28-.52,1.88-1.89,1.29-9.59-4.15-19.56-7.6-27.81-14.29a32,32,0,0,1-10.9-16.08c1-.7,1.5.3,2.06.66,7.71,5,13.08,3.91,18.24-3.76,3.84-5.72,5.85-12.18,7.69-18.73,3.55-12.63,4.21-25.54,3.49-38.5-.62-11.27-3.48-22.17-7-32.88-1.28-3.87-2.66-7.71-4-11.57-.71-2.09-1.89-3-4.35-3.17a65.25,65.25,0,0,1-14.38-2.31,4.48,4.48,0,0,1-2.56-2.26l-.07-.16a29.63,29.63,0,0,0-2.92-10l-.1-.22c0-.78.36-1.63-.48-2.23l-.09-.16c0-.78.31-1.65-.51-2.25l-.07-.13a.93.93,0,0,0-.55-1.07l-.74-.7-.48-.35-.66-.23a.78.78,0,0,0-1.09-.36,74.09,74.09,0,0,1-22.18-13.79,86.54,86.54,0,0,1-17.61-21.35c-7-12-10.58-25.27-13.36-38.78-2.3-11.22-3.17-22.59-3.93-34-.56-8.28-.47-16.54-.48-24.82,0-12,1.24-24,2.5-36a1.77,1.77,0,0,0,.37-1.73Z" transform="translate(3.99 0.27)"/><path class="cls-4" d="M859.45,818.27c-3.22.48-5.83,2.44-8.76,3.61-14.58,5.81-27.32,14.2-37.38,26.48-8.81,10.74-19.83,18.11-33.74,20.56a53.94,53.94,0,0,1-22.52-.43,4,4,0,0,0-2.87,0c-13.47,6.09-25.8,2.63-37.76-4.48-6.8-4-12.22-9.88-18.92-14.05-11.12-6.93-22.77-8.35-35.12-3.94a3.47,3.47,0,0,1-.85.17c-.07,0-.16-.11-.47-.33a30.72,30.72,0,0,1,5.65-6c8.15-7.29,17.25-12.83,28.34-14.26,8.26-1.07,15.49,1.62,22.07,6.46,6.25,4.6,10.26,11,14.39,17.37,3.45,5.3,7.26,10.16,13.83,12,8.86,2.54,19.79-1.93,24.08-10.08,2.94-5.59,4.59-11.67,6.74-17.55,4.07-11.16,9.44-21.5,18.39-29.67a35.23,35.23,0,0,1,22.64-9.44c7.43-.4,14.86-.91,21.92-3.78,7.68-3.12,13.43-8.39,18.12-15.05,5.06-7.19,9-15,13.41-22.62,7.25-12.58,13.41-25.84,22.31-37.43a43,43,0,0,1,15.62-12.74c7.32-3.5,14.16-.4,17,7.24,3.74,10,2.44,19.84-.37,29.61a125.15,125.15,0,0,1-16.56,35c-4.6,6.9-10,13.1-15.15,19.57l-.17.22A138.05,138.05,0,0,0,878,807.26l-.56.24c-.45,0-.83,0-1,.55l-.25.16-.5.36a84.06,84.06,0,0,1-13.52,8C861.23,817,860.09,817.28,859.45,818.27Z" transform="translate(3.99 0.27)"/><path class="cls-4" d="M692.76,927.78a170.59,170.59,0,0,1,26.34-25.26c6.1-4.59,12.88-7.86,20.5-8,16.47-.32,31.18,9.24,31.06,28.59,0,3.38-.33,6.89-2.86,9.62l-.12.1-.46.47-.14.13-.47.47-.13.13-.51.45-.61.32-.37.33a1.24,1.24,0,0,1-.28.28l-.34.36-.86.68-.54.42-.64.29-.55.32-.62.25c-1.09,0-2.4-.46-3.24,0-3.54,1.85-5.59-.06-8.3-2.13-9.23-7-19.68-8.52-30.81-5.4-9.67,2.71-17.88,8.2-26.06,13.72-11.54,7.79-21.93,17.19-34,24.33-10.47,6.2-21.49,11-33.66,12.37a49,49,0,0,1-36.48-10.13c-10.77-8.27-16.81-19.25-19.23-32.34-2.12-11.45-1.64-23-.76-34.54.15-2,1-1.12,1.91-.46A64,64,0,0,0,598,915.05c5.18.9,10.19-.09,15.25-.8,1.13-.16,2.2-1.15,3.4-.21a19.46,19.46,0,0,1-8.36,1.78c-1.74,0-2.48.7-2.62,2.46a117.16,117.16,0,0,0-.42,14.63c.47,12.41,6.84,21.4,17.11,25.44,13.41,5.29,26.36,2.68,38.38-4.25a101,101,0,0,0,18.33-13.7c.42.07.8.07.86-.48a1.93,1.93,0,0,1,.35-.29h.22l0-.22a1.36,1.36,0,0,1,.37-.31l.25,0,.06-.25a2.37,2.37,0,0,1,.28-.27c.23,0,.34-.09.33-.32A2,2,0,0,1,682,938a13.15,13.15,0,0,0,6.37-6.31,1.87,1.87,0,0,1,.26-.3A.27.27,0,0,0,689,931a1.53,1.53,0,0,1,.28-.29c.22,0,.33-.09.32-.31a1.92,1.92,0,0,1,.29-.28c.22,0,.34-.09.34-.32a2.61,2.61,0,0,1,.27-.22c.79.07,1.33-.19,1.46-1a1.35,1.35,0,0,1,.32-.26l.26,0,.07-.26Z" transform="translate(3.99 0.27)"/><path class="cls-4" d="M903.14,675.45c-9.87-4.9-20.62-5.58-31.3-6.5a129.3,129.3,0,0,1-56.08-18c-14.59-8.73-25.8-20.82-34.49-35.32-1.1-1.84-2.75-3.4-3.3-5.94,1.92.13,2.26,1.77,3,2.67,8.7,10.34,19.33,18.36,30.74,25.38,9,5.56,18.62,10,29.1,12.19,14.1,2.92,27.69,1.94,39.6-6.93,13.15-9.79,20.36-25.67,16.43-42.61a42.89,42.89,0,0,0-5.21-12.95c-.36-.6-1.53-1.5.19-2l.11.15.49.43c4.22,2.42,6.72,6.51,9.32,10.3,6.43,9.36,11,19.53,12.84,30.91,1.87,11.8.88,23.13-4.11,34.08a44.65,44.65,0,0,1-5.53,9.51A6.69,6.69,0,0,0,903.14,675.45Z" transform="translate(3.99 0.27)"/><path class="cls-4" d="M677.24,984.32c1.06-2.68,3.3-4.51,5.14-6.54,6.75-7.46,13.54-14.92,20.76-21.93,6.93-6.74,14.52-12.63,24.1-15.55,12-3.66,23.74,1.76,28.43,13.31a30.57,30.57,0,0,1,1.81,13.19c-1.72,6.35-6.13,10.45-11.42,13.88a30.15,30.15,0,0,0-7.22,6.17c-2.9,3.56-2.74,7.39-1.15,11.26s5,4.72,8.81,4.88c3.24.13,6.21-.84,10-2.07a13.42,13.42,0,0,1-6,4.63c-8.27,3.68-16.17,3-23-3.22-5.78-5.28-6.4-14.79-.48-21.25,2.35-2.57,5-4.87,7.09-7.7,2.4-3.26,2.25-6.64.7-10.16-1.45-3.28-4.47-3.76-7.44-4-8.31-.72-15.57,2.68-22.75,6.17-9.66,4.7-18,11.24-26.08,18.29A5.72,5.72,0,0,1,677.24,984.32Z" transform="translate(3.99 0.27)"/><path class="cls-2" d="M878,807.26a138.05,138.05,0,0,1,15.38-12.55c.57,1.69-1,2.21-1.81,3-3.43,3.55-7.75,6-11.64,9A2.15,2.15,0,0,1,878,807.26Z" transform="translate(3.99 0.27)"/><path class="cls-2" d="M235.31,733.22a29.63,29.63,0,0,1,2.92,10C236.32,740.16,235.87,736.67,235.31,733.22Z" transform="translate(3.99 0.27)"/><path class="cls-2" d="M873.67,490.06a3.12,3.12,0,0,1-.93.5.34.34,0,0,1-.28-.57,3.88,3.88,0,0,1,1-.55Z" transform="translate(3.99 0.27)"/><path class="cls-2" d="M234.73,730.77c.84.6.51,1.45.48,2.23C234.43,732.39,234.74,731.55,234.73,730.77Z" transform="translate(3.99 0.27)"/><path class="cls-2" d="M234.13,728.36c.82.6.47,1.47.51,2.25C233.82,730,234.14,729.14,234.13,728.36Z" transform="translate(3.99 0.27)"/><path class="cls-2" d="M175.85,555.07a1.77,1.77,0,0,1-.37,1.73C175.33,556.17,175.2,555.53,175.85,555.07Z" transform="translate(3.99 0.27)"/><path class="cls-2" d="M233.51,727.16a.93.93,0,0,1,.55,1.07A1,1,0,0,1,233.51,727.16Z" transform="translate(3.99 0.27)"/><path class="cls-2" d="M230.54,725.52a.78.78,0,0,1,1.09.36Z" transform="translate(3.99 0.27)"/><path class="cls-2" d="M876.46,808.05c.13-.52.51-.59,1-.55A.9.9,0,0,1,876.46,808.05Z" transform="translate(3.99 0.27)"/><path class="cls-2" d="M875.71,808.57l.5-.36Z" transform="translate(3.99 0.27)"/><path class="cls-2" d="M892.45,586.05l-.49-.43Z" transform="translate(3.99 0.27)"/><path class="cls-2" d="M767.22,933.29l.46-.47Z" transform="translate(3.99 0.27)"/><path class="cls-2" d="M766.61,933.89l.47-.47Z" transform="translate(3.99 0.27)"/><path class="cls-2" d="M766,934.47l.51-.45Z" transform="translate(3.99 0.27)"/><path class="cls-2" d="M765,935.12l.37-.33A.53.53,0,0,1,765,935.12Z" transform="translate(3.99 0.27)"/><path class="cls-2" d="M764.37,935.76l.34-.36A.5.5,0,0,1,764.37,935.76Z" transform="translate(3.99 0.27)"/><path class="cls-2" d="M763,936.86l.54-.42Z" transform="translate(3.99 0.27)"/><path class="cls-2" d="M761.78,937.47l.55-.32Z" transform="translate(3.99 0.27)"/><path class="cls-2" d="M232.29,726.11l.48.35Z" transform="translate(3.99 0.27)"/><path class="cls-2" d="M495.56,978.43l.44.43C495.85,978.72,495.7,978.58,495.56,978.43Z" transform="translate(3.99 0.27)"/><path class="cls-2" d="M496.17,979l.42.44Z" transform="translate(3.99 0.27)"/><path class="cls-2" d="M496.75,979.64l.42.44Z" transform="translate(3.99 0.27)"/><path class="cls-2" d="M497.35,980.27l.42.42Z" transform="translate(3.99 0.27)"/><path class="cls-2" d="M498,980.87l.41.42Z" transform="translate(3.99 0.27)"/><path class="cls-2" d="M498.54,981.47l.4.41Z" transform="translate(3.99 0.27)"/><path class="cls-2" d="M499.14,982.09l.39.4A.49.49,0,0,1,499.14,982.09Z" transform="translate(3.99 0.27)"/><path class="cls-2" d="M499.74,982.7l.39.39A.49.49,0,0,1,499.74,982.7Z" transform="translate(3.99 0.27)"/><path class="cls-2" d="M500.34,983.3l.39.39A.49.49,0,0,1,500.34,983.3Z" transform="translate(3.99 0.27)"/><path class="cls-2" d="M502.62,985.59,502,985l.12-.12.28,0h.29a2.15,2.15,0,0,0,0,.57Z" transform="translate(3.99 0.27)"/><path class="cls-4" d="M619.08,554.16c3.09,2.86,4.8,6.34,6.25,9.89a131.85,131.85,0,0,1,9.38,37.5,164.05,164.05,0,0,1-1.06,37.51c-1.68,12.41-3.7,24.83-3.14,37.41.41,9.12,1.93,18,6.37,26.18,5,9.09,12.15,14.89,22.89,16.12,10.93,1.26,20.22-2.21,28.59-8.7,12-9.26,20.06-21.44,26.06-35.17,6.24-14.3,9-29.38,10.77-44.77,1.64-14.63,1.45-29.3,1-43.93a343.9,343.9,0,0,0-3.37-36.48,24.84,24.84,0,0,1,0-2.68c2.17,3.24,3,6.34,3.94,9.29a284.66,284.66,0,0,1,10.89,45.49c1.5,9.3,2.57,18.68,3.31,28.1,1.28,16.23-.43,32.15-3.55,48-.58,2.92-1,5.89-1.81,8.75-.57,1.88.48,3,1.7,4.12a134.13,134.13,0,0,0,21.51,15.54c14.79,8.95,30.78,15.06,47.34,19.69a116.41,116.41,0,0,0,21.73,3.51,156.6,156.6,0,0,0,17.32.4A55.88,55.88,0,0,1,854,730a16.15,16.15,0,0,1,11.14,6.86,7,7,0,0,1,.56,6.63c-5.29,14.33-12.75,27.37-24.48,37.35-7.87,6.7-17,6.87-26.39,2.85-13.77-5.87-27.49-11.85-40.68-18.92a264.72,264.72,0,0,1-27.25-17.23,193.58,193.58,0,0,1-27.21-23.25c-1.57-1.61-2.63-1.62-4.12,0A85.19,85.19,0,0,1,699.17,739c-8.27,5.4-17.34,8.8-27.18,8.9a46.31,46.31,0,0,1-32.51-12.14,35.63,35.63,0,0,1-6.34-6.75c-.68-1-1.33-1.24-2.7-.58-10.19,4.94-9.53,3.93-14.69-4a73.48,73.48,0,0,1-11.66-47.32c.92-10.72,3.56-21.17,6.77-31.43,4.17-13.31,8.08-26.7,9.77-40.55,1.72-14,2.34-28.17-.29-42.23C619.81,560,619.49,557.07,619.08,554.16Z" transform="translate(3.99 0.27)"/><path class="cls-4" d="M552.17,767.27c-2.85-4.58-5.4-8.48-7.75-12.5-4.51-7.68-6.59-16.08-7.61-24.9-1.38-11.92.25-23.42,3.64-34.76A102.36,102.36,0,0,1,557.82,661c.73-.93,1.45-1.87,2.57-3.32a7.86,7.86,0,0,1,.33,4.29,124.29,124.29,0,0,0-.62,35.36c2.64,20.55,8.26,40.31,14.87,59.85,4.69,13.86,12.18,26.13,21,37.7,8.27,10.88,16.2,22,22,34.4a92.49,92.49,0,0,1,8.4,33.37c.7,10.44.14,20.67-3.12,30.62-1.91,5.83-5.25,10.74-11,13.55a9.73,9.73,0,0,1-2.24.77c-3.38.66-3.24.65-3-2.87.63-9,1.72-18.06,1.22-27.14-.88-16.11-5.75-31-13.6-45a124.64,124.64,0,0,0-23.33-29.39c-9.17-8.74-19.7-15.51-30.8-21.45s-23-11.1-34.13-17.37-21.31-14-28.43-25c-4.37-6.74-6.18-14.28-7.09-22.24-1.35-11.91.85-23.17,4.85-34.23A76.34,76.34,0,0,1,483.48,667c.48-.73.72-2.31,1.93-1.85,1,.39.47,1.78.47,2.72.05,5.29-.14,10.6.06,15.88.61,16.59,5.21,32,14.62,45.75a101.82,101.82,0,0,0,37,32.67A44.16,44.16,0,0,0,552.17,767.27Z" transform="translate(3.99 0.27)"/><path class="cls-5" d="M549.47,364.11a46.73,46.73,0,0,1,19.5-37c16.41-12.07,39.77-9.7,54.45,5.29,17.72,18.1,18.38,48.41,1.68,67.47-20,22.82-53,18.32-68.19-6.4C552,385.47,549.46,376.4,549.47,364.11ZM567.67,351c0,7.35,5.26,13,12.05,13a12.79,12.79,0,0,0,12.58-13c0-7-5.64-12.91-12.3-12.88A12.66,12.66,0,0,0,567.67,351Z" transform="translate(3.99 0.27)"/><path class="cls-4" d="M499.44,818.21c-7.39-4.09-14.77-7.46-22.81-9.21-6.82-1.48-13.69-2.78-20.64-2.64-7.53.17-15.11.79-22.29,3.44a4.33,4.33,0,0,1-5.07-1.2c-9.1-8.8-18.17-17.6-25.16-28.27-8.35-12.75-15.44-26.16-18.63-41.14-4.16-19.58-2.29-38.7,7.09-56.6a98.68,98.68,0,0,1,33.69-37.28c2.58-1.69,5.21-3.32,7.75-5.07.55-.39,1.16-1,1.82-.35.52.53-.07,1.12-.34,1.61a130.87,130.87,0,0,0-13.36,36.3,123.61,123.61,0,0,0-2.62,32.64c1,15.39,4,30.35,11.28,44.2,6,11.41,14.45,20.79,24.28,28.88,14.13,11.64,29.26,22,44,32.85A1.72,1.72,0,0,1,499.44,818.21Z" transform="translate(3.99 0.27)"/><path class="cls-5" d="M280.09,340.32c5.92-8.64,13.46-15.21,23.54-18.58,17-5.71,35.23,0,46.25,14.58a51,51,0,0,1,1.17,59.95,53.53,53.53,0,0,1-11.38,11.41,1.37,1.37,0,0,0-1.39.93l-8.18,4c-3.82.58-7.52,1.75-11.42,1.95-7.44.39-14.35-1.51-21.06-4.47-7.75-3.42-13-9.56-17.58-16.35a1.47,1.47,0,0,0-.85-1.42l-2.29-4.56a20.2,20.2,0,0,0-2.17-6l-.3-1.16a.9.9,0,0,0-.35-1.23l-.28-1.17a14,14,0,0,0-.9-5.43c-.07-.79-.15-1.58-.23-2.37a18.35,18.35,0,0,0,0-6.73c.08-.79.15-1.58.22-2.37a18.18,18.18,0,0,0,.93-6l.29-1.17a40.79,40.79,0,0,0,2.78-7.81q1.14-2.3,2.29-4.57A1.53,1.53,0,0,0,280.09,340.32ZM303.36,338c-7.09.05-12.53,5.81-12.51,13.27,0,7.1,5.32,12.92,11.8,13,7,0,13-6.12,13-13.36C315.65,343.82,310.06,338,303.36,338Z" transform="translate(3.99 0.27)"/><path class="cls-4" d="M546.15,994.15a66.25,66.25,0,0,1-19.72-18.66c-9.19-13.4-15-28.33-19.46-43.79s-8.15-31.44-15.3-46.14A142.93,142.93,0,0,0,472.06,855a112.65,112.65,0,0,0-33.17-26.5,95.07,95.07,0,0,0-14.66-5.93c-.62-.2-1.54.06-1.72-.87s.69-1.11,1.27-1.43c13.14-7.13,27-9.73,41.84-7.12a99.2,99.2,0,0,1,34.85,13.67c12.31,7.56,20.54,18.57,25.7,32.05a97,97,0,0,1,6.44,41c-.54,9.11-2.3,18.1-3.83,27.11-2.85,16.8-2.39,33.35,5,49.11a59.25,59.25,0,0,0,10.41,15.25C544.93,992.12,546,992.77,546.15,994.15Z" transform="translate(3.99 0.27)"/><path class="cls-1" d="M679.05,940.4a101,101,0,0,1-18.33,13.7c-12,6.93-25,9.54-38.38,4.25-10.27-4-16.64-13-17.11-25.44a117.16,117.16,0,0,1,.42-14.63c.14-1.76.88-2.5,2.62-2.46a19.46,19.46,0,0,0,8.36-1.78c6.29-1.6,11.29-5.17,15.54-10a105.88,105.88,0,0,0,11.61-16.58,4.91,4.91,0,0,1,2.65-2.32c5.42-1.73,10.85-1.7,15.92.93,3.95,2,5.57,6.88,4.4,11.72-.84,3.47-2.27,6.86-2.65,10.37-.82,7.65,4.09,14.2,12.46,17.23a24.06,24.06,0,0,0,12.92.94c1.22-.22,3.16-1.3,3.28,1.41l-.17.22a.32.32,0,0,0-.33.3,1.35,1.35,0,0,0-.32.26,1.4,1.4,0,0,0-1.46,1,1.78,1.78,0,0,0-.26.22.33.33,0,0,0-.35.32,2.5,2.5,0,0,0-.29.27.33.33,0,0,0-.32.32,1.85,1.85,0,0,0-.28.28.33.33,0,0,0-.32.33,1.42,1.42,0,0,0-.25.3c-2.14,2.09-4.68,3.77-6.38,6.31a2,2,0,0,0-.24.26.33.33,0,0,0-.33.32,1.72,1.72,0,0,0-.27.27.3.3,0,0,0-.32.29,1.19,1.19,0,0,0-.36.31.23.23,0,0,0-.25.23,1.93,1.93,0,0,0-.35.29Z" transform="translate(3.99 0.27)"/><path class="cls-4" d="M382.77,414.35c47.6,33.17,94.88,36.43,142.46.62a25.07,25.07,0,0,1-5.67,9c-13.41,14.47-30.21,22.41-49.47,25.54a96.09,96.09,0,0,1-58.69-8.68c-10.67-5.2-20.07-12.25-26.84-22.28A8.39,8.39,0,0,1,382.77,414.35Z" transform="translate(3.99 0.27)"/><path class="cls-4" d="M484.85,461.65c-11.74,13.18-49.52,13.74-61-.39a85.54,85.54,0,0,0,30.59,5.07C464.59,466.34,474.56,465.3,484.85,461.65Z" transform="translate(3.99 0.27)"/><path class="cls-4" d="M297.62,410.11c6.71,3,13.62,4.86,21.06,4.47,3.9-.2,7.6-1.37,11.42-1.95-2.26,1.85-5.11,2.06-7.77,2.42a40.7,40.7,0,0,1-23.27-3.58C298.45,411.18,297.72,411,297.62,410.11Z" transform="translate(3.99 0.27)"/><path class="cls-6" d="M588.37,285.85a17.14,17.14,0,0,1,7.94,3.3A13.41,13.41,0,0,1,588.37,285.85Z" transform="translate(3.99 0.27)"/><path class="cls-4" d="M276.91,346.29a40.79,40.79,0,0,1-2.78,7.81A12.29,12.29,0,0,1,276.91,346.29Z" transform="translate(3.99 0.27)"/><path class="cls-4" d="M272.69,363.67a18.35,18.35,0,0,1,0,6.73A6.87,6.87,0,0,1,272.69,363.67Z" transform="translate(3.99 0.27)"/><path class="cls-4" d="M273.84,355.27a18.18,18.18,0,0,1-.93,6C272.1,359.11,272.87,357.18,273.84,355.27Z" transform="translate(3.99 0.27)"/><path class="cls-4" d="M274.73,381.76a20.2,20.2,0,0,1,2.17,6A7.9,7.9,0,0,1,274.73,381.76Z" transform="translate(3.99 0.27)"/><path class="cls-6" d="M249.09,316.44a5.42,5.42,0,0,1,5.41,0A7.38,7.38,0,0,1,249.09,316.44Z" transform="translate(3.99 0.27)"/><path class="cls-6" d="M472.73,258.88c1.86-.86,3.69-1.13,5.46.2A11.34,11.34,0,0,1,472.73,258.88Z" transform="translate(3.99 0.27)"/><path class="cls-4" d="M272.9,372.77a14,14,0,0,1,.9,5.43C272.8,376.5,272.09,374.76,272.9,372.77Z" transform="translate(3.99 0.27)"/><path class="cls-6" d="M452.29,259c1.57-1.27,3.21-1,4.87-.18A8.42,8.42,0,0,1,452.29,259Z" transform="translate(3.99 0.27)"/><path class="cls-6" d="M483.53,259.45c1.09-.88,2.13-1.05,3.06.24A3.93,3.93,0,0,1,483.53,259.45Z" transform="translate(3.99 0.27)"/><path class="cls-1" d="M867.29,493.82l2.28-.13c-.35,1-.8,1.86-1.82,1.68-.67-.12-.45-.95-.51-1.5Z" transform="translate(3.99 0.27)"/><path class="cls-6" d="M224.23,290.52c1.28.91,1,2,.28,3.06A3.08,3.08,0,0,1,224.23,290.52Z" transform="translate(3.99 0.27)"/><path class="cls-6" d="M226.34,266.33c.11-.59.53-1,.91-.39a1.22,1.22,0,0,1-.59,1.92C226.55,267.35,226.44,266.84,226.34,266.33Z" transform="translate(3.99 0.27)"/><path class="cls-6" d="M442.1,259.71c.5-1,1.12-1.15,1.87-.25A1.59,1.59,0,0,1,442.1,259.71Z" transform="translate(3.99 0.27)"/><path class="cls-6" d="M435.5,260.25c.52-.95,1.14-1.07,1.87-.21A1.56,1.56,0,0,1,435.5,260.25Z" transform="translate(3.99 0.27)"/><path class="cls-6" d="M491.32,260.07c.73-.88,1.35-.79,1.86.22A1.57,1.57,0,0,1,491.32,260.07Z" transform="translate(3.99 0.27)"/><path class="cls-6" d="M429.51,260.9c.51-1,1.13-1.12,1.87-.22A1.6,1.6,0,0,1,429.51,260.9Z" transform="translate(3.99 0.27)"/><path class="cls-6" d="M496.12,260.65c.74-.87,1.36-.76,1.86.24A1.54,1.54,0,0,1,496.12,260.65Z" transform="translate(3.99 0.27)"/><path class="cls-6" d="M424.72,261.5c.5-1,1.12-1.12,1.86-.23A1.59,1.59,0,0,1,424.72,261.5Z" transform="translate(3.99 0.27)"/><path class="cls-6" d="M224.45,279.18c.86.72.76,1.34-.19,1.88A1.6,1.6,0,0,1,224.45,279.18Z" transform="translate(3.99 0.27)"/><path class="cls-6" d="M412.12,263.3c.3-.74.67-1.07,1.27-.24A1,1,0,0,1,412.12,263.3Z" transform="translate(3.99 0.27)"/><path class="cls-4" d="M279.19,392.34a1.47,1.47,0,0,1,.85,1.42C279.23,393.6,279,393.08,279.19,392.34Z" transform="translate(3.99 0.27)"/><path class="cls-4" d="M338.28,408.61a1.37,1.37,0,0,1,1.39-.93A1.05,1.05,0,0,1,338.28,408.61Z" transform="translate(3.99 0.27)"/><path class="cls-4" d="M274.08,379.37a.9.9,0,0,1,.35,1.23C273.77,380.34,273.45,380,274.08,379.37Z" transform="translate(3.99 0.27)"/><path class="cls-4" d="M280.09,340.32a1.53,1.53,0,0,1-.89,1.4C279,341,279.27,340.45,280.09,340.32Z" transform="translate(3.99 0.27)"/><path class="cls-6" d="M241.9,315.19c.68-.82,1-.39,1.25.35A1,1,0,0,1,241.9,315.19Z" transform="translate(3.99 0.27)"/><path class="cls-6" d="M225.11,275c.79.58.43.95-.24,1.26A.92.92,0,0,1,225.11,275Z" transform="translate(3.99 0.27)"/><path class="cls-6" d="M264.64,314.94c.25-.8.62-1.14,1.26-.3A1,1,0,0,1,264.64,314.94Z" transform="translate(3.99 0.27)"/><path class="cls-6" d="M379.15,270.57c.24-.75.56-1.17,1.25-.36A1,1,0,0,1,379.15,270.57Z" transform="translate(3.99 0.27)"/><path class="cls-6" d="M540.49,269.62c.68-.83,1-.41,1.25.35A1,1,0,0,1,540.49,269.62Z" transform="translate(3.99 0.27)"/><path class="cls-6" d="M500.91,261.3c.59-.87,1-.55,1.26.24A.92.92,0,0,1,500.91,261.3Z" transform="translate(3.99 0.27)"/><path class="cls-6" d="M420.52,262.08c.32-.76.71-1,1.27-.18A1,1,0,0,1,420.52,262.08Z" transform="translate(3.99 0.27)"/><path class="cls-6" d="M544.7,270.78c.69-.79,1-.35,1.24.38A1,1,0,0,1,544.7,270.78Z" transform="translate(3.99 0.27)"/><path class="cls-6" d="M226.32,269c.78.59.42,1-.25,1.27A1,1,0,0,1,226.32,269Z" transform="translate(3.99 0.27)"/><path class="cls-6" d="M526.1,266c.65-.81,1-.42,1.26.31A.94.94,0,0,1,526.1,266Z" transform="translate(3.99 0.27)"/><path class="cls-6" d="M504.51,261.89c.56-.84.95-.56,1.27.2A.94.94,0,0,1,504.51,261.89Z" transform="translate(3.99 0.27)"/><path class="cls-6" d="M523.7,265.42c.65-.82,1-.44,1.26.31A1,1,0,0,1,523.7,265.42Z" transform="translate(3.99 0.27)"/><path class="cls-6" d="M398.93,265.73c.29-.77.66-1.11,1.27-.26A1,1,0,0,1,398.93,265.73Z" transform="translate(3.99 0.27)"/><path class="cls-6" d="M521.3,264.85c.67-.85,1-.45,1.25.33A1,1,0,0,1,521.3,264.85Z" transform="translate(3.99 0.27)"/><path class="cls-6" d="M401.93,265.13c.27-.75.63-1.12,1.26-.29A1,1,0,0,1,401.93,265.13Z" transform="translate(3.99 0.27)"/><path class="cls-6" d="M511.71,263c.62-.82,1-.46,1.26.28A1,1,0,0,1,511.71,263Z" transform="translate(3.99 0.27)"/><path class="cls-4" d="M502.72,984.91h-.29l-.28,0C502.36,984.38,502.54,984.48,502.72,984.91Z" transform="translate(3.99 0.27)"/><path class="cls-4" d="M502.74,985.47a2.15,2.15,0,0,1,0-.57C503.13,985.08,503.23,985.26,502.74,985.47Z" transform="translate(3.99 0.27)"/><path class="cls-6" d="M465.18,170.58c-.53,8.09-.21,16.18-.16,24.26,0,2.85-.88,3.58-3.56,3.43-8.68-.48-17.36.17-26,.68-15.45.92-30.88,2.16-46.22,4.54-16.4,2.55-32.68,5.59-48.77,9.7a548.67,548.67,0,0,0-61.11,19.48c-7.43,2.85-14.7,6.14-22,9.26-.63.27-1.2.93-1.87.35s-.37-1.3-.26-2c1.4-9.51,2.63-19.06,3.91-28.59,1.78-13.18,3.72-26.33,6.19-39.4,3.55-18.77,8.87-37,18-53.89a127.73,127.73,0,0,1,15.25-21.7,145,145,0,0,1,17.56-17c7.55-6.34,16-11.69,24.42-16.85,3.91-2.39,7.88-4.7,11.92-6.86,12-6.42,25.1-9.45,38.12-12.82a333.05,333.05,0,0,1,46-8.14c8.89-1,17.81-1.46,26.72-2.11,1.27-.09,1.64.35,1.64,1.45,0,.7,0,1.4,0,2.1q0,45.86,0,91.7c0,1.4.15,2.79.23,4.18s-2.54,2.64-.4,4.27l.29,15.32C462,158.2,461.48,164.4,465.18,170.58Zm-22.66-14h0c0,5.89,0,11.79,0,17.68,0,1.78.58,2.5,2.44,2.43,3.39-.12,6.79,0,10.19,0,6-.07,5.91-.09,6-6,.05-2.36-.65-3.38-3-3.07-.58.07-1.21-.08-1.79,0-3,.49-3.93-.66-3.88-3.74.15-9.18.19-18.38-.19-27.56-.29-6.95-4.67-11.24-11.51-12s-12.39,1.63-17.16,6.19c-1.6,1.54-2.45,1.94-3.63-.37-1.77-3.44-4.93-5.14-8.64-5.8-6.18-1.1-11.31,1.43-16.2,4.79-.76.52-1.26,1.92-2.41,1.29-.86-.48-.43-1.68-.34-2.5.27-2.33-.5-3.2-3-3.06-4.09.21-8.2.2-12.28,0-2.31-.11-2.9.7-2.91,2.89,0,6-.12,6,5.66,6.08,1.68,0,2.54.3,2.52,2.29-.1,9.68-.09,19.37,0,29.06,0,1.91-.55,2.61-2.56,2.62-5.62,0-5.62.12-5.55,5.69,0,.1,0,.21,0,.3-.31,2.2.54,3,2.83,2.93,6.79-.14,13.58-.2,20.37,0,2.74.09,3.36-.76,3.26-3.35-.2-5.49-.06-5.61-5.57-5.57-2.28,0-2.9-.75-2.86-2.94.12-6.29.53-12.64-.11-18.86-.57-5.47,1.61-8.58,6.05-10.94,3.41-1.81,6.86-3.74,10.72-1.7s3.39,5.82,3.42,9.28q.13,15.59,0,31.16c0,2.17.5,3,2.84,2.94,4.28-.19,8.59-.2,12.88,0,2.12.09,2.71-.55,2.73-2.65.07-6.22.16-6.34-6-6.35-2.11,0-2.52-.74-2.51-2.59.05-7.89,0-15.78,0-23.67a2.78,2.78,0,0,1,.77-2.47c3-2.35,5.83-4.92,9.61-5.93,6.22-1.65,9.75,1,9.83,7.4C442.57,145.76,442.52,151.16,442.52,156.55Zm-50.83-42.14h-.09c0-1.4,0-2.79,0-4.19,0-.9.08-2-1.15-2.07-1.47-.09-1.39,1.11-1.4,2.12,0,1.79,0,3.6-.09,5.39a3,3,0,0,1-3.13,3c-2.05,0-2.21-1.6-2.2-3.21,0-1.39.05-2.8-.05-4.19-.11-1.64.6-4-2.77-2.66a3.09,3.09,0,0,1-3.43-1.52c-.36-.79.24-1.52,1.16-1.76.72-.18,1.9-.07,1.53-1.25s-1.63-1-2.57-.71a3.51,3.51,0,0,0-2.5,2.37,12.17,12.17,0,0,0-.28,6,8.23,8.23,0,0,1,0,1.49c0,1.8,0,3.6,0,5.39,0,1,.08,2,1.3,2s1.21-1.09,1.22-2c0-2.2.05-4.4,0-6.59-.08-1.81,1.3-1.8,2.4-2,1.61-.31,1.41,1.05,1.47,2,.1,1.49,0,3,.06,4.49.19,3.39,2.91,5.16,6.06,4,.63-.23,1.17-1.09,1.87-.61,3.35,2.29,2.46-.59,2.6-2.11C391.77,116.62,391.69,115.51,391.69,114.41Zm26.37-2.7h0v-6.86c0-.85-.13-1.66-1.19-1.73-1.24-.08-1.47.76-1.47,1.75,0,.6,0,1.2,0,1.79.09,1.62-.32,2.13-2.06,1.45-2.62-1-4.47.58-5.72,2.58a6.65,6.65,0,0,0,.14,7.6c1.32,1.93,3.21,3,5.68,2.22.73-.22,1.33-.8,2.23-.33,2.11,1.09,2.38-.37,2.42-1.91C418.1,116.08,418.06,113.89,418.06,111.71Zm12.37,3.76h0c0-.89,0-1.79,0-2.69a4.28,4.28,0,0,0-2.61-4.61,5.81,5.81,0,0,0-5.94.78c-.63.47-1.48,1-.94,1.93.73,1.2,1.53.33,2.2-.23a3.21,3.21,0,0,1,2.17-.84c1.19,0,2.3.38,2.4,1.73.11,1.57-1.22,1.19-2.15,1.28a15.13,15.13,0,0,0-1.78.19c-2.81.61-4.2,2.49-3.62,4.87.5,2.08,3.16,3.32,5.6,2.58.82-.24,1.51-1,2.5-.38,1.95,1.18,2.2-.07,2.2-1.61Zm-36.09-1.16-.21,4.47c0,.87.13,1.67,1.15,1.77s1.59-.62,1.61-1.67c0-1.89.07-3.79,0-5.68a2.78,2.78,0,0,1,2.81-3.18c2-.13,2.4,1.41,2.43,3,0,2,0,4,0,6,0,.74.23,1.45,1.1,1.52,1.06.08,1.35-.69,1.37-1.55,0-1.3,0-2.59,0-3.89-.06-7-.19-7.11-7.13-6.53a.61.61,0,0,1-.3,0c-3.19-1.42-2.92.77-2.88,2.75C394.36,112.31,394.35,113.31,394.34,114.31Z" transform="translate(3.99 0.27)"/><path class="cls-6" d="M470.65,127c-1.56-1-.91-2.52-.91-3.81q-.06-39.87,0-79.73a32.75,32.75,0,0,0-.43-6.24c-.63-3.21.63-4.22,3.87-4,3.86.3,7.75.34,11.62.56A326.2,326.2,0,0,1,519.63,38a340.15,340.15,0,0,1,44.86,11c11.94,3.71,22.44,10.29,33.06,16.6a151.83,151.83,0,0,1,34.7,28.1,126,126,0,0,1,16.39,22.72c9,15.82,13.54,33.12,17,50.74,2.31,11.87,3.95,23.89,5.48,35.89,1.17,9.16,1.56,18.41,2.6,27.59.41,3.68.4,7.35.55,11,.08,2-.58,2.16-2.26,1.35a381.54,381.54,0,0,0-52.86-20.64,517.19,517.19,0,0,0-64.53-15.9c-13-2.3-26.09-4.05-39.17-5.66-9.35-1.15-18.79-1.8-28.25-2.1-5.17-.16-10.35-.45-15.52-.5-.95,0-1.82-.07-1.91-1.34-.53-7.24-1.31-14.49.17-21.71,8.16,4.11,15.82,3.06,23-2.29,1.66-1.24,2.52-1.11,2.37,1.12s.83,2.73,2.86,2.65c3.38-.14,6.78,0,10.17,0,4.07,0,4.09,0,4.1-4,0-5.53.73-5-4.9-4.91-2.57.06-3.19-.85-3.15-3.27.13-8,.06-16,0-23.95,0-8.93-4.43-14.33-13.17-16.33C484,122.52,477.2,123.78,470.65,127Zm44.67,40.67h-.14c0,.8,0,1.6,0,2.4.31,8.16-.88,6.28,6.76,6.54.85,0,2.13.37,2.4-.66.63-2.5,1.89-1.27,3.06-.7a23.2,23.2,0,0,0,17.76,1.39c7.17-2.22,11.37-8,11.23-15.19-.14-7.44-3.72-11.61-11.78-13.7-1.45-.38-2.91-.7-4.37-1.05-3.59-.85-7.26-1.46-10.77-2.6-4.8-1.55-5.93-6.87-2.3-9.85,5.15-4.24,15.45-1.74,17.48,4.56.93,2.88,2.38,3.5,4.92,3.21a12.83,12.83,0,0,1,2.4,0c1.62.17,2.08-.61,2-2.11-.06-3.69.05-7.39,0-11.08,0-1.18.77-2.68-.81-3.49-1-.52-7.55,0-7.75.65-.51,1.77-1.3,1.22-2.38.61-5.83-3.26-11.89-3.1-17.92-.8a14.1,14.1,0,0,0-8.44,7.63c-3.5,8.19-.07,16.26,8.28,19.51,5.34,2.07,11,2.8,16.49,4.38,2.81.81,4.93,2.27,5,5.54,0,2.64-2,5.17-5,6.05-7,2.1-16.31-1.12-17.28-8.39a1.61,1.61,0,0,0-2-1.61c-2.21.26-4.58-.74-6.6.76-.32.24-.2,1.13-.21,1.72C515.31,163.47,515.32,165.57,515.32,167.67Zm-32.27-50.52c1.48-.21,3.28.62,4.62-1.42,3.38-5.16,7-10.17,10.52-15.23.33-.48.93-.93.58-1.55s-1.07-.39-1.65-.39c-2.59,0-5.18.1-7.76-.08-1.94-.13-2.9.68-3.58,2.37-1.69,4.26-3.45,8.49-5.25,12.7C479,117.1,479,117.08,483.05,117.15Z" transform="translate(3.99 0.27)"/><path class="cls-6" d="M670.81,308.14c-7.93.11-15.25-2.21-22.6-4.93-20.85-7.73-40.42-18.41-61.11-26.51a455.8,455.8,0,0,0-52.55-16.86A337.19,337.19,0,0,0,498.29,253a238.3,238.3,0,0,0-48-1.76,348.19,348.19,0,0,0-68.48,10.62,406.57,406.57,0,0,0-60.91,21.11c-13,5.75-25.77,11.91-38.71,17.76-5.86,2.65-11.71,5.6-18,7-6.05,1.36-12.33.91-18.58.57-6-.33-9.58-3.57-11.57-8.31a29.1,29.1,0,0,1-2.22-12.83,102.12,102.12,0,0,1,3.43-22.34,6.44,6.44,0,0,1,3.44-4.45,444.86,444.86,0,0,1,59.46-25.95q24.53-8.52,49.77-14.74c12.17-3,24.45-5.4,36.78-7.39,10.67-1.72,21.4-3.19,32.22-3.92,10.62-.71,21.25-1.27,31.87-1.87a233,233,0,0,1,23.63-.3c13.49.61,27,1.17,40.45,2.71a617.23,617.23,0,0,1,68.67,11.67,443.17,443.17,0,0,1,54,16.2c12.63,4.67,25.06,9.81,37.18,15.69,5.91,2.86,11.66,6.08,17.55,9,2.48,1.23,3.14,3.19,3.45,5.73,1,8.14,1.68,16.3-.44,24.32-2.16,8.2-6.69,14.47-15.63,16.22A50.2,50.2,0,0,1,670.81,308.14Z" transform="translate(3.99 0.27)"/><path class="cls-6" d="M328.46,65.21c-2.62,1.89-5,3.58-7.37,5.32-19.82,14.63-36,32.33-46.39,54.93a182.5,182.5,0,0,0-8.79,24.44c-4.15,13.93-6.61,28.23-8.82,42.54-2.29,14.89-4.81,29.77-6.26,44.79-.24,2.46-1.18,4.83-1.19,7.35,0,1.07-.87,1.48-1.68,1.9-9.49,5-19,9.93-28.45,15.09-2.38,1.31-2.23.17-2.22-1.46,0-4.9,1.06-9.69,2-14.45,3-15.81,6.43-31.54,10.6-47.09a447.6,447.6,0,0,1,17.34-53,149.72,149.72,0,0,1,22.62-38.86A133.2,133.2,0,0,1,300.9,79.39a212.44,212.44,0,0,1,25.31-14.13A1.84,1.84,0,0,1,328.46,65.21Z" transform="translate(3.99 0.27)"/><path class="cls-6" d="M606.67,65.2A168.27,168.27,0,0,1,627.4,76,161.16,161.16,0,0,1,657,98.57c9.35,9.18,15.56,20.39,20.79,32.19,9.57,21.56,15.68,44.25,21.28,67.06,3.12,12.72,5.45,25.64,7.47,38.59,1.23,7.84,2.05,15.74,3,23.62.12,1,.58,2.52-.33,3.11s-1.89-.71-2.76-1.26c-7.09-4.44-14-9.23-21.67-12.61-4.14-1.83-5.64-4.51-5.72-8.59-.24-12-1.7-24-3.12-35.92-2.82-23.48-6.13-46.91-14-69.37A124.48,124.48,0,0,0,638.06,94C629.07,83.68,618.73,75,607.78,67A1.79,1.79,0,0,1,606.67,65.2Z" transform="translate(3.99 0.27)"/><path class="cls-1" d="M470.65,127c6.55-3.22,13.37-4.48,20.59-2.83,8.74,2,13.13,7.4,13.17,16.33,0,8,.1,16,0,23.95,0,2.42.58,3.33,3.15,3.27,5.63-.14,4.91-.62,4.9,4.91,0,4,0,4-4.1,4-3.39,0-6.79-.11-10.17,0-2,.08-3-.51-2.86-2.65s-.71-2.36-2.37-1.12c-7.2,5.35-14.86,6.4-23,2.29-1.42-1.69-3.61-2.59-4.73-4.6-3.7-6.18-3.23-12.38-.09-18.6,1.94-.95,3-2.84,4.64-4.16,7.87-3.86,15.72-4.71,23.56.1,1.31.81,1.51,0,1.47-1.09-.06-2.29,0-4.6-.16-6.88a8,8,0,0,0-3.11-6.21c-4.57-3.38-14.46-2.27-17.81,2.31a3.41,3.41,0,0,1-3.93,1.6,15.79,15.79,0,0,0-4.95-1c-2.14-1.63.44-2.83.4-4.27Zm24.07,33.91c0-1.82.21-3.45-1.31-4.6-4.34-3.3-9.18-4.81-14.57-3.56a8.73,8.73,0,0,0-6.67,9.12c.29,4.22,3.17,7.13,7.77,7.68A16.79,16.79,0,0,0,492,166.23C494,164.85,495.2,163.2,494.72,160.91Z" transform="translate(3.99 0.27)"/><path class="cls-6" d="M447.8,25.72C451,21,455.75,19,461,17.85a37.06,37.06,0,0,1,16.23.55,19.8,19.8,0,0,1,10.14,6c.31.33.7.87.63,1.23-.16.76-1,.65-1.49.54-6.7-1.36-13.52-.65-20.23-.75C460.19,25.27,454,24.92,447.8,25.72Z" transform="translate(3.99 0.27)"/><path class="cls-2" d="M682,938c1.7-2.54,4.24-4.22,6.38-6.31A13.22,13.22,0,0,1,682,938Z" transform="translate(3.99 0.27)"/><path class="cls-2" d="M690.48,929.6a1.4,1.4,0,0,1,1.46-1C691.81,929.41,691.27,929.67,690.48,929.6Z" transform="translate(3.99 0.27)"/><path class="cls-2" d="M679.05,940.4l.86-.48C679.85,940.47,679.47,940.47,679.05,940.4Z" transform="translate(3.99 0.27)"/><path class="cls-2" d="M689.26,930.73a.33.33,0,0,1,.32-.32C689.59,930.64,689.48,930.75,689.26,930.73Z" transform="translate(3.99 0.27)"/><path class="cls-2" d="M688.66,931.34A.33.33,0,0,1,689,931C689,931.24,688.88,931.35,688.66,931.34Z" transform="translate(3.99 0.27)"/><path class="cls-2" d="M681.46,938.53a.33.33,0,0,1,.33-.32C681.8,938.44,681.69,938.54,681.46,938.53Z" transform="translate(3.99 0.27)"/><path class="cls-2" d="M680.87,939.09a.3.3,0,0,1,.32-.29l-.07.25Z" transform="translate(3.99 0.27)"/><path class="cls-2" d="M689.87,930.14a.33.33,0,0,1,.35-.32C690.21,930.05,690.09,930.16,689.87,930.14Z" transform="translate(3.99 0.27)"/><path class="cls-2" d="M692.26,928.3a.32.32,0,0,1,.33-.3l-.07.26Z" transform="translate(3.99 0.27)"/><path class="cls-2" d="M680.26,939.63a.23.23,0,0,1,.25-.23l0,.22Z" transform="translate(3.99 0.27)"/><path class="cls-1" d="M567.67,351A12.66,12.66,0,0,1,580,338.16c6.66,0,12.31,5.89,12.3,12.88a12.79,12.79,0,0,1-12.58,13C572.93,364,567.69,358.34,567.67,351Z" transform="translate(3.99 0.27)"/><path class="cls-1" d="M303.36,338c6.7,0,12.29,5.81,12.28,12.86,0,7.24-6,13.4-13,13.36-6.48,0-11.79-5.85-11.8-13C290.83,343.82,296.27,338.06,303.36,338Z" transform="translate(3.99 0.27)"/><path class="cls-1" d="M442.52,156.55c0-5.39.05-10.79,0-16.18-.08-6.39-3.61-9.05-9.83-7.4-3.78,1-6.64,3.58-9.61,5.93a2.78,2.78,0,0,0-.77,2.47c0,7.89.09,15.78,0,23.67,0,1.85.4,2.59,2.51,2.59,6.15,0,6.06.13,6,6.35,0,2.1-.61,2.74-2.73,2.65-4.29-.16-8.6-.15-12.88,0-2.34.1-2.86-.77-2.84-2.94q.14-15.57,0-31.16c0-3.46.32-7.31-3.42-9.28s-7.31-.11-10.72,1.7c-4.44,2.36-6.62,5.47-6.05,10.94.64,6.22.23,12.57.11,18.86,0,2.19.58,3,2.86,2.94,5.51,0,5.37.08,5.57,5.57.1,2.59-.52,3.44-3.26,3.35-6.79-.22-13.58-.16-20.37,0-2.29,0-3.14-.73-2.83-2.93,0-.09,0-.2,0-.3-.07-5.57-.07-5.66,5.55-5.69,2,0,2.57-.71,2.56-2.62-.05-9.69-.06-19.38,0-29.06,0-2-.84-2.27-2.52-2.29-5.78-.08-5.69-.13-5.66-6.08,0-2.19.6-3,2.91-2.89,4.08.18,8.19.19,12.28,0,2.47-.14,3.24.73,3,3.06-.09.82-.52,2,.34,2.5,1.15.63,1.65-.77,2.41-1.29,4.89-3.36,10-5.89,16.2-4.79,3.71.66,6.87,2.36,8.64,5.8,1.18,2.31,2,1.91,3.63.37,4.77-4.56,10.46-6.94,17.16-6.19s11.22,5.07,11.51,12c.38,9.18.34,18.38.19,27.56-.05,3.08.88,4.23,3.88,3.74.58-.09,1.21.06,1.79,0,2.39-.31,3.09.71,3,3.07-.12,5.94,0,6-6,6-3.4,0-6.8-.08-10.19,0-1.86.07-2.45-.65-2.44-2.43.06-5.89,0-11.79,0-17.68Z" transform="translate(3.99 0.27)"/><path class="cls-2" d="M391.69,114.41c0,1.1.08,2.21,0,3.3-.14,1.52.75,4.4-2.6,2.11-.7-.48-1.24.38-1.87.61-3.15,1.16-5.87-.61-6.06-4-.08-1.49,0-3-.06-4.49-.06-.9.14-2.26-1.47-2-1.1.22-2.48.21-2.4,2,.09,2.19,0,4.39,0,6.59,0,.89.08,2-1.22,2s-1.3-1-1.3-2c0-1.79,0-3.59,0-5.39a8.23,8.23,0,0,0,0-1.49,12.17,12.17,0,0,1,.28-6,3.51,3.51,0,0,1,2.5-2.37c.94-.24,2.18-.56,2.57.71s-.81,1.07-1.53,1.25c-.92.24-1.52,1-1.16,1.76a3.09,3.09,0,0,0,3.43,1.52c3.37-1.37,2.66,1,2.77,2.66.1,1.39.06,2.8.05,4.19,0,1.61.15,3.24,2.2,3.21a3,3,0,0,0,3.13-3c.14-1.79.07-3.6.09-5.39,0-1-.07-2.21,1.4-2.12,1.23.07,1.15,1.17,1.15,2.07,0,1.4,0,2.79,0,4.19Z" transform="translate(3.99 0.27)"/><path class="cls-2" d="M418.06,111.71c0,2.18,0,4.37,0,6.56,0,1.54-.31,3-2.42,1.91-.9-.47-1.5.11-2.23.33-2.47.75-4.36-.29-5.68-2.22a6.65,6.65,0,0,1-.14-7.6c1.25-2,3.1-3.61,5.72-2.58,1.74.68,2.15.17,2.06-1.45,0-.59,0-1.19,0-1.79,0-1,.23-1.83,1.47-1.75,1.06.07,1.18.88,1.19,1.73v6.86Zm-2.63,2.93c0-3.22-1.14-4.93-3.29-4.72-2.43.24-2.9,2.08-2.93,4.09,0,2.22.41,4.47,3.06,4.59C414.74,118.71,415.57,116.82,415.43,114.64Z" transform="translate(3.99 0.27)"/><path class="cls-2" d="M430.43,115.47v3c0,1.54-.25,2.79-2.2,1.61-1-.6-1.68.14-2.5.38-2.44.74-5.1-.5-5.6-2.58-.58-2.38.81-4.26,3.62-4.87a15.13,15.13,0,0,1,1.78-.19c.93-.09,2.26.29,2.15-1.28-.1-1.35-1.21-1.71-2.4-1.73a3.21,3.21,0,0,0-2.17.84c-.67.56-1.47,1.43-2.2.23-.54-.89.31-1.46.94-1.93a5.81,5.81,0,0,1,5.94-.78,4.28,4.28,0,0,1,2.61,4.61c0,.9,0,1.8,0,2.69Zm-2.6.33c-.29-1.47-1.57-1-2.56-1-1.5,0-2.94.27-2.78,2.23a1.9,1.9,0,0,0,2.32,1.78A3.16,3.16,0,0,0,427.83,115.8Z" transform="translate(3.99 0.27)"/><path class="cls-2" d="M394.35,114.31c0-1,0-2,0-3,0-2-.31-4.17,2.88-2.75a.61.61,0,0,0,.3,0c6.94-.58,7.07-.46,7.13,6.53,0,1.3,0,2.59,0,3.89,0,.86-.31,1.63-1.37,1.55-.87-.07-1.09-.78-1.1-1.52,0-2,0-4,0-6,0-1.62-.42-3.16-2.43-3a2.78,2.78,0,0,0-2.81,3.18c0,1.89,0,3.79,0,5.68,0,1.05-.47,1.77-1.61,1.67s-1.19-.9-1.15-1.77C394.2,117.29,394.27,115.8,394.35,114.31Z" transform="translate(3.99 0.27)"/><path class="cls-3" d="M464.8,136.66a15.79,15.79,0,0,1,4.95,1c-.87,3.39.4,6.78,0,10.17-1.61,1.32-2.7,3.21-4.64,4.16Q464.94,144.32,464.8,136.66Z" transform="translate(3.99 0.27)"/><path class="cls-1" d="M515.32,167.67c0-2.1,0-4.2,0-6.29,0-.59-.11-1.48.21-1.72,2-1.5,4.39-.5,6.6-.76a1.61,1.61,0,0,1,2,1.61c1,7.27,10.3,10.49,17.28,8.39,2.95-.88,5-3.41,5-6.05,0-3.27-2.17-4.73-5-5.54C536,155.73,530.3,155,525,152.93c-8.35-3.25-11.78-11.32-8.28-19.51a14.1,14.1,0,0,1,8.44-7.63c6-2.3,12.09-2.46,17.92.8,1.08.61,1.87,1.16,2.38-.61.2-.69,6.75-1.17,7.75-.65,1.58.81.77,2.31.81,3.49.1,3.69,0,7.39,0,11.08,0,1.5-.43,2.28-2,2.11a12.83,12.83,0,0,0-2.4,0c-2.54.29-4-.33-4.92-3.21-2-6.3-12.33-8.8-17.48-4.56-3.63,3-2.5,8.3,2.3,9.85,3.51,1.14,7.18,1.75,10.77,2.6,1.46.35,2.92.67,4.37,1.05,8.06,2.09,11.64,6.26,11.78,13.7.14,7.23-4.06,13-11.23,15.19a23.2,23.2,0,0,1-17.76-1.39c-1.17-.57-2.43-1.8-3.06.7-.27,1-1.55.68-2.4.66-7.64-.26-6.45,1.62-6.76-6.54,0-.8,0-1.6,0-2.4Z" transform="translate(3.99 0.27)"/><path class="cls-1" d="M483.05,117.15c-4.08-.07-4-.05-2.52-3.6,1.8-4.21,3.56-8.44,5.25-12.7.68-1.69,1.64-2.5,3.58-2.37,2.58.18,5.17.06,7.76.08.58,0,1.32-.2,1.65.39s-.25,1.07-.58,1.55c-3.53,5.06-7.14,10.07-10.52,15.23C486.33,117.77,484.53,116.94,483.05,117.15Z" transform="translate(3.99 0.27)"/><path class="cls-6" d="M494.72,160.91c.48,2.29-.75,3.94-2.69,5.32a16.79,16.79,0,0,1-12.09,3.32c-4.6-.55-7.48-3.46-7.77-7.68a8.73,8.73,0,0,1,6.67-9.12c5.39-1.25,10.23.26,14.57,3.56C494.93,157.46,494.74,159.09,494.72,160.91Z" transform="translate(3.99 0.27)"/><path class="cls-6" d="M469.73,147.82c.42-3.39-.85-6.78,0-10.17a3.41,3.41,0,0,0,3.93-1.6c3.35-4.58,13.24-5.69,17.81-2.31A8,8,0,0,1,494.6,140c.19,2.28.1,4.59.16,6.88,0,1.12-.16,1.9-1.47,1.09C485.45,143.11,477.6,144,469.73,147.82Z" transform="translate(3.99 0.27)"/><path class="cls-6" d="M415.43,114.64c.14,2.18-.69,4.07-3.16,4-2.65-.12-3.1-2.37-3.06-4.59,0-2,.5-3.85,2.93-4.09C414.29,109.71,415.45,111.42,415.43,114.64Z" transform="translate(3.99 0.27)"/><path class="cls-6" d="M427.83,115.8a3.16,3.16,0,0,1-3,3,1.9,1.9,0,0,1-2.32-1.78c-.16-2,1.28-2.23,2.78-2.23C426.26,114.79,427.54,114.33,427.83,115.8Z" transform="translate(3.99 0.27)"/></svg>