<?xml version="1.0" encoding="utf-8"?>
<!-- Generator: Adobe Illustrator 25.0.0, SVG Export Plug-In . SVG Version: 6.00 Build 0)  -->
<svg version="1.1" id="Capa_1" xmlns="http://www.w3.org/2000/svg" xmlns:xlink="http://www.w3.org/1999/xlink" x="0px" y="0px"
	 viewBox="0 0 1443.62 1151.8" style="enable-background:new 0 0 1443.62 1151.8;" xml:space="preserve">
<style type="text/css">
	.st0{fill:#FFFFFF;}
	.st1{fill:#F1EEEF;}
	.st2{fill:#C60605;}
	.st3{fill:#090607;}
	.st4{fill:#080607;}
	.st5{fill:#F11817;}
	.st6{fill:#F01817;}
	.st7{fill:#ED1817;}
	.st8{fill:#E9E6E7;}
	.st9{fill:#FEF1F1;}
	.st10{fill:#FEF5F4;}
	.st11{fill:#FEF3F3;}
	.st12{fill:#F33A3A;}
	.st13{fill:#FDE2E2;}
</style>
<g>
	<g>
		<path class="st0" d="M176.78,38.24c356.22,0,712.44,0,1068.77,0c0,356.08,0,712.22,0,1068.52c-356.18,0-712.48,0-1068.77,0
			C176.78,750.7,176.78,394.49,176.78,38.24z M428.7,406.76c-0.35,0.74-0.51,1.69-1.07,2.2c-2.23,2.04-2.78,4.84-3.68,7.5
			c-2.24,6.61-4.44,13.23-6.73,19.82c-3.33,9.57-6.91,19.06-10.05,28.7c-2.78,8.53-5.16,17.18-7.62,25.81
			c-1.96,6.86-3.86,13.75-5.62,20.66c-2.67,10.45-5.22,20.92-7.77,31.39c-1.41,5.8-2.8,11.61-4.07,17.45
			c-2.12,9.72-4.13,19.46-6.19,29.19c-0.31,1.46-0.65,2.91-0.97,4.37c-1.2,5.51-2.41,11.01-3.58,16.52
			c-0.86,4.05-2.26,8.03-2.35,12.19c-0.07,3.37-0.28,6.64-1.6,9.78c-0.31,0.75-0.32,1.62-0.48,2.43c-0.6,3.09-1.18,6.18-1.8,9.26
			c-1.27,6.34-2.23,12.74-3.97,18.98c-0.13,0.48-0.16,0.99-0.2,1.48c-0.49,5.95-1.9,11.76-2.85,17.64
			c-1.05,6.54-2.28,13.06-3.08,19.63c-0.26,2.16-1.28,4.17-1.09,6.37c0.3,3.55-0.85,6.92-1.33,10.36
			c-0.59,4.26-1.76,8.43-1.71,12.79c0.01,0.82-0.14,1.66-0.28,2.47c-0.78,4.57-1.75,9.12-1.71,13.79c0.01,1,0.1,2.09-0.25,2.97
			c-0.84,2.1-0.69,4.25-0.76,6.41c-0.03,0.99-0.02,2.05-0.36,2.95c-0.68,1.78-0.58,3.6-0.64,5.43c-0.04,1.16,0.06,2.41-0.32,3.46
			c-0.72,1.96-0.63,3.93-0.66,5.93c-0.02,1.33,0.05,2.68-0.07,4c-0.24,2.6-0.72,5.18-0.87,7.78c-0.16,2.66-0.04,5.34-0.06,8.01
			c-0.01,1.17,0.21,2.43-0.15,3.48c-1.17,3.42-0.8,6.93-0.84,10.41c-0.05,5.17-0.01,10.35-0.01,15.52c0,1.17,0.23,2.41-0.08,3.49
			c-1.55,5.42-0.68,10.94-0.9,16.41c-0.04,1.16-0.2,2.43,0.18,3.48c1.05,2.93,0.77,5.93,0.79,8.92c0.04,5.51,0,11.02,0.02,16.53
			c0.01,1.33-0.17,2.77,0.26,3.97c0.83,2.29,0.68,4.6,0.72,6.92c0.05,2.5-0.36,5.11,0.22,7.48c0.72,2.98,0.73,5.93,0.79,8.92
			c0.02,0.83-0.11,1.75,0.19,2.48c1.04,2.58,0.77,5.25,0.8,7.91c0.02,2,0.31,3.94,0.65,5.92c0.58,3.42,0.99,6.9,1.25,10.36
			c0.32,4.32,1.04,8.53,1.86,12.77c1.04,5.37,1.88,10.77,3.17,16.1c1.56,6.46,3.3,12.84,5.51,19.11c1.89,5.34,4.19,10.51,6.27,15.76
			c4.02,10.16,9.78,19.27,15.86,28.24c0.46,0.68,1.08,1.27,1.69,1.84c4.48,4.22,8.55,8.82,13.45,12.66
			c5.23,4.11,10.98,6.81,17.3,8.47c2.39,0.63,4.91,1.18,7.35,1.1c2.95-0.1,5.92-0.72,8.79-1.48c7.54-2,14.05-6.09,19.9-11.03
			c5.08-4.29,9.66-9.2,13.55-14.63c4.27-5.95,8.01-12.26,11.45-18.72c6.04-11.33,11.13-23.09,15.53-35.15
			c1.25-3.43,2.45-6.88,3.44-10.39c2.33-8.31,5.23-16.45,7.07-24.9c1.24-5.67,2.78-11.27,4-16.95c1.47-6.8,2.72-13.65,4.15-20.46
			c0.38-1.79,0.75-3.55,1-5.37c0.45-3.28,1.33-6.49,2.06-9.73c0.11-0.48,0.46-0.93,1.06-0.7c0.26,0.1,0.58,0.43,0.6,0.68
			c0.31,4.16,2.37,7.99,2.27,12.22c1.24,2.45,0.79,5.22,1.47,7.81c1.05,4,1.65,8.12,2.44,12.18c1.35,6.99,2.66,13.99,4.08,20.97
			c0.46,2.27,1.34,4.47,1.77,6.74c2.03,10.79,4.92,21.36,8.3,31.79c5.08,15.68,10.96,31.03,19.41,45.29
			c5.11,8.62,11.36,16.36,17.94,23.86c0.66,0.75,1.37,1.47,2.14,2.1c3.22,2.61,6.41,5.27,9.73,7.75c4.28,3.18,8.69,6.18,13.7,8.12
			c6.08,2.35,12.48,3.31,18.9,4.1c1.31,0.16,2.65,0.05,3.95-0.38c0.93-0.31,1.96-0.6,2.92-0.54c3.27,0.22,6.21-0.86,9.21-1.9
			c6.51-2.25,12.26-5.75,17.6-10.08c1.97-1.6,3.17-3.92,5.26-5.26c3.33-2.12,5.56-5.31,7.76-8.32c7.69-10.5,13.88-21.92,18.99-33.87
			c3.98-9.3,7.49-18.81,10.33-28.55c2.37-8.13,4.49-16.3,6.47-24.54c1.94-8.07,3.32-16.23,4.89-24.36
			c1.41-7.32,2.71-14.66,3.91-22.01c0.27-1.63,1.06-3.16,0.89-4.88c-0.33-3.21,1.27-6.17,1.24-9.36c0-0.19,0.42-0.51,0.69-0.55
			c0.26-0.05,0.68,0.09,0.84,0.29c0.87,1.07,1.22,2.32,1.25,3.71c0.03,1.32,0.13,2.66,0.37,3.96c0.63,3.42,1.34,6.81,1.78,10.28
			c0.37,2.94,0.63,5.93,1.25,8.85c1.82,8.59,3.73,17.17,5.49,25.77c2.23,10.9,4.75,21.72,8.15,32.33
			c5.24,16.37,11.53,32.28,19.51,47.53c4.75,9.07,10.86,17.09,17.73,24.59c2.69,2.94,5.77,5.49,8.84,8.05
			c3.62,3.03,7.6,5.49,11.73,7.51c6.76,3.3,14.04,4.97,21.67,4.82c2.2-0.04,4.25-0.69,6.38-0.96c7.79-1,14.61-4.34,21.12-8.46
			c3.8-2.4,7.22-5.28,10.45-8.44c4.76-4.67,9.33-9.52,13.5-14.7c3.64-4.52,6.81-9.4,10.06-14.22c5.71-8.49,9.91-17.75,13.78-27.11
			c2.85-6.89,5.47-13.91,7.44-21.14c1.57-5.77,3.42-11.46,4.87-17.26c2.37-9.49,4.53-19.04,6.74-28.57
			c0.52-2.26,1.02-4.54,1.25-6.85c0.49-4.96,1.78-9.77,2.39-14.72c0.7-5.73,2.19-11.36,2.84-17.14c0.3-2.62,0.73-5.24,0.91-7.89
			c0.09-1.29,0.7-2.55,1.14-3.8c0.08-0.22,0.5-0.45,0.76-0.44c0.26,0,0.68,0.25,0.74,0.47c0.46,1.93,0.84,3.88,1.27,5.82
			c1.85,8.42,3.57,16.87,5.6,25.24c2.55,10.48,5.31,20.92,8.1,31.34c1.5,5.61,3.13,11.2,4.95,16.72c1.66,5.05,3.67,9.99,5.51,14.98
			c2.53,6.87,5.23,13.68,8.53,20.22c3.31,6.54,6.62,13.09,10.27,19.44c3.56,6.2,7.69,12.06,12.57,17.31
			c3.07,3.3,6.32,6.42,9.54,9.57c3.48,3.4,7.64,5.97,11.87,8.18c2.57,1.34,5.24,2.86,8.26,3.41c4.86,0.88,9.62,1.45,14.65,1.12
			c6.13-0.4,17.28-5.51,22.11-9.49c2.07-1.71,3.48-4.1,5.64-5.58c3.26-2.23,5.18-5.53,7.63-8.42c2.92-3.45,4.97-7.45,7.28-11.3
			c4.54-7.59,8.43-15.48,11.51-23.74c5.06-13.57,8.65-27.55,11.08-41.83c0.31-1.8,0.91-3.58,0.96-5.38
			c0.1-4.18,1.05-8.21,1.77-12.29c0.6-3.42,1.29-6.91,1.21-10.35c-0.11-4.87,1.62-9.54,1.17-14.39c1.52-4.21,0.74-8.59,0.93-12.89
			c0.08-1.82-0.29-3.7,0.41-5.46c0.64-1.61,0.68-3.27,0.57-4.93c-0.39-5.62,0.93-11.23,0.06-16.86c-0.15-0.96-0.08-2.07,0.28-2.96
			c0.78-1.94,0.67-3.93,0.68-5.92c0.01-5.01-0.13-10.02,0.04-15.02c0.17-4.95-2.26-9.82-0.41-14.82c0.1-0.26-0.06-0.66-0.18-0.96
			c-0.67-1.78-0.43-3.63-0.45-5.46c-0.03-3-0.19-6.02,0.04-9.01c0.22-2.98-1.6-5.83-0.39-8.82c-1.28-4.42-0.39-8.96-0.66-13.43
			c-0.07-1.16,0.12-2.43-0.26-3.47c-0.79-2.11-0.75-4.26-0.72-6.42c0.07-6.49-1.6-12.89-1.07-19.4c0.04-0.48-0.17-0.98-0.24-1.47
			c-0.57-3.93-1.38-7.84-1.63-11.79c-0.27-4.31-1.65-8.52-1.13-12.89c0.04-0.32-0.05-0.67-0.13-0.99
			c-1.62-6.28-1.56-12.81-2.81-19.15c-0.61-3.09-1.29-6.19-1.12-9.38c0.02-0.32-0.15-0.65-0.22-0.97c-0.71-3.24-1.2-6.52-1.86-9.76
			c-0.57-2.79-0.48-5.64-1.19-8.36c-1.67-6.43-2.35-13.04-3.58-19.55c-1.23-6.51-1.9-13.15-3.52-19.55
			c-2.28-9.02-3.18-18.28-5.42-27.3c-1.95-7.87-3.2-15.91-5.06-23.82c-2.13-9.04-3.98-18.14-6.07-27.18
			c-1.42-6.14-3.03-12.23-4.54-18.35c-0.59-2.41-1.08-4.86-1.71-7.26c-1.87-7.06-3.98-14.07-5.63-21.18
			c-1.54-6.63-3.33-13.19-5.09-19.75c-2.15-8.02-4.32-16.04-6.87-23.95c-2.5-7.74-4.42-15.67-6.95-23.4
			c-4.45-13.6-9.18-27.11-13.79-40.66c-0.7-2.05-1.2-4.19-2.15-6.12c-1.08-2.19-1.46-4.4-1.3-6.77c3.02-3.91,3.79-8.26,3.29-13.16
			c-1.5-14.94-3.1-29.86-5.15-44.73c-2.76-20.01-6.37-39.84-11.31-59.43c-4.98-19.75-11.15-39.1-19.69-57.65
			c-9.94-21.57-23.03-40.97-39.7-57.88c-14.38-14.59-30.71-26.62-48.58-36.61c-15.76-8.82-32.34-15.77-49.42-21.52
			c-25.38-8.54-51.32-14.35-78.15-15.74c-1.49-0.08-2.97-0.38-4.43-0.69c-1.75-0.38-2.92-1.56-3.69-3.12
			c-0.37-0.74-0.59-1.56-0.86-2.34c-1.24-3.6-3.53-6.39-6.58-8.59c-6.11-4.42-12.88-6.9-20.45-7.14
			c-6.95-0.22-13.55,1.38-19.98,3.86c-5.03,1.94-9.09,4.89-10.74,10.36c-0.19,0.63-0.58,1.2-0.91,1.78
			c-2.12,3.81-5.41,5.8-9.72,6.08c-1.49,0.1-3-0.02-4.5-0.01c-1.5,0.02-3.01-0.04-4.48,0.15c-14.38,1.87-28.66,4.35-42.73,7.91
			c-31.56,7.99-61.33,20.29-89.17,37.18c-32.12,19.49-56.31,45.98-71.61,80.58c-13.84,31.31-22.93,63.95-28.96,97.55
			c-2.68,14.94-4.71,29.98-6.65,45.03c-0.6,4.63-1.11,9.28-1.6,13.92c-0.37,3.51,0.36,6.73,3.3,8.96c1.71,1.3,2.06,2.89,1.87,4.82
			C430.15,391.16,429.43,398.96,428.7,406.76z"/>
		<path class="st1" d="M1001.48,393.81c-0.16,2.37,0.21,4.58,1.3,6.77c0.95,1.92,1.45,4.07,2.15,6.12
			c4.61,13.55,9.34,27.06,13.79,40.66c2.53,7.73,4.45,15.66,6.95,23.4c2.56,7.91,4.72,15.93,6.87,23.95
			c1.76,6.57,3.55,13.12,5.09,19.75c1.65,7.11,3.76,14.12,5.63,21.18c0.64,2.4,1.12,4.85,1.71,7.26c1.51,6.12,3.12,12.21,4.54,18.35
			c2.09,9.05,3.94,18.15,6.07,27.18c1.86,7.91,3.11,15.95,5.06,23.82c2.24,9.02,3.14,18.28,5.42,27.3
			c1.62,6.4,2.29,13.04,3.52,19.55c1.23,6.51,1.91,13.12,3.58,19.55c0.71,2.73,0.62,5.57,1.19,8.36c0.66,3.23,1.15,6.52,1.86,9.76
			c0.07,0.32,0.23,0.65,0.22,0.97c-0.16,3.19,0.52,6.29,1.12,9.38c1.24,6.34,1.19,12.87,2.81,19.15c0.08,0.32,0.17,0.67,0.13,0.99
			c-0.52,4.37,0.86,8.58,1.13,12.89c0.25,3.95,1.06,7.86,1.63,11.79c0.07,0.49,0.28,0.99,0.24,1.47c-0.53,6.52,1.14,12.91,1.07,19.4
			c-0.02,2.16-0.07,4.3,0.72,6.42c0.39,1.04,0.19,2.31,0.26,3.47c0.27,4.47-0.62,9.01,0.66,13.43c-1.21,2.99,0.61,5.84,0.39,8.82
			c-0.22,2.99-0.07,6.01-0.04,9.01c0.02,1.83-0.22,3.68,0.45,5.46c0.11,0.31,0.28,0.7,0.18,0.96c-1.86,4.99,0.58,9.86,0.41,14.82
			c-0.18,5-0.03,10.01-0.04,15.02c0,1.99,0.1,3.98-0.68,5.92c-0.36,0.89-0.43,2-0.28,2.96c0.86,5.63-0.46,11.24-0.06,16.86
			c0.12,1.66,0.07,3.32-0.57,4.93c-0.7,1.76-0.33,3.63-0.41,5.46c-0.19,4.31,0.59,8.68-0.93,12.89c0.45,4.86-1.28,9.52-1.17,14.39
			c0.08,3.44-0.61,6.93-1.21,10.35c-0.72,4.08-1.67,8.11-1.77,12.29c-0.04,1.8-0.65,3.58-0.96,5.38
			c-2.43,14.28-6.02,28.26-11.08,41.83c-3.08,8.27-6.97,16.15-11.51,23.74c-2.31,3.86-4.35,7.85-7.28,11.3
			c-2.45,2.89-4.37,6.19-7.63,8.42c-2.17,1.48-3.57,3.87-5.64,5.58c-4.83,3.98-15.98,9.09-22.11,9.49
			c-5.04,0.33-9.8-0.24-14.65-1.12c-3.02-0.55-5.69-2.07-8.26-3.41c-4.23-2.2-8.39-4.77-11.87-8.18c-3.22-3.15-6.47-6.27-9.54-9.57
			c-4.89-5.25-9.01-11.11-12.57-17.31c-3.65-6.35-6.96-12.9-10.27-19.44c-3.31-6.54-6-13.35-8.53-20.22
			c-1.84-4.99-3.85-9.93-5.51-14.98c-1.82-5.52-3.44-11.11-4.95-16.72c-2.79-10.42-5.55-20.86-8.1-31.34
			c-2.04-8.37-3.75-16.82-5.6-25.24c-0.43-1.94-0.81-3.89-1.27-5.82c-0.05-0.21-0.48-0.46-0.74-0.47c-0.26,0-0.68,0.22-0.76,0.44
			c-0.44,1.25-1.05,2.51-1.14,3.8c-0.18,2.66-0.62,5.27-0.91,7.89c-0.65,5.78-2.14,11.41-2.84,17.14c-0.61,4.95-1.9,9.76-2.39,14.72
			c-0.23,2.3-0.73,4.59-1.25,6.85c-2.2,9.53-4.37,19.08-6.74,28.57c-1.45,5.8-3.31,11.49-4.87,17.26
			c-1.96,7.23-4.59,14.26-7.44,21.14c-3.88,9.37-8.08,18.62-13.78,27.11c-3.24,4.83-6.42,9.71-10.06,14.22
			c-4.18,5.18-8.74,10.03-13.5,14.7c-3.23,3.16-6.64,6.04-10.45,8.44c-6.51,4.12-13.33,7.46-21.12,8.46
			c-2.13,0.27-4.18,0.92-6.38,0.96c-7.63,0.14-14.91-1.52-21.67-4.82c-4.13-2.02-8.1-4.48-11.73-7.51
			c-3.07-2.57-6.15-5.11-8.84-8.05c-6.86-7.5-12.97-15.52-17.73-24.59c-7.99-15.25-14.27-31.16-19.51-47.53
			c-3.4-10.61-5.91-21.43-8.15-32.33c-1.76-8.6-3.67-17.18-5.49-25.77c-0.62-2.92-0.88-5.91-1.25-8.85
			c-0.44-3.47-1.15-6.86-1.78-10.28c-0.24-1.3-0.34-2.64-0.37-3.96c-0.03-1.39-0.37-2.64-1.25-3.71c-0.17-0.2-0.58-0.34-0.84-0.29
			c-0.26,0.05-0.69,0.36-0.69,0.55c0.03,3.18-1.57,6.14-1.24,9.36c0.17,1.72-0.62,3.25-0.89,4.88c-1.2,7.36-2.5,14.69-3.91,22.01
			c-1.57,8.13-2.95,16.29-4.89,24.36c-1.98,8.23-4.1,16.41-6.47,24.54c-2.84,9.74-6.36,19.24-10.33,28.55
			c-5.11,11.95-11.3,23.38-18.99,33.87c-2.2,3-4.43,6.2-7.76,8.32c-2.1,1.34-3.29,3.66-5.26,5.26c-5.34,4.33-11.09,7.83-17.6,10.08
			c-3,1.04-5.95,2.12-9.21,1.9c-0.96-0.06-1.98,0.22-2.92,0.54c-1.31,0.44-2.64,0.54-3.95,0.38c-6.42-0.79-12.82-1.75-18.9-4.1
			c-5.02-1.94-9.43-4.94-13.7-8.12c-3.32-2.47-6.51-5.13-9.73-7.75c-0.77-0.63-1.49-1.35-2.14-2.1
			c-6.58-7.5-12.83-15.24-17.94-23.86c-8.45-14.26-14.33-29.6-19.41-45.29c-3.38-10.43-6.27-21-8.3-31.79
			c-0.43-2.28-1.31-4.47-1.77-6.74c-1.41-6.98-2.72-13.98-4.08-20.97c-0.79-4.07-1.4-8.18-2.44-12.18
			c-0.68-2.59-0.23-5.36-1.47-7.81c0.1-4.23-1.96-8.06-2.27-12.22c-0.02-0.25-0.34-0.58-0.6-0.68c-0.6-0.23-0.95,0.23-1.06,0.7
			c-0.74,3.23-1.61,6.45-2.06,9.73c-0.25,1.82-0.63,3.58-1,5.37c-1.43,6.81-2.68,13.66-4.15,20.46c-1.23,5.67-2.77,11.28-4,16.95
			c-1.84,8.45-4.74,16.6-7.07,24.9c-0.99,3.51-2.19,6.96-3.44,10.39c-4.4,12.06-9.49,23.82-15.53,35.15
			c-3.45,6.46-7.19,12.77-11.45,18.72c-3.89,5.43-8.48,10.34-13.55,14.63c-5.85,4.94-12.37,9.04-19.9,11.03
			c-2.87,0.76-5.84,1.37-8.79,1.48c-2.44,0.09-4.96-0.47-7.35-1.1c-6.32-1.66-12.07-4.36-17.3-8.47
			c-4.89-3.84-8.97-8.44-13.45-12.66c-0.61-0.57-1.23-1.16-1.69-1.84c-6.08-8.96-11.84-18.08-15.86-28.24
			c-2.08-5.25-4.38-10.42-6.27-15.76c-2.22-6.26-3.96-12.65-5.51-19.11c-1.29-5.33-2.13-10.73-3.17-16.1
			c-0.82-4.24-1.53-8.45-1.86-12.77c-0.26-3.45-0.67-6.94-1.25-10.36c-0.34-1.98-0.63-3.92-0.65-5.92c-0.03-2.66,0.23-5.33-0.8-7.91
			c-0.29-0.73-0.17-1.65-0.19-2.48c-0.06-2.99-0.07-5.93-0.79-8.92c-0.57-2.37-0.17-4.98-0.22-7.48c-0.04-2.32,0.11-4.63-0.72-6.92
			c-0.43-1.2-0.25-2.64-0.26-3.97c-0.02-5.51,0.01-11.02-0.02-16.53c-0.02-2.99,0.26-5.98-0.79-8.92c-0.38-1.05-0.22-2.32-0.18-3.48
			c0.21-5.47-0.66-11,0.9-16.41c0.31-1.08,0.08-2.32,0.08-3.49c0-5.17-0.04-10.35,0.01-15.52c0.03-3.48-0.33-6.99,0.84-10.41
			c0.36-1.06,0.14-2.32,0.15-3.48c0.02-2.67-0.09-5.35,0.06-8.01c0.16-2.6,0.63-5.18,0.87-7.78c0.12-1.32,0.05-2.67,0.07-4
			c0.03-1.99-0.05-3.97,0.66-5.93c0.39-1.05,0.29-2.3,0.32-3.46c0.06-1.83-0.04-3.65,0.64-5.43c0.34-0.9,0.33-1.96,0.36-2.95
			c0.07-2.16-0.08-4.31,0.76-6.41c0.35-0.88,0.26-1.97,0.25-2.97c-0.04-4.68,0.93-9.22,1.71-13.79c0.14-0.82,0.29-1.65,0.28-2.47
			c-0.05-4.35,1.12-8.53,1.71-12.79c0.48-3.44,1.63-6.81,1.33-10.36c-0.19-2.2,0.83-4.21,1.09-6.37c0.8-6.57,2.03-13.09,3.08-19.63
			c0.94-5.88,2.35-11.69,2.85-17.64c0.04-0.5,0.06-1.01,0.2-1.48c1.74-6.24,2.7-12.64,3.97-18.98c0.62-3.08,1.2-6.17,1.8-9.26
			c0.16-0.81,0.17-1.69,0.48-2.43c1.32-3.14,1.53-6.41,1.6-9.78c0.09-4.16,1.48-8.14,2.35-12.19c1.18-5.51,2.38-11.02,3.58-16.52
			c0.32-1.46,0.66-2.91,0.97-4.37c2.06-9.73,4.07-19.47,6.19-29.19c1.27-5.84,2.66-11.65,4.07-17.45
			c2.55-10.47,5.1-20.95,7.77-31.39c1.77-6.92,3.67-13.8,5.62-20.66c2.46-8.63,4.84-17.29,7.62-25.81
			c3.14-9.63,6.72-19.12,10.05-28.7c2.29-6.59,4.49-13.21,6.73-19.82c0.9-2.66,1.46-5.46,3.68-7.5c0.56-0.51,0.72-1.45,1.07-2.2
			c0.44,1.43-0.06,2.95,0.69,4.39c1.23,2.36,2.21,4.85,3.31,7.28c3.6,7.95,9.59,13.1,18.04,15.28c2.25,0.58,4.56,0.97,6.87,1.25
			c8.26,0.99,16.29-0.28,24.16-2.77c13.04-4.13,25.82-8.91,38.13-14.91c7.79-3.8,15.6-7.56,23.54-11.01
			c24.02-10.46,48.57-19.4,74.21-25.11c18.26-4.07,36.73-6.67,55.43-7.41c9.17-0.36,18.34-0.33,27.51,0.05
			c10.67,0.45,21.28,1.56,31.81,3.33c20.43,3.43,40.28,9.08,59.73,16.18c19.9,7.26,39.25,15.81,58.41,24.8
			c6.19,2.91,12.47,5.58,19.07,7.44c2.58,0.73,5.01,1.76,7.31,3.16c2.43,1.48,5.1,2.46,7.86,3.15c2.91,0.73,5.85,1.33,8.74,2.11
			c11.34,3.07,22.76,3.01,34.19,0.77c12.86-2.52,23.2-8.83,30.22-20.24c4.46-7.25,8.93-14.47,12.73-22.1
			c0.59-1.19,1.22-2.37,1.95-3.49c0.74-1.12,1.87-1.46,3.05-0.91c1.2,0.57,2.35,1.27,3.49,1.96c2.86,1.73,5.81,3.26,8.89,4.54
			C992.66,396.42,997.11,396.24,1001.48,393.81z M754.49,515.32c-0.02-5.47-0.77-10.22-2.27-14.26
			c-3.72-10.05-13.81-15.19-24.22-12.42c-3.81,1.01-7.04,2.98-9.95,5.54c-1.5,1.32-2.9,2.76-4.41,4.08
			c-4.37,3.84-9.45,5.44-15.25,4.86c-3.59-0.36-6.74-1.76-9.64-3.82c-2.04-1.44-3.99-3.03-6.09-4.38
			c-10.82-6.97-24.39-3.32-30.36,8.04c-1.99,3.79-2.63,7.77-2.9,12.01c-0.44,6.91,1.67,13.17,3.96,19.44
			c0.28,0.77,0.81,1.45,1.3,2.12c5.15,7.06,11.07,13.36,18.36,18.27c6.72,4.52,13.99,7.98,22.02,9.08
			c20.16,2.75,36.78-4.03,49.54-19.81C751.28,535.77,754.62,526.1,754.49,515.32z M563.83,479.66c0,1.17,0.01,2.33,0,3.5
			c-0.1,9.23,3.22,17.29,8.69,24.49c4.37,5.75,10.21,9.5,17.2,11.36c7.23,1.93,14.49,1.69,21.79,0.3c5.01-0.96,9.64-2.58,13.2-6.46
			c0.45-0.49,0.98-0.91,1.51-1.31c6.89-5.14,10.61-12.22,12.62-20.4c3.32-13.57,0.62-25.85-8.22-36.59
			c-8.06-9.79-18.65-14.31-31.31-13.49c-7.27,0.47-13.93,3.06-20.1,6.94c-6.16,3.86-10.39,9.23-13.08,15.94
			C564.07,469.02,563.67,474.3,563.83,479.66z M800.49,520.42c18.26,1.05,32.07-10.72,37.29-24.84c3.04-8.22,3.47-16.61,1.45-25.09
			c-5.17-21.65-28.58-34.7-49.41-27.49c-15.08,5.22-25.8,19.35-26.4,36.68c-0.5,14.28,5.6,25.81,16.88,34.55
			c3.62,2.8,7.79,4.53,12.24,5.41C795.14,520.14,797.84,520.17,800.49,520.42z"/>
		<path class="st2" d="M1001.48,393.81c-4.36,2.43-8.82,2.62-13.43,0.69c-3.09-1.29-6.04-2.81-8.89-4.54
			c-1.14-0.69-2.28-1.39-3.49-1.96c-1.18-0.56-2.32-0.22-3.05,0.91c-0.73,1.11-1.36,2.29-1.95,3.49c-3.8,7.62-8.27,14.85-12.73,22.1
			c-7.02,11.41-17.37,17.72-30.22,20.24c-11.43,2.24-22.85,2.3-34.19-0.77c-2.89-0.78-5.83-1.38-8.74-2.11
			c-2.76-0.69-5.43-1.67-7.86-3.15c-2.3-1.4-4.73-2.43-7.31-3.16c-6.6-1.85-12.87-4.53-19.07-7.44c-19.16-9-38.51-17.54-58.41-24.8
			c-19.45-7.1-39.29-12.75-59.73-16.18c-10.53-1.77-21.14-2.88-31.81-3.33c-9.17-0.39-18.34-0.41-27.51-0.05
			c-18.7,0.73-37.17,3.34-55.43,7.41c-25.63,5.71-50.18,14.65-74.21,25.11c-7.94,3.46-15.75,7.22-23.54,11.01
			c-12.31,6-25.09,10.78-38.13,14.91c-7.86,2.49-15.89,3.76-24.16,2.77c-2.31-0.28-4.62-0.67-6.87-1.25
			c-8.45-2.18-14.44-7.33-18.04-15.28c-1.1-2.43-2.08-4.92-3.31-7.28c-0.76-1.45-0.26-2.97-0.69-4.39c0.73-7.8,1.44-15.6,2.18-23.4
			c0.18-1.93-0.17-3.52-1.87-4.82c-2.94-2.24-3.66-5.46-3.3-8.96c0.49-4.65,1-9.29,1.6-13.92c1.94-15.05,3.96-30.09,6.65-45.03
			c6.04-33.59,15.12-66.24,28.96-97.55c15.29-34.6,39.49-61.09,71.61-80.58c27.84-16.89,57.61-29.19,89.17-37.18
			c14.07-3.56,28.35-6.04,42.73-7.91c1.48-0.19,2.99-0.14,4.48-0.15c1.5-0.02,3.01,0.1,4.5,0.01c4.31-0.28,7.59-2.27,9.72-6.08
			c0.32-0.58,0.72-1.15,0.91-1.78c1.65-5.47,5.71-8.42,10.74-10.36c6.43-2.48,13.03-4.08,19.98-3.86
			c7.57,0.24,14.34,2.73,20.45,7.14c3.05,2.21,5.34,5,6.58,8.59c0.27,0.79,0.5,1.6,0.86,2.34c0.77,1.56,1.94,2.74,3.69,3.12
			c1.46,0.31,2.94,0.61,4.43,0.69c26.83,1.39,52.77,7.2,78.15,15.74c17.09,5.75,33.66,12.71,49.42,21.52
			c17.86,9.99,34.19,22.02,48.58,36.61c16.67,16.91,29.76,36.31,39.7,57.88c8.54,18.55,14.71,37.9,19.69,57.65
			c4.94,19.58,8.55,39.42,11.31,59.43c2.05,14.87,3.65,29.79,5.15,44.73C1005.26,385.55,1004.5,389.9,1001.48,393.81z M944.33,350
			c-0.05,0-0.1,0-0.15,0c0-3.17,0.34-6.38-0.12-9.48c-0.32-2.15-0.61-4.26-0.66-6.42c-0.03-1.17,0.12-2.41-0.23-3.48
			c-1.22-3.68-0.93-7.56-1.59-11.32c-0.88-5.04-1.45-10.17-1.98-15.27c-0.78-7.44-2.23-14.76-3.43-22.11
			c-1.37-8.33-3.49-16.55-5.47-24.77c-1.17-4.84-2.8-9.57-4.06-14.39c-3.6-13.74-8.87-26.86-15-39.62
			c-2.16-4.49-4.84-8.73-7.39-13.02c-6.66-11.19-14.3-21.64-23.51-30.89c-1.29-1.29-2.69-2.49-3.58-4.15
			c-0.38-0.71-0.97-1.42-1.64-1.86c-5.34-3.49-9.17-8.66-14.17-12.58c-5.61-4.41-11.03-9.12-16.92-13.13
			c-9.89-6.75-19.75-13.56-30-19.78c-6.34-3.84-13.1-6.5-20.19-8.38c-4.48-1.19-9.05-2.06-13.6-2.96c-3.9-0.77-7.81-1.73-11.75-1.95
			c-4.48-0.26-8.85-1.68-13.38-1.19c-0.48,0.05-1.03-0.01-1.47-0.2c-2.07-0.89-4.25-0.7-6.41-0.72c-3-0.03-6.01,0.01-9.01-0.05
			c-1.32-0.03-2.71-0.01-3.95-0.39c-1.81-0.55-3.61-0.54-5.44-0.54c-3.34-0.01-6.68,0.18-10.01-0.05c-4.77-0.32-7.09,0.91-8.76,6.83
			c-0.14,0.48-0.15,0.99-0.25,1.48c-1.76,8.1-3.15,16.25-4.13,24.5c-0.39,3.28-0.68,6.59-1.16,9.88c-0.65,4.42-1.43,8.86-1.58,13.32
			c-0.16,4.83-1.63,9.54-1.18,14.4c0.03,0.32-0.04,0.68-0.17,0.98c-0.91,2.07-0.71,4.25-0.73,6.41c-0.02,3.17-0.17,6.35,0.01,9.51
			c0.36,6.23-1.19,12.21-2.13,18.27c-0.19,1.21-1.38,1.8-2.67,1.48c-1.29-0.32-2.08-1.18-2.1-2.45c-0.05-3.5-0.35-7.06,0.2-10.48
			c0.4-2.49,0.6-4.94,0.66-7.43c0.04-1.67-0.27-3.44,0.18-4.98c1.01-3.45,0.74-6.94,0.84-10.42c0.03-1-0.13-2.08,0.19-2.98
			c0.94-2.6,0.91-5.27,0.75-7.92c-0.3-5.03,0.96-9.92,1.29-14.89c0.41-6.26,1.72-12.46,2.73-18.67c0.82-5.07,1.76-10.12,2.67-15.17
			c0.41-2.28,0.98-4.55,1.28-6.84c0.27-2.06-0.42-3.08-2.32-3.94c-0.75-0.34-1.57-0.73-2.36-0.74c-5-0.04-10.05-0.4-14.99,0.19
			c-3.15,0.38-6.27,0.6-9.42,0.68c-2.5,0.06-5.11-0.34-7.48,0.24c-4.4,1.08-8.93,0.61-13.31,1.7c-3.2,0.79-6.58,0.81-9.81,1.52
			c-7.61,1.67-15.26,3.16-22.74,5.41c-8.3,2.5-16.48,5.2-24.3,8.99c-7.65,3.71-15.04,7.9-22.32,12.26
			c-6.28,3.75-12.44,7.71-18.54,11.75c-4.98,3.3-9.8,6.87-14.68,10.32c-6.94,4.9-13.23,10.61-19.5,16.28
			c-5.05,4.57-9.28,9.97-13.52,15.32c-8.84,11.16-16.05,23.28-21.33,36.52c-1.54,3.86-3.15,7.73-4.24,11.73
			c-2.84,10.41-5.69,20.82-7.85,31.41c-0.76,3.74-1.67,7.45-2.38,11.2c-0.92,4.88-1.72,9.79-2.56,14.69
			c-0.84,4.9-1.47,9.85-2.58,14.69c-0.76,3.28-0.53,6.64-1.29,9.86c-0.89,3.74-1.04,7.58-1.43,11.34
			c-0.54,5.27-1.74,10.52-1.26,15.89c0.07,0.79-0.28,1.63-0.47,2.43c-0.82,3.47-0.41,6.97-0.31,10.46c0.04,1.57,1.29,2.28,2.8,1.92
			c2.29-0.55,4.37-1.62,6.44-2.7c11.85-6.14,24.21-11.07,36.82-15.36c9.6-3.27,19.21-6.58,28.99-9.24
			c10.39-2.83,20.87-5.39,31.42-7.66c12.15-2.62,24.3-5.15,36.64-6.77c2.78-0.37,5.65-0.47,8.35-1.22c3.23-0.9,6.58-1.03,9.83-1.41
			c4.42-0.52,8.84-1.72,13.37-1.27c0.49,0.05,1.04,0.02,1.48-0.17c2.23-0.97,4.58-0.72,6.91-0.79c1-0.03,2.08,0.12,2.98-0.22
			c2.59-0.97,5.26-0.7,7.91-0.76c3-0.07,6.09,0.3,8.97-0.3c2.83-0.58,5.6-0.66,8.42-0.69c4-0.04,8.01-0.04,12.01-0.04
			c1.51,0,2.96-0.11,4.37-0.81c1.49-0.74,2.37-1.77,2.36-3.48c-0.01-2,0-4.01,0.02-6.01c0.01-1.17-0.04-2.35,0.14-3.5
			c0.34-2.13,1.45-3.16,3.2-3.2c2.01-0.05,3.15,1.01,3.51,3.42c0.15,0.98,0.1,2,0.11,3c0.01,1.84,0.08,3.68-0.01,5.51
			c-0.15,3.02,1.15,4.01,4,4.84c1.09,0.32,2.31,0.21,3.48,0.21c6.17,0.03,12.34,0.03,18.51,0.05c1.17,0,2.4-0.18,3.49,0.13
			c6.17,1.7,12.64,0.1,18.8,1.82c0.47,0.13,1-0.01,1.5,0.04c4.13,0.39,8.33,0.44,12.35,1.32c2.66,0.58,5.33,0.28,7.91,0.89
			c6.94,1.64,14.06,2.24,21.05,3.64c6.49,1.29,13.03,2.41,19.49,3.88c7.44,1.69,14.87,3.45,22.24,5.43
			c7.86,2.11,15.69,4.35,23.44,6.82c7.92,2.52,15.78,5.26,23.58,8.15c6.39,2.38,12.64,5.1,18.93,7.72c4.3,1.79,8.63,3.51,12.83,5.52
			c6.31,3.02,12.6,6.13,18.73,9.5c2.77,1.52,5.58,2.99,8.39,4.43c0.72,0.37,1.55,0.59,2.36,0.74c1.05,0.19,2.04-0.56,2.07-1.65
			C944.38,355.33,944.33,352.66,944.33,350z M695.25,304.65c-4.17,0-8.34-0.01-12.51,0.01c-1.16,0.01-2.42-0.17-3.47,0.2
			c-2.61,0.93-5.28,0.9-7.92,0.71c-7.69-0.54-15.24,1.33-22.9,1.11c-0.49-0.01-1.04,0.01-1.48,0.2c-2.07,0.89-4.25,0.69-6.41,0.77
			c-1.32,0.05-2.71,0.01-3.95,0.39c-1.64,0.5-3.27,0.57-4.93,0.61c-1.16,0.03-2.34,0.01-3.49,0.19c-5.72,0.89-11.43,1.9-17.16,2.74
			c-5.57,0.82-11.2,1.27-16.74,2.28c-8.15,1.48-16.29,3.08-24.34,5.05c-13.21,3.25-26.46,6.41-39.44,10.53
			c-10.15,3.22-20.33,6.35-30.21,10.34c-7.4,2.99-14.78,6.06-22.04,9.36c-8.64,3.94-16.98,8.51-25.02,13.56
			c-3.05,1.92-6.2,3.84-8.3,7.05c-3.19,4.86-5.14,10.03-4.99,15.92c0.07,2.5,0.14,5.02-0.03,7.51c-0.3,4.48,1.19,8.42,2.89,12.49
			c2.95,7.04,12.84,11.82,19.73,11.08c2.8-0.3,5.6-0.7,8.37-1.15c6.57-1.08,12.9-3.21,19.03-5.78c6.44-2.7,12.77-5.67,19.16-8.5
			c8.51-3.78,17.01-7.59,25.55-11.32c5.79-2.52,11.62-4.97,17.47-7.35c4.62-1.88,9.3-3.61,13.95-5.41
			c10.71-4.14,21.61-7.67,32.72-10.6c12.35-3.25,24.76-6.19,37.4-8.16c7.37-1.15,14.68-2.57,22.16-2.78
			c0.5-0.01,1.04,0.04,1.49-0.13c3.06-1.17,6.25-0.78,9.4-0.85c2-0.05,4.1,0.34,5.98-0.13c5.28-1.34,10.61-0.64,15.92-0.81
			c1.15-0.04,2.39-0.05,3.46,0.32c1.96,0.67,3.94,0.59,5.93,0.62c3,0.04,6.16-0.51,8.97,0.24c4.57,1.22,9.37-0.01,13.81,1.73
			c6.97,0.39,13.8,1.66,20.64,2.99c13.7,2.67,27.18,6.03,40.33,10.86c13.29,4.89,26.28,10.43,39.1,16.38
			c10.72,4.98,21.37,10.11,32.12,15.03c9.24,4.23,18.6,8.07,28.28,11.2c9.41,3.04,19.01,4.53,28.86,4.67c1.33,0.02,2.67-0.01,4,0.01
			c11.44,0.19,21.01-4.2,29.19-11.96c5.74-5.44,9.73-12.2,13.94-18.78c0.99-1.54,1.96-3.1,2.81-4.71c1.44-2.73,1.11-3.87-1.47-5.26
			c-8.78-4.76-17.44-9.73-26.22-14.47c-13.92-7.52-28.11-14.58-42.81-20.47c-13.11-5.25-26.37-10.14-39.94-14.13
			c-14.66-4.31-29.3-8.61-44.28-11.68c-10.87-2.23-21.73-4.46-32.76-5.86c-2.96-0.38-6-0.38-8.87-1.1
			c-4.39-1.1-8.89-1.09-13.31-1.56c-5.75-0.61-11.52-1.76-17.38-1.25c-0.64,0.06-1.35-0.1-1.95-0.34c-1.61-0.63-3.27-0.57-4.93-0.58
			c-4-0.02-8.01-0.01-12.01-0.05c-1.16-0.01-2.42,0.15-3.47-0.23c-2.44-0.88-4.93-0.7-7.42-0.72
			C702.26,304.63,698.76,304.65,695.25,304.65z M999.46,380.37c-0.06,0-0.12,0-0.17,0c0-2.17,0.42-4.44-0.08-6.48
			c-1.27-5.22-0.74-10.57-1.57-15.84c-0.59-3.73-1.08-7.55-1.45-11.35c-0.58-5.92-1.79-11.78-2.71-17.67
			c-0.77-4.91-1.42-9.85-2.31-14.74c-1.12-6.2-2.48-12.35-3.65-18.54c-2.5-13.23-5.96-26.22-9.87-39.1
			c-3.83-12.61-8.7-24.82-14.12-36.8c-5.64-12.48-12.88-24.08-20.71-35.28c-2.94-4.21-6.25-8.22-9.79-11.93
			c-3.77-3.95-7.25-8.19-11.48-11.73c-3.31-2.76-6.33-5.87-9.59-8.72c-5.54-4.84-11.56-8.97-17.56-13.12
			c-8.07-5.59-16.72-10.29-25.41-14.84c-6.19-3.24-12.57-6.13-18.95-9.01c-5.31-2.39-10.79-4.36-16.47-5.68
			c-0.63-0.15-1.32-0.12-1.98-0.06c-0.25,0.02-0.57,0.35-0.65,0.61c-0.08,0.26,0.01,0.68,0.19,0.88c0.33,0.36,0.77,0.62,1.18,0.92
			c6.96,5.12,13.95,10.21,20.87,15.37c8,5.97,15.86,12.09,22.87,19.24c2.22,2.26,4.45,4.52,6.73,6.72
			c4.92,4.75,9.26,9.99,13.44,15.39c8.88,11.49,16.63,23.64,22.78,36.83c3.53,7.56,6.44,15.35,9.28,23.16
			c3.7,10.17,6.42,20.63,8.99,31.13c1.46,5.96,2.83,11.95,3.95,17.98c1.23,6.68,2.26,13.4,3.09,20.14c0.25,2,0.96,3.89,1.05,5.87
			c0.28,6.14,1.75,12.13,2.27,18.26c0.51,5.93,1.86,11.79,1.83,17.8c0,0.66-0.04,1.39,0.2,1.98c1,2.41,0.73,4.93,0.76,7.42
			c0.04,3.84,0.03,7.68,0.03,11.52c0,3.14,1.23,5.43,4.24,6.69c1.69,0.71,3.31,1.58,4.94,2.43c7.68,3.99,15.23,8.19,22.14,13.47
			c2.9,2.22,5.93,4.29,9,6.27c4.19,2.7,8.48,0.36,8.7-4.69C999.52,383.37,999.46,381.87,999.46,380.37z M431.02,365.4
			c0,0.91-0.04,2.25,0.01,3.58c0.09,2.25,0.69,3.3,2.03,3.56c1.65,0.31,2.33-0.83,3.05-2.03c2.17-3.61,4.91-6.62,8.46-9.02
			c2.62-1.77,5.09-3.76,8-5.03c4.04-1.77,5.69-4.82,5.48-9.15c-0.15-3-0.04-6.01-0.02-9.01c0.01-1.17-0.18-2.43,0.2-3.48
			c0.87-2.44,0.72-4.93,0.8-7.42c0.03-1,0.08-2,0.25-2.98c0.54-3.27,1.22-6.51,1.67-9.79c0.78-5.75,1.17-11.56,2.24-17.25
			c0.52-2.79,0.63-5.6,1.18-8.37c0.59-2.92,1.11-5.86,1.62-8.8c0.86-4.89,1.61-9.81,2.57-14.68c1.03-5.21,2.39-10.35,3.35-15.56
			c1.57-8.52,3.91-16.83,6.51-25.06c1.75-5.54,3.93-10.96,6.13-16.35c1.7-4.16,3.57-8.26,5.63-12.25c1.75-3.39,3.93-6.56,5.83-9.88
			c5.9-10.32,13.46-19.36,21.55-27.99c2.61-2.79,5.53-5.26,8.48-7.72c3.19-2.67,6.34-5.34,9.71-7.79
			c5.37-3.91,10.64-7.96,15.93-11.97c0.38-0.29,0.73-0.7,0.95-1.12c0.11-0.21-0.07-0.6-0.18-0.88c-0.05-0.12-0.29-0.26-0.39-0.23
			c-0.78,0.24-1.62,0.41-2.32,0.8c-4.79,2.68-9.57,5.38-14.31,8.14c-10.25,5.96-19.53,13.24-28.25,21.21
			c-6.88,6.29-13.2,13.15-18.78,20.66c-6.06,8.16-11.76,16.54-16.28,25.68c-4.58,9.25-9.17,18.48-12.7,28.23
			c-2.55,7.05-5.08,14.11-7.2,21.28c-2.54,8.59-4.63,17.33-6.76,26.04c-1.89,7.73-3.7,15.49-5.32,23.29
			c-1.48,7.14-2.71,14.32-3.93,21.51c-0.83,4.9-1.49,9.83-2.19,14.75c-0.47,3.28-0.82,6.58-1.35,9.85
			C431.88,355.08,430.83,359.96,431.02,365.4z"/>
		<path class="st3" d="M754.49,515.32c0.14,10.77-3.21,20.45-9.92,28.75c-12.77,15.79-29.38,22.56-49.54,19.81
			c-8.03-1.1-15.3-4.56-22.02-9.08c-7.29-4.9-13.2-11.21-18.36-18.27c-0.49-0.67-1.02-1.36-1.3-2.12
			c-2.28-6.28-4.4-12.54-3.96-19.44c0.27-4.24,0.9-8.22,2.9-12.01c5.98-11.36,19.54-15,30.36-8.04c2.1,1.35,4.05,2.94,6.09,4.38
			c2.9,2.05,6.05,3.46,9.64,3.82c5.8,0.58,10.88-1.01,15.25-4.86c1.5-1.32,2.9-2.76,4.41-4.08c2.92-2.56,6.15-4.53,9.95-5.54
			c10.41-2.77,20.5,2.37,24.22,12.42C753.71,505.1,754.47,509.85,754.49,515.32z M703.05,558.97c3.03,0.15,5.98-0.5,8.92-1.03
			c6.48-1.17,12.38-3.8,17.63-7.78c1.44-1.1,2.79-2.4,3.9-3.82c1.81-2.33,1.68-4.54-0.14-6.83c-1.15-1.45-2.61-2.55-4.15-3.55
			c-5.68-3.69-12.15-4.53-18.64-4.54c-8.34-0.02-16,2.71-23.01,7.21c-2.41,1.55-4.45,3.51-6.07,5.85c-2.65,3.82-2.05,6.87,2.05,9.15
			C689.58,556.99,696.13,558.73,703.05,558.97z"/>
		<path class="st4" d="M563.83,479.66c-0.15-5.37,0.25-10.64,2.28-15.71c2.69-6.71,6.93-12.08,13.08-15.94
			c6.18-3.88,12.83-6.47,20.1-6.94c12.66-0.82,23.25,3.7,31.31,13.49c8.84,10.74,11.54,23.02,8.22,36.59
			c-2,8.18-5.73,15.26-12.62,20.4c-0.53,0.4-1.06,0.82-1.51,1.31c-3.56,3.88-8.19,5.5-13.2,6.46c-7.3,1.39-14.56,1.63-21.79-0.3
			c-6.99-1.86-12.83-5.61-17.2-11.36c-5.47-7.2-8.79-15.26-8.69-24.49C563.84,482,563.83,480.83,563.83,479.66z M624.65,471.43
			c-0.07-7.73-5.43-13.54-12.48-13.49c-6.82,0.05-12.01,5.54-12,12.71c0.01,7.33,5.38,13.09,12.27,13.15
			C619.53,483.86,624.71,478.6,624.65,471.43z"/>
		<path class="st4" d="M800.49,520.42c-2.65-0.25-5.35-0.28-7.95-0.79c-4.45-0.88-8.63-2.61-12.24-5.41
			c-11.28-8.73-17.38-20.27-16.88-34.55c0.6-17.33,11.32-31.46,26.4-36.68c20.83-7.21,44.24,5.84,49.41,27.49
			c2.02,8.48,1.6,16.87-1.45,25.09C832.56,509.7,818.75,521.46,800.49,520.42z M812.2,457.89c-6.73-0.04-12.18,5.52-12.26,12.53
			c-0.08,7.08,5.46,12.92,12.4,13.07c6.59,0.14,12.62-5.64,12.74-12.23C825.22,464.36,819.02,457.93,812.2,457.89z"/>
		<path class="st5" d="M944.33,350c0,2.67,0.05,5.34-0.02,8.01c-0.03,1.09-1.02,1.84-2.07,1.65c-0.81-0.15-1.63-0.37-2.36-0.74
			c-2.82-1.44-5.62-2.91-8.39-4.43c-6.13-3.37-12.42-6.47-18.73-9.5c-4.19-2.01-8.53-3.73-12.83-5.52
			c-6.29-2.62-12.55-5.35-18.93-7.72c-7.79-2.9-15.65-5.63-23.58-8.15c-7.75-2.47-15.58-4.71-23.44-6.82
			c-7.37-1.98-14.8-3.74-22.24-5.43c-6.46-1.46-13-2.58-19.49-3.88c-6.99-1.39-14.11-2-21.05-3.64c-2.57-0.61-5.25-0.31-7.91-0.89
			c-4.02-0.87-8.22-0.93-12.35-1.32c-0.5-0.05-1.03,0.09-1.5-0.04c-6.16-1.72-12.63-0.12-18.8-1.82c-1.09-0.3-2.32-0.12-3.49-0.13
			c-6.17-0.02-12.34-0.02-18.51-0.05c-1.16-0.01-2.39,0.11-3.48-0.21c-2.86-0.83-4.15-1.82-4-4.84c0.09-1.83,0.03-3.67,0.01-5.51
			c-0.01-1,0.04-2.02-0.11-3c-0.36-2.41-1.5-3.47-3.51-3.42c-1.75,0.04-2.86,1.08-3.2,3.2c-0.18,1.14-0.12,2.33-0.14,3.5
			c-0.02,2-0.03,4.01-0.02,6.01c0.01,1.71-0.87,2.74-2.36,3.48c-1.41,0.7-2.86,0.81-4.37,0.81c-4,0-8.01-0.01-12.01,0.04
			c-2.82,0.03-5.59,0.1-8.42,0.69c-2.89,0.6-5.97,0.23-8.97,0.3c-2.65,0.06-5.32-0.21-7.91,0.76c-0.89,0.33-1.98,0.19-2.98,0.22
			c-2.32,0.07-4.67-0.19-6.91,0.79c-0.44,0.19-0.99,0.22-1.48,0.17c-4.53-0.45-8.95,0.75-13.37,1.27c-3.25,0.38-6.6,0.51-9.83,1.41
			c-2.7,0.75-5.57,0.86-8.35,1.22c-12.34,1.62-24.49,4.14-36.64,6.77c-10.55,2.28-21.02,4.83-31.42,7.66
			c-9.78,2.66-19.39,5.97-28.99,9.24c-12.61,4.29-24.97,9.22-36.82,15.36c-2.07,1.07-4.15,2.14-6.44,2.7
			c-1.5,0.36-2.75-0.35-2.8-1.92c-0.1-3.49-0.5-7,0.31-10.46c0.19-0.81,0.55-1.64,0.47-2.43c-0.48-5.37,0.72-10.62,1.26-15.89
			c0.39-3.76,0.55-7.6,1.43-11.34c0.76-3.22,0.54-6.58,1.29-9.86c1.12-4.84,1.74-9.79,2.58-14.69c0.84-4.9,1.64-9.81,2.56-14.69
			c0.71-3.75,1.62-7.46,2.38-11.2c2.16-10.58,5.01-21,7.85-31.41c1.09-4,2.7-7.87,4.24-11.73c5.28-13.24,12.48-25.36,21.33-36.52
			c4.24-5.35,8.47-10.75,13.52-15.32c6.28-5.67,12.57-11.38,19.5-16.28c4.89-3.45,9.7-7.01,14.68-10.32
			c6.1-4.04,12.26-8,18.54-11.75c7.29-4.36,14.67-8.55,22.32-12.26c7.82-3.79,16-6.48,24.3-8.99c7.49-2.26,15.13-3.74,22.74-5.41
			c3.23-0.71,6.61-0.73,9.81-1.52c4.39-1.09,8.92-0.62,13.31-1.7c2.37-0.58,4.98-0.18,7.48-0.24c3.15-0.08,6.27-0.3,9.42-0.68
			c4.93-0.6,9.98-0.23,14.99-0.19c0.79,0.01,1.61,0.4,2.36,0.74c1.9,0.86,2.59,1.88,2.32,3.94c-0.3,2.3-0.87,4.56-1.28,6.84
			c-0.91,5.05-1.85,10.11-2.67,15.17c-1.01,6.21-2.32,12.41-2.73,18.67c-0.33,4.98-1.59,9.86-1.29,14.89
			c0.16,2.65,0.19,5.32-0.75,7.92c-0.32,0.9-0.16,1.98-0.19,2.98c-0.1,3.49,0.17,6.97-0.84,10.42c-0.45,1.55-0.14,3.32-0.18,4.98
			c-0.06,2.49-0.26,4.94-0.66,7.43c-0.54,3.42-0.25,6.98-0.2,10.48c0.02,1.27,0.81,2.13,2.1,2.45c1.29,0.32,2.48-0.26,2.67-1.48
			c0.94-6.06,2.49-12.04,2.13-18.27c-0.18-3.16-0.03-6.34-0.01-9.51c0.01-2.16-0.19-4.35,0.73-6.41c0.13-0.3,0.2-0.66,0.17-0.98
			c-0.46-4.86,1.01-9.57,1.18-14.4c0.15-4.45,0.93-8.89,1.58-13.32c0.48-3.28,0.78-6.6,1.16-9.88c0.97-8.25,2.37-16.4,4.13-24.5
			c0.11-0.49,0.12-1,0.25-1.48c1.67-5.91,4-7.15,8.76-6.83c3.32,0.23,6.67,0.03,10.01,0.05c1.83,0.01,3.63-0.01,5.44,0.54
			c1.24,0.38,2.63,0.36,3.95,0.39c3,0.06,6,0.02,9.01,0.05c2.16,0.02,4.34-0.17,6.41,0.72c0.44,0.19,0.99,0.26,1.47,0.2
			c4.54-0.49,8.9,0.94,13.38,1.19c3.94,0.22,7.86,1.18,11.75,1.95c4.55,0.9,9.12,1.77,13.6,2.96c7.09,1.88,13.86,4.54,20.19,8.38
			c10.25,6.22,20.11,13.03,30,19.78c5.89,4.02,11.31,8.72,16.92,13.13c5,3.93,8.83,9.09,14.17,12.58c0.67,0.44,1.25,1.15,1.64,1.86
			c0.89,1.66,2.29,2.86,3.58,4.15c9.21,9.25,16.85,19.7,23.51,30.89c2.55,4.29,5.24,8.53,7.39,13.02c6.13,12.77,11.4,25.88,15,39.62
			c1.26,4.82,2.9,9.55,4.06,14.39c1.99,8.22,4.11,16.44,5.47,24.77c1.2,7.35,2.65,14.67,3.43,22.11c0.53,5.1,1.1,10.23,1.98,15.27
			c0.66,3.76,0.37,7.64,1.59,11.32c0.35,1.07,0.2,2.31,0.23,3.48c0.05,2.16,0.35,4.28,0.66,6.42c0.46,3.1,0.12,6.32,0.12,9.48
			C944.23,349.99,944.28,349.99,944.33,350z M667.29,208.52c-0.57-0.04-1.14-0.08-1.7-0.13c-0.04-0.32-0.1-0.65-0.13-0.97
			c-0.22-2.33-0.69-3.31-1.45-3.01c-1.47,0.59-0.7,1.99-1.06,2.98c-0.09,0.25-0.33,0.44-0.63,0.84c-2.32-1.2-4.38-0.55-6.17,1.24
			c-0.6-0.01-1.2-0.02-1.8-0.03c-1.15-1.39-2.53-2.25-4.36-1.53c-1.21,0.47-2.29-0.05-3.42-0.16c-0.91-0.01-1.82-0.02-2.73-0.03
			c-1.11,0.21-1.72,0.77-1.76,2c-0.05,1.46,0.37,3-0.55,4.35c-0.38,0.56-0.9,0.99-1.63,0.94c-0.75-0.06-1.26-0.64-1.35-1.24
			c-0.21-1.3-0.22-2.63-0.27-3.95c-0.05-1.2-0.61-1.8-1.83-1.79c-0.49,0.01-1,0-1.46-0.13c-0.55-0.17-1.44-0.16-1.27-1.05
			c0.07-0.35,0.62-0.7,1.03-0.88c0.43-0.2,0.98-0.14,1.42-0.32c0.23-0.09,0.53-0.52,0.47-0.71c-0.08-0.26-0.41-0.56-0.69-0.64
			c-2.51-0.74-3.7-0.28-4.92,1.86c-0.5,0.86-0.5,2.57-0.26,4.69c0.22,1.97,0.23,3.96,0.33,5.94c0.06,0.64,0.12,1.27,0.18,1.91
			c-0.04,1.66-0.13,3.33-0.11,4.99c0.01,0.91,0.46,1.58,1.48,1.64c0.83,0.05,1.66,0.04,2.49,0.09c1.82,0.13,2.17,0.37,2.17,1.95
			c0.04,6.83,0.04,13.67,0,20.5c-0.01,2.06-0.34,2.37-2.25,2.42c-2.16,0.06-4.33-0.01-6.49,0.05c-1.64,0.05-3.32-0.32-4.92,0.43
			c-0.66,1.62-0.36,3.3-0.31,4.94c0.02,0.72,0.52,1.23,1.25,1.32c0.82,0.1,1.66,0.13,2.49,0.13c6.99,0.01,13.99,0.03,20.98,0
			c3.85-0.02,3.9-0.09,3.85-3.92c-0.01-0.81-0.16-1.63-0.24-2.34c-1.55-0.91-3.09-0.46-4.56-0.6c-1.11-0.1-1.95-0.46-1.95-1.73
			c-0.02-5.83-0.02-11.67-0.02-17.5c0-0.68,0.17-1.34,0.73-1.78c2.92-2.28,6.09-4.11,9.86-4.48c2.41-0.24,4.09,1.06,4.62,3.58
			c0.34,1.62,0.45,3.3,0.48,4.95c0.07,4.17,0.02,8.33,0.02,12.5c0,3-0.03,6,0.03,9c0.04,1.93,0.4,2.27,2.4,2.31
			c2.66,0.05,5.33,0.04,7.99,0.01c3.87-0.04,3.88-0.06,3.85-3.9c-0.01-0.82-0.13-1.63-0.2-2.45c-1.55-0.73-3.07-0.41-4.53-0.52
			c-1.12-0.08-1.97-0.48-1.98-1.73c-0.03-5.83-0.02-11.67-0.03-17.5c0-0.92,0.47-1.57,1.14-2.1c2.51-1.99,5.28-3.51,8.47-4.06
			c3.57-0.62,5.85,1.13,6.11,4.75c0.15,1.99,0.07,4,0.07,6c0.01,6.5,0.02,13,0.02,19.5c0,1.17,0.52,1.94,1.73,1.95
			c3.66,0.04,7.33,0.04,10.99,0.02c0.96,0,1.53-0.59,1.6-1.54c0.09-1.16,0.08-2.33,0.17-3.49c0.06-0.72,0.5-1.19,1.18-1.44
			c1.99,3.79,5.07,6.25,9.32,6.76c4.02,0.49,8.01,0.16,11.5-2.31c0.54-0.38,1.14-0.7,1.74-0.97c0.77-0.34,1.31,0.02,1.42,0.79
			c0.22,1.58,0.97,2.32,2.64,2.24c2.16-0.1,4.33,0,6.5-0.02c4.4-0.04,4.41-0.05,4.3-4.44c-0.02-0.65-0.17-1.29-0.28-2.13
			c-1.4-0.1-2.7-0.18-3.99-0.3c-1.64-0.16-2.11-0.54-2.13-2.13c-0.07-4.84-0.02-9.68-0.08-14.52c-0.03-2.16-0.13-4.34-0.33-6.49
			c-0.39-4.05-2.65-6.86-6.36-8.25c-6.03-2.25-12.11-2.15-17.97,0.66c-2.86,1.37-5.12,3.47-6.46,6.51c1.36,1.04,2.7,1.18,3.96,1.59
			c1.75,0.58,2.99,0.38,4.38-1.09c2.96-3.13,6.75-3.3,10.65-2.04c2.61,0.85,4.19,2.67,4.42,5.48c0.15,1.79,0.44,3.6-0.14,5.3
			c-1.45,0.36-2.39-0.52-3.44-0.94c-3.2-1.27-6.49-1.51-9.83-0.96c-7.47,1.22-11.84,7.35-10.61,14.84c0.13,0.81,0.45,1.6,0.68,2.39
			c-1.8-0.12-3.6-0.23-5.4-0.37c-1.88-0.14-2.39-0.54-2.42-2.36c-0.07-4.97-0.02-9.95-0.08-14.92c-0.03-2.15-0.2-4.3-0.33-6.45
			c-0.31-5.12-3.98-8.92-10.66-8.63c-3.2,0.14-6.14,1.27-8.89,2.89c-1.41,0.83-2.79,1.72-4.32,2.67c-1.5-2.16-3.11-4.04-5.44-5.12
			c0.01-0.53,0.01-1.07,0.02-1.6c1.03-0.25,2.12,0.42,3.12-0.22c0.43-0.16,0.87-0.32,1.3-0.47c2.33,2.14,5.05,0.4,7.56,0.69
			c0.26,0.03,0.81-0.63,0.86-1.02c0.14-1.14,0.18-2.3,0.11-3.45c-0.2-3.44-2.11-5.02-5.55-4.56
			C668.83,207.85,668.07,208.25,667.29,208.52z M768.35,230.94c0.09-0.75,0.26-1.56,0.27-2.38c0.02-7.51,0.04-15.02,0-22.53
			c-0.01-3.19-0.17-3.28-3.49-3.26c-2.98,0.01-3.22,0.2-3.26,3.01c-0.05,2.84,0,5.67-0.02,8.51c-0.01,1.33-0.01,2.67-0.12,4
			c-0.06,0.76-0.67,1.17-1.4,1.02c-1.63-0.33-3.23-0.8-4.85-1.14c-2.67-0.56-5.34-0.28-7.93,0.43c-5.46,1.49-8.68,5.98-8.41,11.5
			c0.19,3.87,2.16,6.56,5.43,8.41c2.95,1.67,6.2,2.39,9.49,2.97c2.3,0.4,4.63,0.71,6.71,1.86c2.22,1.23,2.58,4.21,0.75,5.95
			c-0.47,0.45-1.05,0.85-1.65,1.09c-2.88,1.16-5.8,1.4-8.78,0.31c-2.68-0.97-4.61-2.58-5.2-5.53c-0.18-0.9-0.9-1.36-1.84-1.36
			c-1-0.01-2,0.01-3,0c-1.21,0-1.88,0.6-1.9,1.8c-0.03,3.17-0.05,6.34,0,9.51c0.02,1.55,0.5,1.98,2.19,2
			c1.63,0.01,3.34,0.41,4.76-0.9c0.77-0.71,1.55-0.13,2.28,0.19c3.84,1.66,7.88,1.22,11.84,0.9c2.5-0.2,4.79-1.4,6.73-3.07
			c2.11-1.81,3.37-4.05,3.56-6.91c0.41-6.1-2.28-10.26-8.2-12.07c-2.54-0.78-5.19-1.17-7.79-1.74c-1.95-0.43-3.96-0.69-5.84-1.34
			c-2.9-0.99-3.32-4.43-0.84-6.33c0.65-0.5,1.42-0.96,2.2-1.13c2.47-0.54,4.97-0.64,7.35,0.46c2.19,1.01,4.02,2.38,4.55,4.94
			c0.21,1,0.93,1.31,1.84,1.27C765.25,231.32,766.77,231.69,768.35,230.94z M722.63,202.59c-1.69-0.03-3.46-0.07-5.24-0.08
			c-1.14-0.01-1.83,0.61-2.19,1.66c-1.19,3.45-2.4,6.89-3.58,10.34c-0.16,0.48-0.13,1.05,0.39,1.28c0.43,0.19,1.01,0.35,1.41,0.21
			c0.59-0.21,1.26-0.58,1.61-1.08c2.61-3.82,5.62-7.38,7.75-11.52C722.84,203.29,722.73,203.08,722.63,202.59z"/>
		<path class="st5" d="M695.25,304.65c3.5,0,7-0.02,10.51,0.01c2.49,0.02,4.98-0.17,7.42,0.72c1.05,0.38,2.31,0.22,3.47,0.23
			c4,0.03,8.01,0.03,12.01,0.05c1.67,0.01,3.33-0.05,4.93,0.58c0.61,0.24,1.31,0.39,1.95,0.34c5.86-0.51,11.63,0.63,17.38,1.25
			c4.42,0.47,8.92,0.46,13.31,1.56c2.86,0.72,5.91,0.72,8.87,1.1c11.03,1.41,21.88,3.64,32.76,5.86
			c14.98,3.07,29.63,7.37,44.28,11.68c13.58,4,26.83,8.88,39.94,14.13c14.7,5.89,28.89,12.95,42.81,20.47
			c8.78,4.74,17.44,9.72,26.22,14.47c2.58,1.4,2.91,2.54,1.47,5.26c-0.85,1.62-1.83,3.17-2.81,4.71
			c-4.21,6.58-8.2,13.34-13.94,18.78c-8.18,7.76-17.75,12.15-29.19,11.96c-1.33-0.02-2.67,0.01-4-0.01
			c-9.85-0.14-19.45-1.63-28.86-4.67c-9.68-3.13-19.03-6.98-28.28-11.2c-10.75-4.92-21.4-10.05-32.12-15.03
			c-12.81-5.95-25.81-11.49-39.1-16.38c-13.14-4.83-26.63-8.19-40.33-10.86c-6.83-1.33-13.67-2.6-20.64-2.99
			c-4.44-1.74-9.23-0.51-13.81-1.73c-2.81-0.75-5.97-0.2-8.97-0.24c-1.99-0.03-3.97,0.05-5.93-0.62c-1.07-0.37-2.3-0.35-3.46-0.32
			c-5.31,0.17-10.63-0.52-15.92,0.81c-1.89,0.48-3.98,0.09-5.98,0.13c-3.15,0.07-6.34-0.32-9.4,0.85c-0.45,0.17-0.99,0.12-1.49,0.13
			c-7.48,0.21-14.79,1.63-22.16,2.78c-12.64,1.97-25.05,4.9-37.4,8.16c-11.1,2.93-22.01,6.46-32.72,10.6
			c-4.65,1.8-9.33,3.53-13.95,5.41c-5.85,2.38-11.68,4.82-17.47,7.35c-8.54,3.72-17.04,7.53-25.55,11.32
			c-6.39,2.84-12.72,5.8-19.16,8.5c-6.14,2.57-12.46,4.7-19.03,5.78c-2.77,0.46-5.57,0.85-8.37,1.15
			c-6.88,0.74-16.78-4.04-19.73-11.08c-1.7-4.06-3.19-8-2.89-12.49c0.17-2.49,0.09-5.01,0.03-7.51c-0.16-5.89,1.8-11.05,4.99-15.92
			c2.1-3.2,5.25-5.13,8.3-7.05c8.04-5.05,16.37-9.62,25.02-13.56c7.26-3.31,14.64-6.37,22.04-9.36c9.88-4,20.06-7.13,30.21-10.34
			c12.98-4.11,26.23-7.28,39.44-10.53c8.04-1.98,16.19-3.57,24.34-5.05c5.53-1.01,11.17-1.46,16.74-2.28
			c5.73-0.84,11.43-1.85,17.16-2.74c1.15-0.18,2.33-0.16,3.49-0.19c1.67-0.04,3.3-0.11,4.93-0.61c1.24-0.38,2.63-0.34,3.95-0.39
			c2.16-0.08,4.34,0.12,6.41-0.77c0.44-0.19,0.98-0.21,1.48-0.2c7.66,0.22,15.21-1.65,22.9-1.11c2.64,0.18,5.31,0.21,7.92-0.71
			c1.05-0.37,2.31-0.2,3.47-0.2C686.91,304.64,691.08,304.65,695.25,304.65z"/>
		<path class="st5" d="M999.46,380.37c0,1.5,0.06,3.01-0.01,4.51c-0.23,5.05-4.51,7.39-8.7,4.69c-3.07-1.98-6.1-4.05-9-6.27
			c-6.9-5.28-14.46-9.48-22.14-13.47c-1.63-0.85-3.25-1.72-4.94-2.43c-3-1.26-4.24-3.56-4.24-6.69c0-3.84,0.01-7.68-0.03-11.52
			c-0.03-2.49,0.24-5.01-0.76-7.42c-0.24-0.59-0.2-1.32-0.2-1.98c0.03-6-1.32-11.87-1.83-17.8c-0.53-6.13-1.99-12.12-2.27-18.26
			c-0.09-1.99-0.8-3.88-1.05-5.87c-0.84-6.74-1.86-13.46-3.09-20.14c-1.11-6.03-2.48-12.02-3.95-17.98
			c-2.58-10.49-5.3-20.96-8.99-31.13c-2.84-7.82-5.75-15.6-9.28-23.16c-6.16-13.2-13.9-25.34-22.78-36.83
			c-4.18-5.4-8.52-10.65-13.44-15.39c-2.28-2.2-4.51-4.46-6.73-6.72c-7.01-7.15-14.87-13.28-22.87-19.24
			c-6.93-5.17-13.91-10.25-20.87-15.37c-0.4-0.3-0.85-0.55-1.18-0.92c-0.18-0.2-0.27-0.62-0.19-0.88c0.08-0.26,0.41-0.59,0.65-0.61
			c0.65-0.07,1.34-0.09,1.98,0.06c5.69,1.32,11.17,3.28,16.47,5.68c6.37,2.88,12.75,5.77,18.95,9.01
			c8.69,4.55,17.34,9.25,25.41,14.84c6,4.16,12.03,8.28,17.56,13.12c3.26,2.85,6.28,5.96,9.59,8.72c4.23,3.53,7.71,7.78,11.48,11.73
			c3.55,3.71,6.85,7.72,9.79,11.93c7.83,11.2,15.06,22.8,20.71,35.28c5.42,11.98,10.29,24.18,14.12,36.8
			c3.91,12.88,7.37,25.87,9.87,39.1c1.17,6.19,2.53,12.34,3.65,18.54c0.89,4.89,1.54,9.82,2.31,14.74
			c0.93,5.89,2.13,11.75,2.71,17.67c0.37,3.8,0.86,7.62,1.45,11.35c0.83,5.27,0.3,10.62,1.57,15.84c0.5,2.05,0.08,4.31,0.08,6.48
			C999.35,380.37,999.41,380.37,999.46,380.37z"/>
		<path class="st6" d="M431.02,365.4c-0.19-5.44,0.86-10.32,1.65-15.23c0.52-3.27,0.88-6.57,1.35-9.85
			c0.71-4.92,1.36-9.85,2.19-14.75c1.22-7.19,2.45-14.37,3.93-21.51c1.61-7.8,3.42-15.56,5.32-23.29
			c2.13-8.71,4.22-17.44,6.76-26.04c2.12-7.17,4.65-14.23,7.2-21.28c3.52-9.75,8.11-18.98,12.7-28.23
			c4.52-9.14,10.22-17.51,16.28-25.68c5.58-7.52,11.9-14.38,18.78-20.66c8.72-7.97,18.01-15.25,28.25-21.21
			c4.74-2.76,9.52-5.46,14.31-8.14c0.7-0.39,1.54-0.56,2.32-0.8c0.1-0.03,0.35,0.11,0.39,0.23c0.11,0.28,0.29,0.67,0.18,0.88
			c-0.22,0.43-0.56,0.83-0.95,1.12c-5.3,4.01-10.56,8.07-15.93,11.97c-3.37,2.45-6.52,5.12-9.71,7.79
			c-2.94,2.46-5.86,4.93-8.48,7.72c-8.08,8.63-15.65,17.66-21.55,27.99c-1.9,3.32-4.08,6.49-5.83,9.88
			c-2.06,3.99-3.94,8.09-5.63,12.25c-2.2,5.39-4.38,10.81-6.13,16.35c-2.6,8.23-4.95,16.54-6.51,25.06
			c-0.96,5.22-2.32,10.36-3.35,15.56c-0.96,4.87-1.71,9.79-2.57,14.68c-0.52,2.94-1.04,5.87-1.62,8.8
			c-0.55,2.77-0.66,5.58-1.18,8.37c-1.07,5.69-1.46,11.5-2.24,17.25c-0.45,3.28-1.13,6.52-1.67,9.79c-0.16,0.98-0.21,1.99-0.25,2.98
			c-0.08,2.49,0.08,4.98-0.8,7.42c-0.38,1.05-0.19,2.31-0.2,3.48c-0.02,3-0.13,6.01,0.02,9.01c0.21,4.33-1.44,7.38-5.48,9.15
			c-2.91,1.27-5.38,3.27-8,5.03c-3.55,2.39-6.29,5.41-8.46,9.02c-0.72,1.19-1.41,2.34-3.05,2.03c-1.35-0.26-1.94-1.3-2.03-3.56
			C430.98,367.65,431.02,366.31,431.02,365.4z"/>
		<path class="st7" d="M703.05,558.97c-6.92-0.24-13.47-1.99-19.52-5.35c-4.1-2.28-4.7-5.33-2.05-9.15
			c1.63-2.34,3.66-4.31,6.07-5.85c7.02-4.5,14.68-7.22,23.01-7.21c6.49,0.01,12.95,0.85,18.64,4.54c1.55,1,3,2.11,4.15,3.55
			c1.82,2.29,1.95,4.5,0.14,6.83c-1.11,1.43-2.46,2.73-3.9,3.82c-5.25,3.99-11.15,6.61-17.63,7.78
			C709.04,558.47,706.09,559.12,703.05,558.97z"/>
		<path class="st8" d="M624.65,471.43c0.06,7.18-5.12,12.43-12.21,12.37c-6.88-0.06-12.26-5.82-12.27-13.15
			c-0.01-7.17,5.18-12.66,12-12.71C619.22,457.89,624.59,463.69,624.65,471.43z"/>
		<path class="st8" d="M812.2,457.89c6.82,0.04,13.02,6.48,12.89,13.37c-0.13,6.59-6.15,12.37-12.74,12.23
			c-6.94-0.15-12.48-5.99-12.4-13.07C800.02,463.41,805.46,457.84,812.2,457.89z"/>
		<path class="st9" d="M699.85,250.64c-0.68,0.24-1.12,0.72-1.18,1.44c-0.09,1.16-0.08,2.33-0.17,3.49
			c-0.08,0.95-0.64,1.53-1.6,1.54c-3.66,0.02-7.33,0.02-10.99-0.02c-1.21-0.01-1.73-0.78-1.73-1.95c-0.01-6.5-0.01-13-0.02-19.5
			c0-2,0.08-4.01-0.07-6c-0.27-3.61-2.54-5.37-6.11-4.75c-3.19,0.56-5.95,2.07-8.47,4.06c-0.67,0.53-1.14,1.19-1.14,2.1
			c0.01,5.83,0,11.67,0.03,17.5c0.01,1.25,0.86,1.66,1.98,1.73c1.47,0.1,2.98-0.21,4.53,0.52c0.07,0.82,0.19,1.63,0.2,2.45
			c0.04,3.84,0.03,3.86-3.85,3.9c-2.66,0.03-5.33,0.04-7.99-0.01c-2-0.04-2.37-0.38-2.4-2.31c-0.06-3-0.03-6-0.03-9
			c0-4.17,0.04-8.33-0.02-12.5c-0.03-1.66-0.14-3.34-0.48-4.95c-0.53-2.51-2.21-3.81-4.62-3.58c-3.77,0.37-6.93,2.2-9.86,4.48
			c-0.56,0.44-0.73,1.09-0.73,1.78c0,5.83,0,11.67,0.02,17.5c0,1.27,0.85,1.63,1.95,1.73c1.47,0.13,3.01-0.32,4.56,0.6
			c0.08,0.71,0.23,1.53,0.24,2.34c0.06,3.83,0,3.91-3.85,3.92c-6.99,0.03-13.99,0.01-20.98,0c-0.83,0-1.67-0.03-2.49-0.13
			c-0.73-0.09-1.23-0.6-1.25-1.32c-0.05-1.65-0.35-3.32,0.31-4.94c1.6-0.75,3.28-0.39,4.92-0.43c2.16-0.06,4.33,0.01,6.49-0.05
			c1.91-0.06,2.24-0.36,2.25-2.42c0.04-6.83,0.03-13.67,0-20.5c-0.01-1.58-0.35-1.82-2.17-1.95c-0.83-0.06-1.66-0.05-2.49-0.09
			c-1.02-0.06-1.47-0.73-1.48-1.64c-0.01-1.66,0.07-3.33,0.11-4.99c3.46-0.03,6.91-0.09,10.37-0.08c2.86,0.01,2.86,0.05,3.55,3.25
			c0.09,0.41,0.29,0.59,1.08,0.43c0.08-0.04,0.57-0.16,0.95-0.43c4.54-3.16,9.55-4.28,15-3.48c2.33,1.08,3.94,2.96,5.44,5.12
			c1.52-0.94,2.9-1.83,4.32-2.67c2.75-1.62,5.7-2.76,8.89-2.89c6.69-0.28,10.36,3.52,10.66,8.63c0.13,2.15,0.3,4.3,0.33,6.45
			c0.06,4.97,0,9.95,0.08,14.92c0.03,1.81,0.54,2.22,2.42,2.36c1.8,0.13,3.6,0.24,5.4,0.36
			C699.74,250.65,699.85,250.64,699.85,250.64z"/>
		<path class="st10" d="M768.35,230.94c-1.57,0.75-3.09,0.39-4.57,0.45c-0.9,0.04-1.63-0.27-1.84-1.27
			c-0.53-2.56-2.36-3.93-4.55-4.94c-2.38-1.1-4.87-1-7.35-0.46c-0.78,0.17-1.55,0.63-2.2,1.13c-2.47,1.9-2.06,5.34,0.84,6.33
			c1.88,0.64,3.89,0.91,5.84,1.34c2.6,0.57,5.25,0.97,7.79,1.74c5.92,1.81,8.61,5.97,8.2,12.07c-0.19,2.86-1.45,5.1-3.56,6.91
			c-1.94,1.67-4.23,2.87-6.73,3.07c-3.96,0.32-8,0.75-11.84-0.9c-0.73-0.31-1.52-0.9-2.28-0.19c-1.42,1.31-3.13,0.92-4.76,0.9
			c-1.69-0.01-2.17-0.44-2.19-2c-0.05-3.17-0.03-6.34,0-9.51c0.01-1.2,0.69-1.8,1.9-1.8c1,0,2-0.01,3,0
			c0.94,0.01,1.66,0.47,1.84,1.36c0.59,2.95,2.52,4.56,5.2,5.53c2.98,1.08,5.9,0.85,8.78-0.31c0.6-0.24,1.18-0.64,1.65-1.09
			c1.83-1.74,1.47-4.72-0.75-5.95c-2.07-1.15-4.41-1.46-6.71-1.86c-3.29-0.58-6.55-1.31-9.49-2.97c-3.27-1.85-5.24-4.54-5.43-8.41
			c-0.26-5.52,2.95-10.01,8.41-11.5c2.59-0.71,5.25-0.99,7.93-0.43c1.63,0.34,3.22,0.81,4.85,1.14c0.73,0.15,1.34-0.26,1.4-1.02
			c0.11-1.33,0.11-2.66,0.12-4c0.02-2.84-0.03-5.67,0.02-8.51c0.05-2.81,0.29-2.99,3.26-3.01c3.32-0.01,3.47,0.08,3.49,3.26
			c0.03,7.51,0.02,15.02,0,22.53C768.61,229.37,768.44,230.19,768.35,230.94z"/>
		<path class="st11" d="M699.85,250.64c0,0-0.11,0.01-0.11,0.01c-0.23-0.8-0.55-1.58-0.68-2.39c-1.23-7.5,3.13-13.63,10.61-14.84
			c3.34-0.54,6.63-0.31,9.83,0.96c1.05,0.42,2,1.3,3.44,0.94c0.58-1.7,0.28-3.51,0.14-5.3c-0.23-2.81-1.81-4.63-4.42-5.48
			c-3.89-1.27-7.69-1.1-10.65,2.04c-1.4,1.48-2.63,1.67-4.38,1.09c-1.25-0.41-2.6-0.56-3.96-1.59c1.34-3.04,3.6-5.14,6.46-6.51
			c5.86-2.81,11.94-2.92,17.97-0.66c3.71,1.39,5.97,4.19,6.36,8.25c0.21,2.15,0.31,4.32,0.33,6.49c0.06,4.84,0.01,9.68,0.08,14.52
			c0.02,1.59,0.49,1.97,2.13,2.13c1.29,0.12,2.59,0.2,3.99,0.3c0.11,0.84,0.26,1.48,0.28,2.13c0.11,4.39,0.1,4.4-4.3,4.44
			c-2.17,0.02-4.34-0.08-6.5,0.02c-1.67,0.07-2.42-0.66-2.64-2.24c-0.11-0.77-0.64-1.13-1.42-0.79c-0.6,0.27-1.2,0.59-1.74,0.97
			c-3.5,2.46-7.48,2.8-11.5,2.31C704.92,256.89,701.84,254.44,699.85,250.64z M713.07,251.71c3.49,0.06,6.44-1.32,9.03-3.54
			c1.45-1.25,1.69-4.74,0.32-5.82c-3.56-2.79-7.58-4.08-12.07-2.75c-2.51,0.74-4.05,3.03-4.24,5.56
			C705.86,248.59,708.48,251.98,713.07,251.71z"/>
		<path class="st12" d="M662.21,218.37c-5.46-0.81-10.46,0.32-15,3.48c-0.39,0.27-0.87,0.39-0.95,0.43
			c-0.78,0.16-0.99-0.02-1.08-0.43c-0.69-3.19-0.69-3.23-3.55-3.25c-3.46-0.02-6.91,0.05-10.37,0.08c-0.06-0.64-0.12-1.27-0.18-1.91
			c1.06-0.04,1.93-0.3,2-1.61c0.08-1.63,0.15-3.27,0.35-4.89c0.04-0.28,0.74-0.66,1.13-0.66c0.39,0,1.06,0.38,1.12,0.68
			c0.24,1.28,0.22,2.62,0.45,3.9c0.37,2.08,1.83,3.33,3.86,2.7c1.38-0.43,3.02,0.44,4.34-1.06c-0.04-2.63,0.55-5.41-0.5-8.13
			c0.91,0.01,1.82,0.02,2.73,0.03c-0.75,2.45-0.37,4.95-0.36,7.43c0,0.7,0.26,1.36,1.11,1.26c0.81-0.1,0.89-0.83,0.94-1.49
			c0.07-0.99,0.02-2.01,0.2-2.98c0.12-0.62,0.51-1.21,0.88-1.74c0.56-0.8,2.07-0.56,2.53,0.29c0.6,1.09,0.37,2.26,0.48,3.41
			c0.09,0.92-0.36,2.28,0.94,2.5c1.77,0.31,0.8-1.86,1.79-2.38c3.08,2.98,3.08,2.98,7.16,2.73
			C662.22,217.3,662.22,217.83,662.21,218.37z"/>
		<path class="st13" d="M662.23,216.76c-4.09,0.26-4.09,0.26-7.16-2.73c-0.99,0.52-0.01,2.69-1.79,2.38
			c-1.3-0.23-0.85-1.58-0.94-2.5c-0.11-1.14,0.12-2.31-0.48-3.41c-0.46-0.85-1.97-1.09-2.53-0.29c-0.37,0.53-0.76,1.12-0.88,1.74
			c-0.18,0.97-0.14,1.98-0.2,2.98c-0.05,0.66-0.13,1.39-0.94,1.49c-0.85,0.1-1.11-0.56-1.11-1.26c-0.01-2.48-0.39-4.99,0.36-7.43
			c1.14,0.11,2.21,0.63,3.42,0.16c1.83-0.71,3.21,0.15,4.36,1.53c0.03,0.31,0,0.65,0.1,0.94c0.1,0.28,0.27,0.65,0.5,0.73
			c0.56,0.19,0.85-0.26,1.02-0.71c0.11-0.29,0.12-0.62,0.18-0.93c1.8-1.79,3.85-2.44,6.17-1.24c0.31-0.4,0.54-0.59,0.63-0.84
			c0.36-0.99-0.41-2.39,1.06-2.98c0.76-0.3,1.23,0.68,1.45,3.01c0.03,0.33,0.08,0.65,0.13,0.97c-0.08,2.72-0.16,5.44-0.24,8.16
			C664.35,217.18,663.26,216.51,662.23,216.76z M660.64,215.31c1.44-0.11,2.58-1.56,2.46-3.11c-0.13-1.61-1.5-2.81-2.93-2.59
			c-1.43,0.22-2.33,1.62-2.13,3.32C658.2,214.31,659.4,215.41,660.64,215.31z"/>
		<path class="st13" d="M643.83,207.7c1.05,2.72,0.46,5.5,0.5,8.13c-1.32,1.5-2.96,0.63-4.34,1.06c-2.03,0.63-3.49-0.62-3.86-2.7
			c-0.23-1.29-0.21-2.62-0.45-3.9c-0.06-0.3-0.73-0.68-1.12-0.68c-0.39,0-1.09,0.38-1.13,0.66c-0.21,1.62-0.27,3.26-0.35,4.89
			c-0.07,1.31-0.94,1.57-2,1.61c-0.1-1.98-0.11-3.97-0.33-5.94c-0.23-2.12-0.23-3.83,0.26-4.69c1.23-2.14,2.42-2.61,4.92-1.86
			c0.28,0.08,0.62,0.38,0.69,0.64c0.05,0.18-0.24,0.61-0.47,0.71c-0.44,0.18-0.99,0.12-1.42,0.32c-0.41,0.19-0.97,0.53-1.03,0.88
			c-0.17,0.89,0.72,0.89,1.27,1.05c0.46,0.14,0.97,0.14,1.46,0.13c1.22-0.01,1.79,0.59,1.83,1.79c0.05,1.32,0.06,2.65,0.27,3.95
			c0.1,0.6,0.61,1.18,1.35,1.24c0.73,0.06,1.25-0.38,1.63-0.94c0.92-1.34,0.5-2.89,0.55-4.35
			C642.11,208.47,642.72,207.91,643.83,207.7z"/>
		<path class="st13" d="M722.63,202.59c0.1,0.49,0.21,0.69,0.15,0.81c-2.14,4.14-5.14,7.7-7.75,11.52c-0.34,0.5-1.01,0.87-1.61,1.08
			c-0.4,0.14-0.98-0.02-1.41-0.21c-0.52-0.23-0.55-0.81-0.39-1.28c1.18-3.45,2.39-6.89,3.58-10.34c0.36-1.05,1.05-1.67,2.19-1.66
			C719.17,202.53,720.94,202.57,722.63,202.59z"/>
		<path class="st13" d="M667.29,208.52c0.78-0.27,1.54-0.67,2.33-0.78c3.44-0.46,5.36,1.11,5.55,4.56c0.07,1.14,0.03,2.31-0.11,3.45
			c-0.05,0.39-0.6,1.05-0.86,1.02c-2.52-0.29-5.23,1.45-7.57-0.69c-0.4-2.35-0.08-3.42,1.38-4.03c0.72-0.3,1.57-0.32,2.34-0.51
			c0.64-0.16,1.85,0.45,1.63-0.95c-0.15-0.95-1.09-1.05-1.92-1.08c-0.79-0.02-1.63,0.37-2.35-0.18
			C667.5,209.16,667.43,208.79,667.29,208.52z M672.15,214.2c0.16-0.37,0.01-0.58-0.32-0.81c-0.76-0.53-1.48-0.51-2.24-0.03
			c-0.5,0.32-0.55,0.87-0.38,1.27c0.28,0.64,0.92,0.88,1.62,0.76C671.5,215.28,672.04,214.97,672.15,214.2z"/>
		<path class="st12" d="M667.29,208.52c0.14,0.28,0.21,0.64,0.43,0.81c0.72,0.55,1.56,0.15,2.35,0.18c0.83,0.03,1.77,0.12,1.92,1.08
			c0.22,1.4-1,0.79-1.63,0.95c-0.78,0.19-1.62,0.21-2.34,0.51c-1.45,0.61-1.77,1.68-1.38,4.03c-0.43,0.16-0.86,0.31-1.3,0.47
			c0.08-2.72,0.16-5.44,0.24-8.16C666.16,208.43,666.72,208.47,667.29,208.52z"/>
		<path class="st12" d="M656.15,209.46c-0.06,0.31-0.07,0.64-0.18,0.93c-0.17,0.45-0.46,0.9-1.02,0.71c-0.23-0.08-0.4-0.45-0.5-0.73
			c-0.1-0.29-0.08-0.62-0.1-0.94C654.94,209.44,655.54,209.45,656.15,209.46z"/>
		<path class="st5" d="M713.07,251.72c-4.59,0.26-7.22-3.12-6.96-6.56c0.19-2.53,1.72-4.81,4.24-5.56
			c4.49-1.33,8.51-0.04,12.07,2.75c1.37,1.08,1.13,4.57-0.32,5.82C719.51,250.4,716.57,251.77,713.07,251.72z"/>
		<path class="st12" d="M660.64,215.31c-1.24,0.1-2.44-1.01-2.61-2.39c-0.2-1.69,0.7-3.1,2.13-3.32c1.44-0.22,2.8,0.99,2.93,2.59
			C663.23,213.75,662.09,215.2,660.64,215.31z"/>
		<path class="st12" d="M672.15,214.2c-0.11,0.77-0.65,1.08-1.32,1.19c-0.7,0.12-1.34-0.11-1.62-0.76c-0.18-0.4-0.12-0.95,0.38-1.27
			c0.76-0.49,1.47-0.5,2.24,0.03C672.17,213.62,672.32,213.83,672.15,214.2z"/>
	</g>
</g>
</svg>
