<?xml version="1.0" encoding="utf-8"?>
<!-- Generator: Adobe Illustrator 25.0.0, SVG Export Plug-In . SVG Version: 6.00 Build 0)  -->
<svg version="1.1" id="Capa_1" xmlns="http://www.w3.org/2000/svg" xmlns:xlink="http://www.w3.org/1999/xlink" x="0px" y="0px"
	 viewBox="0 0 808.15 871.63" style="enable-background:new 0 0 808.15 871.63;" xml:space="preserve">
<style type="text/css">
	.st0{fill:#F3EEEF;}
	.st1{fill:#F6483B;}
</style>
<g>
	<g>
		<path d="M403.93,920.27c-168.97,0-337.94-0.01-506.91,0.09c-3.75,0-4.59-0.84-4.59-4.59c0.1-338.27,0.1-676.54,0-1014.81
			c0-3.75,0.84-4.59,4.59-4.59c338.27,0.1,676.54,0.1,1014.82,0c3.75,0,4.59,0.84,4.59,4.59c-0.1,338.27-0.1,676.54,0,1014.81
			c0,3.75-0.84,4.6-4.59,4.59C742.54,920.26,573.24,920.27,403.93,920.27z M600.24,673.07c0.71,2.88,1.44,5.76,2.13,8.65
			c8.02,33.13,15.81,66.33,29.94,97.59c8.93,19.74,19.75,38.17,37.02,51.93c19.63,15.64,40.67,14.97,59.06-2.02
			c15.64-14.45,24.27-33.18,30.85-52.9c13.2-39.61,16.01-80.75,17.06-122.06c0.39-15.47,0.32-30.97-0.26-46.46
			c-1.23-32.61-3.45-65.14-8.21-97.44c-6.22-42.25-13.74-84.28-23.56-125.86c-12.06-51-25.97-101.45-46.01-150.02
			c-13.83-33.51-30.6-65.4-53.36-93.76C590.41,72.83,516.77,42.14,432.5,33.89c-34.36-3.37-68.77-0.31-102.64,7.53
			c-41.49,9.61-79.53,26.34-112.41,53.73c-31.43,26.18-55.21,58.49-73.82,94.7c-17.48,34-30.51,69.8-41.11,106.44
			C87.16,349.32,75.25,403.2,64.29,457.31C54.01,508.07,48.26,559.37,46.7,611.09c-1.01,33.58-1.26,67.22,2.7,100.72
			c3.38,28.59,9.48,56.36,23.18,82.01c8.04,15.06,18.06,28.51,32.92,37.41c14.59,8.73,29.36,8.35,43.67-1.13
			c11.83-7.83,20.17-18.77,27.1-30.88c14.36-25.1,22.89-52.34,29.08-80.39c3.16-14.3,5.88-28.7,9.02-44.12
			c0.61,2.21,1.02,3.42,1.28,4.66c2.95,14.16,5.85,28.33,8.8,42.49c5.59,26.79,13.05,52.94,26.27,77.13
			c8.5,15.54,19.25,29.14,33.97,39.31c23.76,16.42,51.84,13.19,71.16-8.22c8.91-9.88,15.28-21.34,20.65-33.41
			c13.23-29.76,19.67-61.34,24.83-93.26c0.97-5.97,1.93-11.94,2.89-17.91c1.29,2.35,1.65,4.6,2.09,6.85
			c6.4,32.46,11.94,65.11,24.99,95.87c8.07,19.03,17.76,36.94,33.27,50.99c21.85,19.79,48.96,19.84,71.31,0.65
			c15.35-13.18,26.38-29.45,34.67-47.67c11.58-25.47,18.03-52.45,22.92-79.87C595.8,699.23,598.11,686.16,600.24,673.07z"/>
		<path class="st0" d="M600.24,673.07c-2.14,13.09-4.45,26.16-6.78,39.24c-4.89,27.42-11.34,54.4-22.92,79.87
			c-8.29,18.22-19.32,34.5-34.67,47.67c-22.35,19.19-49.46,19.14-71.31-0.65c-15.51-14.05-25.19-31.95-33.27-50.99
			c-13.05-30.76-18.59-63.41-24.99-95.87c-0.44-2.24-0.8-4.5-2.09-6.85c-0.96,5.97-1.93,11.94-2.89,17.91
			c-5.16,31.92-11.61,63.49-24.83,93.26c-5.36,12.07-11.74,23.53-20.65,33.41c-19.32,21.41-47.4,24.65-71.16,8.22
			c-14.72-10.17-25.47-23.77-33.97-39.31c-13.22-24.19-20.69-50.34-26.27-77.13c-2.95-14.16-5.86-28.33-8.8-42.49
			c-0.26-1.24-0.67-2.44-1.28-4.66c-3.14,15.42-5.86,29.82-9.02,44.12c-6.2,28.05-14.73,55.29-29.08,80.39
			c-6.93,12.11-15.27,23.05-27.1,30.88c-14.31,9.47-29.08,9.86-43.67,1.13c-14.86-8.9-24.88-22.35-32.92-37.41
			c-13.7-25.65-19.8-53.42-23.18-82.01c-3.96-33.5-3.71-67.13-2.7-100.72c1.56-51.71,7.31-103.01,17.59-153.78
			c10.96-54.11,22.87-107.99,38.23-161.04c10.61-36.63,23.63-72.43,41.11-106.44c18.61-36.2,42.39-68.52,73.82-94.7
			c32.88-27.38,70.92-44.12,112.41-53.73c33.87-7.84,68.27-10.9,102.64-7.53c84.27,8.25,157.91,38.95,212.4,106.83
			c22.77,28.36,39.54,60.26,53.36,93.76c20.04,48.56,33.95,99.01,46.01,150.02c9.83,41.57,17.34,83.61,23.56,125.86
			c4.76,32.29,6.98,64.82,8.21,97.44c0.58,15.49,0.66,30.99,0.26,46.46c-1.05,41.31-3.86,82.46-17.06,122.06
			c-6.57,19.72-15.2,38.46-30.85,52.9c-18.39,16.99-39.44,17.67-59.06,2.02c-17.27-13.76-28.09-32.19-37.02-51.93
			c-14.14-31.25-21.93-64.45-29.94-97.59C601.68,678.83,600.96,675.95,600.24,673.07z M401.36,346.57
			c26.89-0.04,49.8-21.34,51.96-48.3c1-12.43-3.77-22.8-12.35-26.89c-8.99-4.29-17.8-2.77-25.67,4.62
			c-3.43,3.23-6.91,6.22-11.64,7.36c-7.82,1.89-13.89-1.47-19.54-6.31c-5.51-4.72-11.89-6.59-19.03-5.07
			c-12.28,2.61-18.8,14.05-17.39,28.5C350,324.34,376.8,347.61,401.36,346.57z M502.21,221.81c-22.21,0.01-39.49,17.06-39.51,39
			c-0.02,22.32,17.19,39.48,39.54,39.44c22.58-0.04,38.75-16.6,38.91-39.85C541.31,238.31,524.65,221.8,502.21,221.81z
			 M260.49,261.16c0.15,22.61,16.54,39.22,38.54,39.07c22.13-0.16,39.06-17.63,38.94-40.2c-0.12-21.91-16.68-38.56-38.19-38.39
			C275.67,221.83,260.32,237.26,260.49,261.16z"/>
		<path d="M401.36,346.57c-24.56,1.04-51.36-22.23-53.67-46.08c-1.4-14.45,5.12-25.89,17.39-28.5c7.14-1.52,13.52,0.35,19.03,5.07
			c5.65,4.84,11.71,8.2,19.54,6.31c4.74-1.14,8.21-4.14,11.64-7.36c7.87-7.4,16.68-8.91,25.67-4.62
			c8.59,4.09,13.35,14.46,12.35,26.89C451.16,325.23,428.25,346.53,401.36,346.57z M406.09,314.31c-9.12,0.05-17.39,2.65-24.31,8.7
			c-5.93,5.18-5.5,9.16,1.08,13.36c12,7.66,32.03,6.02,43.62-3.56c5.39-4.46,5.37-8.09-0.25-12.37
			C420.3,315.91,413.45,314.27,406.09,314.31z"/>
		<path d="M502.21,221.81c22.44-0.01,39.1,16.5,38.95,38.59c-0.17,23.25-16.33,39.8-38.91,39.85
			c-22.36,0.04-39.57-17.12-39.54-39.44C462.72,238.87,480,221.82,502.21,221.81z M498.42,250.27c0.03,7.13,5.55,12.99,12.3,13.06
			c7.2,0.07,12.8-5.37,12.79-12.43c-0.01-7.09-6.43-13.58-13.3-13.46C503.46,237.56,498.39,243.07,498.42,250.27z"/>
		<path d="M260.49,261.16c-0.16-23.9,15.18-39.33,39.28-39.52c21.51-0.17,38.07,16.47,38.19,38.39c0.12,22.56-16.8,40.04-38.94,40.2
			C277.03,300.39,260.64,283.77,260.49,261.16z M296.42,249.85c-0.01,7.5,5.29,13.08,12.61,13.26c6.54,0.16,11.9-5.21,12.02-12.05
			c0.13-7.47-5.44-13.49-12.42-13.44C301.41,237.68,296.44,242.65,296.42,249.85z"/>
		<path class="st1" d="M406.09,314.31c7.36-0.04,14.21,1.6,20.14,6.12c5.62,4.29,5.64,7.91,0.25,12.37
			c-11.58,9.59-31.62,11.22-43.62,3.56c-6.58-4.2-7.01-8.17-1.08-13.36C388.7,316.96,396.97,314.35,406.09,314.31z"/>
		<path class="st0" d="M498.42,250.27c-0.03-7.2,5.04-12.71,11.8-12.83c6.87-0.13,13.29,6.37,13.3,13.46
			c0.01,7.06-5.59,12.5-12.79,12.43C503.97,263.26,498.44,257.4,498.42,250.27z"/>
		<path class="st0" d="M296.42,249.85c0.01-7.2,4.98-12.17,12.22-12.23c6.98-0.06,12.55,5.97,12.42,13.44
			c-0.12,6.84-5.48,12.21-12.02,12.05C301.71,262.93,296.41,257.36,296.42,249.85z"/>
	</g>
</g>
</svg>
