<svg id="Capa_1" data-name="Capa 1" xmlns="http://www.w3.org/2000/svg" viewBox="0 0 1282.22 654.22"><defs><style>.cls-1{fill:#fefefe;}.cls-2{fill:#c1c1c2;}.cls-3{fill:#fdfdfd;}.cls-4{fill:#bbbaba;}.cls-5{fill:#f0f0f0;}</style></defs><path class="cls-1" d="M8.1,420.89q0-148-.1-295.91c0-3.42.67-4.09,4.09-4.09q285.91.17,571.82,0c3.42,0,4.09.67,4.09,4.09q-.16,295.9,0,591.82c0,3.42-.67,4.09-4.09,4.09q-285.91-.17-571.82,0c-3.42,0-4.09-.67-4.09-4.09Q8.18,568.84,8.1,420.89Zm115,194c0,1.18-.12,2.48.9,3.26,6.57,5,11.54,11.76,18.14,16.82a321.62,321.62,0,0,0,33.63,22.83c8.95,5.22,18.51,9.07,27.81,13.47,4,1.88,7.65,4.82,12.14,5.46a67.2,67.2,0,0,1,16.94,5.23,31.07,31.07,0,0,0,13.52,2.85c1.26-.06,3.58-.55,1.91-1.91-5.23-4.25-1.41-3.73,1.77-4.38,1.56-.31,2.75-2.17,2.9-3.75.18-1.94-2.19-5-2.56-4.34-2.8,5-4.93,2.25-7.37,0a1.62,1.62,0,0,0-1.27.1c-.87,5.26-6.14,1.33-8.39,4-.76.9-2.75.43-3.57-.77-2-3-3.64-6.52-8.16-3.13-.33.25-1.69-.78-2.52-1.29a8.35,8.35,0,0,0-6.17-1.3c-8.27,1.48-14.57-2.33-17.09-10-1.13-3.43.72-4.78,3.37-4,3.76,1.06,7.2-.38,10.78-.4,1.89,0,3.76-1.4,5.67.14,1.62,1.31,3.19,1.44,4.87-.16,1.26-1.21,2.78-.89,4.06.19,1.08.91,1.91,1.93.77,3.39-.73.93-1.57,2-.48,3.08s2.55.69,3.83.41c1.83-.41,1.7-1.93,1.22-3.19-.67-1.74-.37-3.15,1.38-3.59,2.76-.69,5.94-4.26,8-2,3.3,3.62,7.17,3,9.87,1.59,3.78-1.92,9.08.94,11.75-4.15.63-1.19,1.95,0,2.24,1.37.81,3.87,3,4.28,6.67,3.51,2.89-.59,6,0,8.55-2.12,2.66,3.49,5.78.84,8.77.76,7.91-.23,15.82,0,23.75-.6,2.23-.19,5.15-.83,7.59.45,4.51,2.35,13,.51,15.91-3.75,1.66,3.76,4.24,5.48,8.27,3.9.53-.21,1.32.32,1.94.21,4.68-.81,9,1.64,13.84,1.29,2.61-.19,5.31-1.89,8.26-.61,4.85,2.1,12.55-.24,15.87-4.61.88,3.08,1.6,6.57,5.77,3.18a2.14,2.14,0,0,1,2.78.12c3.59,2.93,8.38-2.56,11.78,1.7a3.08,3.08,0,0,0,.81-.49c1.25-1,2.48-2.85,4.16-1,1.41,1.54,3.08,3.35,1.86,5.77-1.75,3.46,2.09,4.43,3.09,6.6.85,1.84,3.65.7,5.39-.31,4.59-2.65,9.06-5.5,13.67-8.12,10.3-5.84,19-13.75,28-21.31,7.27-6.14,15.62-11.56,19.2-21.16a17,17,0,0,0,3.15-2.34c6.5-7.78,13.41-15.19,19.69-23.18,31.77-40.39,52.52-85.51,59.35-136.7a280,280,0,0,0-.45-79.38,256.41,256.41,0,0,0-26.87-81.38c-19.9-38-48.33-68.67-83.28-93.23-20-14.07-41.83-24.65-65.12-32.67-24-8.25-48.33-13.28-73.47-14.17-16.27-.59-32.6-1.18-48.87,2.43-7.4,1.65-15.38,1.87-22.83,3.48-48.4,10.47-90.17,33.71-126.07,67.55-12.56,11.85-23.48,25.24-33.49,39.32-20.74,29.17-33.82,61.74-41.34,96.53-6.56,30.34-7.1,61.13-2.88,91.77,6.15,44.64,23.42,85,49.42,121.72,7.09,10,15.31,19.13,23.43,28.28C113.42,606.81,117.19,612.05,123.07,614.87ZM408.7,668.64l-.49-1.43a4.88,4.88,0,0,0-1.4-.35c-5.86.2-11.46,1-16.59,4.38-1.79,1.16-4.27,1.42-6.39,2.32-3.14,1.34-2.95-3.39-5.2-3.44-2.76-.07-1.1,5.43-4.09,4.36-3.44-1.23-6.93,1.5-10.08-.88-.86-.64-1.89-.76-2.5.45-.28.57-.7,1.34-.52,1.81.49,1.3,1.58.78,2.51.48,2.15-.7,3.3.74,3.71,2.31.61,2.37-1.55,1.77-2.85,2.24-4.17,1.49-8.26,3.18-12.38,4.8l.59,1.56C372.35,683.36,391.56,679.1,408.7,668.64ZM279.55,690.8c1.1,0,2.72-.08,3.17-1.9.51-2.08-1.36-2.41-2.66-2.93-2.32-.94-4.8-1-7.28-1.27-3-.29-5.76,1.88-8.78.62-1.09-.46-2.43-.86-2.72.86-.24,1.49,1.17,2.06,2.22,2.23C268.69,689.28,273.91,690,279.55,690.8Zm61.17-3.27a1.38,1.38,0,0,0-1.53-1.64,65.32,65.32,0,0,0-9.5.93c-1.18.25-2.93,1-3.3,2.7-.22.94.77,1.32,1.5,1.69,1.57.8,11.6-1.53,12.51-2.92A3.92,3.92,0,0,0,340.72,687.53Zm-30.18-12.38c2.94-.6,6.14,3.45,8,.13.92-1.59-1.83-4.45-3.78-5.08C310.89,668.93,312.67,673.81,310.54,675.15Zm13.39.59c.55-.06,1.91.12,1.6-1.38-.38-1.81-1.25-3.64-3.23-4-1.35-.27-1.24,1.2-1.28,2.14C320.93,674.25,321.08,675.9,323.93,675.74Zm-56.82.93c.8-.72,2.83-.52,2.7-2.63a2.86,2.86,0,0,0-2.48-2.76c-1.65-.11-1.92,1.61-2.18,2.86S265,676.53,267.11,676.67Zm87.65-5.33c-.2,1.82-2.58,3.54-.47,5.23.79.63,2.61.64,3.15-.45C358.57,673.8,356.31,672.75,354.76,671.34Zm-77.1,3.17c-.41-1-.61-2.32-2-2.49a2.06,2.06,0,0,0-2.42,1.87c-.22,1.23.53,1.82,1.67,1.85S277.28,676.13,277.66,674.51ZM347.88,672c-1.32-.06-1.8.65-1.8,1.81,0,1.51.94,2,2.25,2,.95,0,2.31.11,2.18-1.23A3.13,3.13,0,0,0,347.88,672Zm-54.25,2.22c-.6-.77-1.14-1.87-2.43-2-.84-.09-1.11.66-1,1.32a2.21,2.21,0,0,0,2.29,2.12C293.23,675.68,293.62,675.2,293.63,674.22Zm110.22-15.75c0-.85-.21-1.76-1.14-1.92-1.35-.22-1.57.91-1.66,1.88-.07.77-.14,1.8,1,1.91S403.62,659.48,403.85,658.47ZM315,690.76c1.72,1.33,3,1.23,5.18,0C318.17,689.68,316.9,689.5,315,690.76Zm-59.45-6.6c-1,.05-1.43.52-1.39,1.24a1.22,1.22,0,0,0,1.23,1.23c.72,0,1.34-.4,1.17-1.14C256.46,685,255.87,684.52,255.58,684.16Zm89.59,4.59c.59-.17,1.46-.13,1.26-1.07-.16-.74-.91-.86-1.57-.77s-1.47.1-1.27,1.05C343.75,688.7,344.5,688.75,345.17,688.75Zm-136.5-28.19c-.28-.12-.62-.39-.82-.31s-.26.51-.38.79c.28.11.62.39.82.31S208.55,660.84,208.67,660.56Zm51,13c-.28-.12-.62-.39-.82-.31s-.25.51-.37.78c.27.12.61.39.81.31S259.53,673.84,259.65,673.56Zm79.92,0-.83-.35c-.12.27-.39.61-.32.81s.51.26.79.38Z" transform="translate(-8 -120.89)"/><path class="cls-2" d="M123.07,614.87c-5.88-2.82-9.65-8.06-13.76-12.69C101.19,593,93,583.92,85.88,573.9c-26-36.7-43.27-77.08-49.42-121.72-4.22-30.64-3.68-61.43,2.88-91.77,7.52-34.79,20.6-67.36,41.34-96.53,10-14.08,20.93-27.47,33.49-39.32,35.9-33.84,77.67-57.08,126.07-67.55,7.45-1.61,15.43-1.83,22.83-3.48,16.27-3.61,32.6-3,48.87-2.43,25.14.89,49.52,5.92,73.47,14.17,23.29,8,45.09,18.6,65.12,32.67,35,24.56,63.38,55.23,83.28,93.23a256.41,256.41,0,0,1,26.87,81.38,280,280,0,0,1,.45,79.38c-6.83,51.19-27.58,96.31-59.35,136.7-6.28,8-13.19,15.4-19.69,23.18a17,17,0,0,1-3.15,2.34L438,596.73v0c-1.61-2.67-4.89-2.08-7.07-3.63l-9.87-4.46c-10.82-5.5-21.61-11.06-32.46-16.48-4.27-2.14-6.21-5.4-6.84-10.15-1.35-10.12-.73-20.27-1.08-30.4-.21-5.88-.48-11.66,5.13-15.66,1-.71,1.56-2.12,2.15-3.3,5.76-11.45,10.91-23.11,11.89-36.14.1-1.34,0-2.41,2.18-2.24,7.34.53,11.26-2.09,13.67-9.24,2.12-6.28,3.14-13,5.8-19,4.93-11.18,9-22.41,10-34.73a85.64,85.64,0,0,0-1.92-25.16c-.28-1.27-.36-3.05-2.51-3.22-2-.15-3.06.76-4,2.3-1.71,2.77-3.53,5.47-5.66,8.76a9,9,0,0,1-.21-2.15c8.47-31.44,12.46-63.38,10.74-95.95-.8-15.11-6.23-28.3-16.84-39.23-1.16-1.19-2.33-2.37-3.47-3.59a1.79,1.79,0,0,1-.32-2.28c.39-.62,1.09-.42,1.78-.28,1.34.26,3.08,1.33,3.72-.89.5-1.76-.55-3.15-1.63-4.48-7.39-9-16.79-14.87-27.9-18.3-9.38-2.89-19-4.52-29.86-6.44,2.41-1.19,3.76-1.74,5-2.48,2-1.2,6.15-.39,6-3.23-.17-2.47-4-3.11-6.46-3.88-24.38-7.49-48.42-6.72-72.06,3.18-1.79.75-3.45,2.46-6.27,1.44a27.31,27.31,0,0,1,2-2.08c1.16-1,2.68-2,2-3.61-.63-1.4-2.38-.58-3.64-.75-4-.56-7.9.65-11.83,1.12-8.34,1-16.85,1.38-24.69,4.92-5,2.26-10.09,4.66-12.07,10.26-1.51,4.29-3.46,6.31-8,3.81a11.62,11.62,0,0,0-3.87-.84c-8.06-1.17-18.14,1.46-21.35,8.49,3.11.86,6.14-.67,10.82-.55-12.17,6.65-23.31,12.46-29.74,24,3.2,1.63,5.94-.83,8.64.11.07,1.92-1.25,2.67-2.21,3.41-8.78,6.69-12.21,16.18-13.75,26.55-1.22,8.26-.28,16.53.1,24.84A295.34,295.34,0,0,0,182,378.76c1.28,4.74,2.52,9.48,4,15.17a12,12,0,0,1-3.76-5.9c-1-2.83-2.93-4.84-5.71-4.84-3.23,0-3.63,3.35-3.91,5.59-1.48,11.76-1.72,23.67,1.19,35.16,3.54,13.95,11.86,26.3,14.63,40.63a15.46,15.46,0,0,0,2.67,5.33c1.81,2.7,4.38,5.55,7.61,4.72,5.29-1.37,5.55,1.72,6,5.2.11.82.18,1.65.32,2.47,2.12,12.64,5.17,24.9,13.8,35a13.56,13.56,0,0,1,3.26,10c-.2,3.8-1.38,7.75-.83,11.29,1.08,6.84-.15,13.46-.48,20.14-.21,4.11.2,9.23-4.13,11.58-8.27,4.5-16.07,9.85-24.73,13.67-5.15,2.28-10,5.13-15.05,7.72l-17.92,8.18Z" transform="translate(-8 -120.89)"/><path class="cls-3" d="M123.07,614.87l36-15c-.21,1.88.7,4.05-1.72,5.28-7.77,4-15.73,7.33-24.43,8.67-1.25.2-3.56-.87-3.28,1.65.21,1.87,0,4.44,3.46,4.38,7.21-.12,14.4-.28,21.13,3.45,1.28.71,3.64-.36,3.75,2.31s-1.81,3.15-4,3.23a3.75,3.75,0,0,0-3.65,2.91,3.07,3.07,0,0,0,2.54,3.74c3.55.74,5.08,3.56,7,6,.85,1.08,1.51,2.28,3,2.25,4.49-.1,9.16,1.45,13.32.76,9.75-1.62,19.47,0,29.13-.17,10.18-.16,20.53-.59,30.84.26,11.16.92,22.47-.18,33.68.31,14.13.61,28.23-.68,42.39.34,10.81.77,21.8-.17,32.65-1,9.54-.76,19,.14,28.43.57,8.66.4,17.31-.24,25.94-.35,5-.06,10.32-.87,15.08-.25,9.93,1.29,19.47-.09,29.14-1.35,1.61-.2,3.36-.55,3.27-2.34-.25-4.94,2.58-5.87,6.6-5.78a2.38,2.38,0,0,0,2.43-2.11c.2-1,.18-2.39-1-2.46-2.6-.17-5.07-2.15-7.75-.82-5,2.48-9.61.76-14.17-1.23-1.05-.47-1.87-1.44-3.11-.52-3.31,2.45-6.67-.53-10.07,0-1.71.29-1.71-1.65-1.71-3,0-1.19.06-2.42,1.62-2.65s2.1.55,2.36,1.92c.51,2.66,2.83,1.54,3.37.81,3.33-4.46,8.66-1.56,12.67-3.7a7.31,7.31,0,0,1,6.26.29c2.68,1.76,4.58,3.64,7.69.68.9-.85,2.89,0,3.81,1.48.73,1.16,1.9,1.88,2.8.64,2.63-3.62,6.74-4,10.5-5.09,1.53-.45,2.87-.6,2.87-2.67a3,3,0,0,0-3.06-3.28c-3.34-.15-6-1.89-8.84-3.16-2.55-1.14-4.83-3.29-7.81-3-7.71.67-13.15-1.62-14.21-10.15l40.92,17.42c-3.58,9.6-11.93,15-19.2,21.16-9,7.56-17.71,15.47-28,21.31-4.61,2.62-9.08,5.47-13.67,8.12-1.74,1-4.54,2.15-5.39.31-1-2.17-4.84-3.14-3.09-6.6,1.22-2.42-.45-4.23-1.86-5.77-1.68-1.86-2.91,0-4.16,1a3.08,3.08,0,0,1-.81.49c-3.4-4.26-8.19,1.23-11.78-1.7a2.14,2.14,0,0,0-2.78-.12c-4.17,3.39-4.89-.1-5.77-3.18-3.32,4.37-11,6.71-15.87,4.61-2.95-1.28-5.65.42-8.26.61-4.84.35-9.16-2.1-13.84-1.29-.62.11-1.41-.42-1.94-.21-4,1.58-6.61-.14-8.27-3.9-2.95,4.26-11.4,6.1-15.91,3.75-2.44-1.28-5.36-.64-7.59-.45-7.93.64-15.84.37-23.75.6-3,.08-6.11,2.73-8.77-.76-2.53,2.14-5.66,1.53-8.55,2.12-3.67.77-5.86.36-6.67-3.51-.29-1.39-1.61-2.56-2.24-1.37-2.67,5.09-8,2.23-11.75,4.15-2.7,1.38-6.57,2-9.87-1.59-2.1-2.31-5.28,1.26-8,2-1.75.44-2,1.85-1.38,3.59.48,1.26.61,2.78-1.22,3.19-1.28.28-2.78.58-3.83-.41s-.25-2.15.48-3.08c1.14-1.46.31-2.48-.77-3.39-1.28-1.08-2.8-1.4-4.06-.19-1.68,1.6-3.25,1.47-4.87.16-1.91-1.54-3.78-.16-5.67-.14-3.58,0-7,1.46-10.78.4-2.65-.75-4.5.6-3.37,4,2.52,7.65,8.82,11.46,17.09,10a8.35,8.35,0,0,1,6.17,1.3c.83.51,2.19,1.54,2.52,1.29,4.52-3.39,6.13.16,8.16,3.13.82,1.2,2.81,1.67,3.57.77,2.25-2.67,7.52,1.26,8.39-4a1.62,1.62,0,0,1,1.27-.1c2.44,2.26,4.57,5,7.37,0,.37-.67,2.74,2.4,2.56,4.34-.15,1.58-1.34,3.44-2.9,3.75-3.18.65-7,.13-1.77,4.38,1.67,1.36-.65,1.85-1.91,1.91a31.07,31.07,0,0,1-13.52-2.85,67.2,67.2,0,0,0-16.94-5.23c-4.49-.64-8.16-3.58-12.14-5.46-9.3-4.4-18.86-8.25-27.81-13.47A321.62,321.62,0,0,1,142.11,635c-6.6-5.06-11.57-11.78-18.14-16.82C123,617.35,123.05,616.05,123.07,614.87Z" transform="translate(-8 -120.89)"/><path class="cls-3" d="M408.7,668.64c-17.14,10.46-36.35,14.72-55.68,18.61l-.59-1.56c4.12-1.62,8.21-3.31,12.38-4.8,1.3-.47,3.46.13,2.85-2.24-.41-1.57-1.56-3-3.71-2.31-.93.3-2,.82-2.51-.48-.18-.47.24-1.24.52-1.81.61-1.21,1.64-1.09,2.5-.45,3.15,2.38,6.64-.35,10.08.88,3,1.07,1.33-4.43,4.09-4.36,2.25,0,2.06,4.78,5.2,3.44,2.12-.9,4.6-1.16,6.39-2.32,5.13-3.34,10.73-4.18,16.59-4.38a4.88,4.88,0,0,1,1.4.35Z" transform="translate(-8 -120.89)"/><path class="cls-3" d="M279.55,690.8c-5.64-.82-10.86-1.52-16.05-2.39-1.05-.17-2.46-.74-2.22-2.23.29-1.72,1.63-1.32,2.72-.86,3,1.26,5.77-.91,8.78-.62,2.48.25,5,.33,7.28,1.27,1.3.52,3.17.85,2.66,2.93C282.27,690.72,280.65,690.8,279.55,690.8Z" transform="translate(-8 -120.89)"/><path class="cls-3" d="M340.72,687.53a3.92,3.92,0,0,1-.32.76c-.91,1.39-10.94,3.72-12.51,2.92-.73-.37-1.72-.75-1.5-1.69.37-1.65,2.12-2.45,3.3-2.7a65.32,65.32,0,0,1,9.5-.93A1.38,1.38,0,0,1,340.72,687.53Z" transform="translate(-8 -120.89)"/><path class="cls-3" d="M310.54,675.15c2.13-1.34.35-6.22,4.26-4.95,1.95.63,4.7,3.49,3.78,5.08C316.68,678.6,313.48,674.55,310.54,675.15Z" transform="translate(-8 -120.89)"/><path class="cls-3" d="M323.93,675.74c-2.85.16-3-1.49-2.91-3.27,0-.94-.07-2.41,1.28-2.14,2,.39,2.85,2.22,3.23,4C325.84,675.86,324.48,675.68,323.93,675.74Z" transform="translate(-8 -120.89)"/><path class="cls-3" d="M267.11,676.67c-2.08-.14-2.21-1.34-2-2.53s.53-3,2.18-2.86a2.86,2.86,0,0,1,2.48,2.76C269.94,676.15,267.91,676,267.11,676.67Z" transform="translate(-8 -120.89)"/><path class="cls-3" d="M354.76,671.34c1.55,1.41,3.81,2.46,2.68,4.78-.54,1.09-2.36,1.08-3.15.45C352.18,674.88,354.56,673.16,354.76,671.34Z" transform="translate(-8 -120.89)"/><path class="cls-3" d="M277.66,674.51c-.38,1.62-1.67,1.26-2.75,1.23s-1.89-.62-1.67-1.85a2.06,2.06,0,0,1,2.42-1.87C277.05,672.19,277.25,673.47,277.66,674.51Z" transform="translate(-8 -120.89)"/><path class="cls-3" d="M347.88,672a3.13,3.13,0,0,1,2.63,2.54c.13,1.34-1.23,1.23-2.18,1.23-1.31,0-2.25-.45-2.25-2C346.08,672.65,346.56,671.94,347.88,672Z" transform="translate(-8 -120.89)"/><path class="cls-3" d="M293.63,674.22c0,1-.4,1.46-1.17,1.43a2.21,2.21,0,0,1-2.29-2.12c-.08-.66.19-1.41,1-1.32C292.49,672.35,293,673.45,293.63,674.22Z" transform="translate(-8 -120.89)"/><path class="cls-3" d="M403.85,658.48c-.23,1-.6,2-1.84,1.86s-1-1.14-1-1.91c.09-1,.31-2.1,1.66-1.88C403.64,656.71,403.82,657.62,403.85,658.48Z" transform="translate(-8 -120.89)"/><path class="cls-3" d="M315,690.76c1.87-1.26,3.14-1.08,5.18,0C318,692,316.75,692.09,315,690.76Z" transform="translate(-8 -120.89)"/><path class="cls-3" d="M255.58,684.16c.29.36.88.8,1,1.33.17.74-.45,1.17-1.17,1.14a1.22,1.22,0,0,1-1.23-1.23C254.15,684.68,254.54,684.21,255.58,684.16Z" transform="translate(-8 -120.89)"/><path class="cls-3" d="M345.16,688.74c-.66,0-1.41,0-1.57-.78-.2-1,.66-1,1.27-1.05s1.41,0,1.57.77C346.63,688.62,345.76,688.58,345.16,688.74Z" transform="translate(-8 -120.89)"/><path class="cls-3" d="M208.67,660.56c-.12.28-.18.71-.38.79s-.54-.2-.82-.31c.12-.28.18-.71.38-.79S208.39,660.44,208.67,660.56Z" transform="translate(-8 -120.89)"/><path class="cls-3" d="M259.65,673.56c-.12.28-.18.71-.38.78s-.54-.19-.81-.31c.12-.27.18-.71.37-.78S259.37,673.44,259.65,673.56Z" transform="translate(-8 -120.89)"/><path class="cls-3" d="M339.57,673.54l-.36.83c-.28-.12-.71-.18-.79-.38s.2-.54.32-.81Z" transform="translate(-8 -120.89)"/><path class="cls-3" d="M177,591.72c5-2.59,9.9-5.44,15.05-7.72,8.66-3.82,16.46-9.17,24.73-13.67,4.33-2.35,3.92-7.47,4.13-11.58.33-6.68,1.56-13.3.48-20.14-.55-3.54.63-7.49.83-11.29a13.56,13.56,0,0,0-3.26-10c-8.63-10.1-11.68-22.36-13.8-35-.14-.82-.21-1.65-.32-2.47-.47-3.48-.73-6.57-6-5.2-3.23.83-5.8-2-7.61-4.72a15.46,15.46,0,0,1-2.67-5.33c-2.77-14.33-11.09-26.68-14.63-40.63-2.91-11.49-2.67-23.4-1.19-35.16.28-2.24.68-5.59,3.91-5.59,2.78,0,4.71,2,5.71,4.84a12,12,0,0,0,3.76,5.9c-1.51-5.69-2.75-10.43-4-15.17a295.34,295.34,0,0,1-10.18-63.66c-.38-8.31-1.32-16.58-.1-24.84,1.54-10.37,5-19.86,13.75-26.55,1-.74,2.28-1.49,2.21-3.41-2.7-.94-5.44,1.52-8.64-.11,6.43-11.54,17.57-17.35,29.74-24-4.68-.12-7.71,1.41-10.82.55,3.21-7,13.29-9.66,21.35-8.49a11.62,11.62,0,0,1,3.87.84c4.57,2.5,6.52.48,8-3.81,2-5.6,7.06-8,12.07-10.26,7.84-3.54,16.35-3.91,24.69-4.92,3.93-.47,7.81-1.68,11.83-1.12,1.26.17,3-.65,3.64.75.72,1.62-.8,2.64-2,3.61a27.31,27.31,0,0,0-2,2.08c2.82,1,4.48-.69,6.27-1.44,23.64-9.9,47.68-10.67,72.06-3.18,2.49.77,6.29,1.41,6.46,3.88.2,2.84-3.92,2-6,3.23-1.24.74-2.59,1.29-5,2.48,10.83,1.92,20.48,3.55,29.86,6.44,11.11,3.43,20.51,9.29,27.9,18.3,1.08,1.33,2.13,2.72,1.63,4.48-.64,2.22-2.38,1.15-3.72.89-.69-.14-1.39-.34-1.78.28a1.79,1.79,0,0,0,.32,2.28c1.14,1.22,2.31,2.4,3.47,3.59,10.61,10.93,16,24.12,16.84,39.23,1.72,32.57-2.27,64.51-10.74,95.95a9,9,0,0,0,.21,2.15c2.13-3.29,3.95-6,5.66-8.76.94-1.54,2-2.45,4-2.3,2.15.17,2.23,1.95,2.51,3.22a85.64,85.64,0,0,1,1.92,25.16c-1,12.32-5,23.55-10,34.73-2.66,6-3.68,12.74-5.8,19-2.41,7.15-6.33,9.77-13.67,9.24-2.22-.17-2.08.9-2.18,2.24-1,13-6.13,24.69-11.89,36.14-.59,1.18-1.15,2.59-2.15,3.3-5.61,4-5.34,9.78-5.13,15.66.35,10.13-.27,20.28,1.08,30.4.63,4.75,2.57,8,6.84,10.15,10.85,5.42,21.64,11,32.45,16.48-4.35,2.49-8.82.35-12.74-.72-1.94-.53-5.43,1.25-6.23-1.9-.85-3.37-3.17-4-5.91-4.2-5.57-.44-10.77-2.23-15.94-4.14-2.8-1-3.13-3.34-1.22-5s1.31-2.9.62-4.68a31.69,31.69,0,0,1-1.65-6.22c-.64-3.75-2.6-4.32-6.08-3.49-5.71,1.35-8.6,6.67-13.58,9-1.13.53-2.5,1.55-1.89,3.1s2.33,3.11,3.91,2.29c3.12-1.62,6.14.54,9.22-.45,2.76-.89,3.39,1.24,3.38,3.48s0,5.95-3,4.8-9,3.64-9.42-3.85c0-.23-1-.69-1.19-.56-3.4,2.78-8.14-.28-11.55,2.81-3,2.72-6.82,3.23-10.75,2.94a11.16,11.16,0,0,0-7.17,1.56c-5.75,3.8-11.9,5.47-18.92,5.89-2.93.18-6.73-.54-9.72,1.71a8.39,8.39,0,0,1-10.19.52,4.15,4.15,0,0,0-4.72-.13c-1.86,1.37-3.21,1.34-4.69-.36-1.1-1.27-2.66-1.16-4.17-1.19-9.31-.21-18.5-.64-27.06-5.24-5.37-2.88-12.36-2.29-16.56-8-1.08-1.48-3.47-1.24-3.8,1.61-.1.94-.17,2.66-1.29,2.16-4.08-1.81-7.31,1.6-11,1.45a38.18,38.18,0,0,0-15.07,2.65c-6.91,2.56-13.43,6.33-21,6.81C180.11,591.33,178.83,594.05,177,591.72ZM278.63,216.23l-.23.3.37.05Z" transform="translate(-8 -120.89)"/><path class="cls-1" d="M177,591.72c1.86,2.33,3.14-.39,4.68-.49,7.62-.48,14.14-4.25,21-6.81a38.18,38.18,0,0,1,15.07-2.65c3.66.15,6.89-3.26,11-1.45,1.12.5,1.19-1.22,1.29-2.16.33-2.85,2.72-3.09,3.8-1.61,4.2,5.75,11.19,5.16,16.56,8,8.56,4.6,17.75,5,27.06,5.24,1.51,0,3.07-.08,4.17,1.19,1.48,1.7,2.83,1.73,4.69.36a4.15,4.15,0,0,1,4.72.13,8.39,8.39,0,0,0,10.19-.52c3-2.25,6.79-1.53,9.72-1.71,7-.42,13.17-2.09,18.92-5.89a11.16,11.16,0,0,1,7.17-1.56c3.93.29,7.76-.22,10.75-2.94,3.41-3.09,8.15,0,11.55-2.81.15-.13,1.17.33,1.19.56.41,7.49,6.32,2.68,9.42,3.85s3-2.49,3-4.8-.62-4.37-3.38-3.48c-3.08,1-6.1-1.17-9.22.45-1.58.82-3.27-.65-3.91-2.29s.76-2.57,1.89-3.1c5-2.31,7.87-7.63,13.58-9,3.48-.83,5.44-.26,6.08,3.49a31.69,31.69,0,0,0,1.65,6.22c.69,1.78,1.31,3-.62,4.68s-1.58,4,1.22,5c5.17,1.91,10.37,3.7,15.94,4.14,2.74.21,5.06.83,5.91,4.2.8,3.15,4.29,1.37,6.23,1.9,3.92,1.07,8.39,3.21,12.74.72l9.88,4.46c.6,5.53,2.52,6.51,7.07,3.63v0c1.06,8.53,6.5,10.82,14.21,10.15,3-.27,5.26,1.88,7.81,3,2.87,1.27,5.5,3,8.84,3.16a3,3,0,0,1,3.06,3.28c0,2.07-1.34,2.22-2.87,2.67-3.76,1.09-7.87,1.47-10.5,5.09-.9,1.24-2.07.52-2.8-.64-.92-1.49-2.91-2.33-3.81-1.48-3.11,3-5,1.08-7.69-.68A7.31,7.31,0,0,0,438,621c-4,2.14-9.34-.76-12.67,3.7-.54.73-2.86,1.85-3.37-.81-.26-1.37-.92-2.12-2.36-1.92s-1.62,1.46-1.62,2.65c0,1.34,0,3.28,1.71,3,3.4-.57,6.76,2.41,10.07,0,1.24-.92,2.06,0,3.11.52,4.56,2,9.17,3.71,14.17,1.23,2.68-1.33,5.15.65,7.75.82,1.15.07,1.17,1.45,1,2.46a2.38,2.38,0,0,1-2.43,2.11c-4-.09-6.85.84-6.6,5.78.09,1.79-1.66,2.14-3.27,2.34-9.67,1.26-19.21,2.64-29.14,1.35-4.76-.62-10.11.19-15.08.25-8.63.11-17.28.75-25.94.35-9.46-.43-18.89-1.33-28.43-.57-10.85.87-21.84,1.81-32.65,1-14.16-1-28.26.27-42.39-.34-11.21-.49-22.52.61-33.68-.31-10.31-.85-20.66-.42-30.84-.26-9.66.15-19.38-1.45-29.13.17-4.16.69-8.83-.86-13.32-.76-1.53,0-2.19-1.17-3-2.25-1.91-2.43-3.44-5.25-7-6a3.07,3.07,0,0,1-2.54-3.74,3.75,3.75,0,0,1,3.65-2.91c2.2-.08,4.13-.46,4-3.23s-2.47-1.6-3.75-2.31c-6.73-3.73-13.92-3.57-21.13-3.45-3.41.06-3.25-2.51-3.46-4.38-.28-2.52,2-1.45,3.28-1.65,8.7-1.34,16.66-4.72,24.43-8.67,2.42-1.23,1.51-3.4,1.72-5.28Zm-3.06,33c-1.89-1-3.29-.59-4.27.76a1.24,1.24,0,0,0,.88,1.91c3.09,0,5.54,2.94,8.43,2.34,7.93-1.64,16,1.17,23.85-.83a28.19,28.19,0,0,1,7.33-.82c6.46.11,12.92.53,19.39.72,2.4.07,2.77-1.08,1.74-3.2-1.74-3.56-4.81-4.16-8.93-3.47-5.15.87-10.94,7.47-15.74-.8-.22-.38-1.24-.5-1.86-.44-8.62.78-17.62-2.2-25.85,2.74C177.43,624.48,175.4,624.4,173.91,624.7Zm80.37,2.7,22.2,1.35c1.34.08,2.75.3,3.73-.87,1.23-1.46-.48-2.34-.79-3.51-.62-2.24-2.09-2.78-4.14-2.54-3.82.43-8.06-1.35-11.28,2.3-.8.9-1.76-.14-2.68-.37-4.95-1.19-9.92-3.3-15-2.72-3.85.44-7.51,2.07-11.54.86-.95-.29-2.68-.25-2.28,1.6.62,2.85,1.56,5.94,5.38,5.11C243.63,627.36,249.63,630.1,254.28,627.4Zm77.24-.33c4.46,0,8.54,1.44,12.78,1.89,8.5.89,16.91-1.88,25.39-.24a2.54,2.54,0,0,0,3.08-1.91,2.94,2.94,0,0,0-.75-3.22c-1.24-1.08-2.4-.66-3.57.27-.83.66-1.37,2-3.23,1.22.25-1.32,1.12-3.06-1.65-3.32-4.13-.38-8.22.25-12.31,0-3.57-.21-6.95,4.62-10.65.39a4.83,4.83,0,0,0-1.21.76A26.48,26.48,0,0,1,331.52,627.07Zm60.31-6.17c-3.49-1-5.34,2-7.7,3.6-1.8,1.22-.38,2.41.95,2.8,8.44,2.45,16.93,3.2,25.46.38,2.11-.69,1.27-2.85,2-4.25.44-.89-.36-1.4-1.38-1.45C404.72,621.64,398.32,621.27,391.83,620.9Zm-77.34,7.92c2.44,0,4.43-.12,6.41,0,4.12.31,3.73-3.63,4.31-5.5.78-2.48-2.34-.94-3.58-1.58-3.29-1.7-7.63-1.18-9.39.6-3.08,3.12-6.19,2.23-9.43,2.38a8.49,8.49,0,0,1-2.38-.63,2.41,2.41,0,0,0-3,1.12,2.1,2.1,0,0,0,.07,2.34c.81,1.23,1.86,1.06,3,.48s2.33-1.45,3.72-.57C307.61,629.61,311.35,628.56,314.49,628.82Zm-23.13-5.58c-1,.51-2.33.89-2.27,2.58,0,1.13.54,1.83,1.72,1.89,1.76.1,2.21-1,2.15-2.48C292.93,624.26,293,623.21,291.36,623.24Zm-9.12,1.14c1.05.1,1.58-.15,1.58-1s-.28-1.29-1.06-1.36-1.43.07-1.31,1A3.92,3.92,0,0,0,282.24,624.38Zm16.6-19.53c-.53-.38-.85-.79-1.19-.8s-1,.26-1.12.54c-.22.79.41,1.1,1.07,1C298,605.6,298.29,605.21,298.84,604.85Z" transform="translate(-8 -120.89)"/><path class="cls-3" d="M438,596.75c-4.55,2.88-6.47,1.9-7.07-3.63C433.13,594.67,436.41,594.08,438,596.75Z" transform="translate(-8 -120.89)"/><polygon class="cls-2" points="270.63 95.34 270.77 95.69 270.4 95.64 270.63 95.34"/><path class="cls-3" d="M173.91,624.7c1.49-.3,3.52-.22,5-1.09,8.23-4.94,17.23-2,25.85-2.74.62-.06,1.64.06,1.86.44,4.8,8.27,10.59,1.67,15.74.8,4.12-.69,7.19-.09,8.93,3.47,1,2.12.66,3.27-1.74,3.2-6.47-.19-12.93-.61-19.39-.72a28.19,28.19,0,0,0-7.33.82c-7.9,2-15.92-.81-23.85.83-2.89.6-5.34-2.35-8.43-2.34a1.24,1.24,0,0,1-.88-1.91C170.62,624.11,172,623.75,173.91,624.7Z" transform="translate(-8 -120.89)"/><path class="cls-3" d="M254.28,627.4c-4.65,2.7-10.65,0-16.37,1.21-3.82.83-4.76-2.26-5.38-5.11-.4-1.85,1.33-1.89,2.28-1.6,4,1.21,7.69-.42,11.54-.86,5.05-.58,10,1.53,15,2.72.92.23,1.88,1.27,2.68.37,3.22-3.65,7.46-1.87,11.28-2.3,2.05-.24,3.52.3,4.14,2.54.31,1.17,2,2,.79,3.51-1,1.17-2.39,1-3.73.87Z" transform="translate(-8 -120.89)"/><path class="cls-3" d="M331.52,627.07a26.48,26.48,0,0,0,7.88-4.16,4.83,4.83,0,0,1,1.21-.76c3.7,4.23,7.08-.6,10.65-.39,4.09.25,8.18-.38,12.31,0,2.77.26,1.9,2,1.65,3.32,1.86.8,2.4-.56,3.23-1.22,1.17-.93,2.33-1.35,3.57-.27a2.94,2.94,0,0,1,.75,3.22,2.54,2.54,0,0,1-3.08,1.91c-8.48-1.64-16.89,1.13-25.39.24C340.06,628.51,336,627.11,331.52,627.07Z" transform="translate(-8 -120.89)"/><path class="cls-3" d="M391.83,620.9c6.49.37,12.89.74,19.29,1.08,1,0,1.82.56,1.38,1.45-.69,1.4.15,3.56-2,4.25-8.53,2.82-17,2.07-25.46-.38-1.33-.39-2.75-1.58-.95-2.8C386.49,622.9,388.34,619.91,391.83,620.9Z" transform="translate(-8 -120.89)"/><path class="cls-3" d="M314.49,628.82c-3.14-.26-6.88.79-10.23-1.34-1.39-.88-2.56,0-3.72.57s-2.22.75-3-.48a2.1,2.1,0,0,1-.07-2.34,2.41,2.41,0,0,1,3-1.12,8.49,8.49,0,0,0,2.38.63c3.24-.15,6.35.74,9.43-2.38,1.76-1.78,6.1-2.3,9.39-.6,1.24.64,4.36-.9,3.58,1.58-.58,1.87-.19,5.81-4.31,5.5C318.92,628.7,316.93,628.82,314.49,628.82Z" transform="translate(-8 -120.89)"/><path class="cls-3" d="M291.36,623.24c1.59,0,1.57,1,1.6,2,.06,1.48-.39,2.58-2.15,2.48-1.18-.06-1.68-.76-1.72-1.89C289,624.13,290.34,623.75,291.36,623.24Z" transform="translate(-8 -120.89)"/><path class="cls-3" d="M282.24,624.38a3.92,3.92,0,0,1-.79-1.39c-.12-.88.64-1,1.31-1s1.06.67,1.06,1.36S283.29,624.48,282.24,624.38Z" transform="translate(-8 -120.89)"/><path class="cls-3" d="M298.84,604.85c-.55.36-.88.75-1.24.78-.66.06-1.29-.25-1.07-1,.08-.28.74-.55,1.12-.54S298.31,604.47,298.84,604.85Z" transform="translate(-8 -120.89)"/><path class="cls-3" d="M966,775.06q-160.9,0-321.8.05c-1.9,0-2.39-.38-2.39-2.36q.08-321.81,0-643.62c0-2.21.58-2.46,2.57-2.46q321.66.09,643.34,0c2.06,0,2.52.37,2.52,2.49q-.09,321.69,0,643.37c0,2.33-.65,2.58-2.7,2.58Q1126.75,775,966,775.06ZM915.71,525.53c0-1-.74-1.52-1.32-2.15a142.16,142.16,0,0,1-26-40.38c-1.17-2.73-2.28-5.48-3.42-8.22a84.39,84.39,0,0,0,1.14,10.74,257.32,257.32,0,0,0,8.05,36.4,92.85,92.85,0,0,0,12.87,26.59c1.15,1.65.82,2.33-1,2.89a31,31,0,0,1-8.32,1.54,147,147,0,0,1-39.12-3.71c-11.34-2.68-22.37-6.23-31.88-13.34-5.8-4.35-9-9.52-7.14-17.29,5.56-23.62,10.74-47.34,16.17-71,4-17.3,7.22-34.75,10-52.27,2.57-16.16,4.07-32.48,6.7-48.64,2.73-16.84,7.26-33.05,15.65-48,6.55-11.67,14.58-22.11,26.09-29.41,6-3.79,12.36-5.91,19.56-4.61a28.94,28.94,0,0,1,11.33,4.61c.32-1.15-.47-1.67-.89-2.17-2-2.34-1.56-4.52.07-6.81a19.55,19.55,0,0,1,4.69-4.74c10.35-7.24,22.28-9.29,34.46-9.88A107.28,107.28,0,0,1,1006,252a93.68,93.68,0,0,1,42.39,30.88c16.54,21.15,25.08,45.58,28.9,71.85,1.9,13.05,3.29,26.19,5.29,39.23,3.18,20.68,7.42,41.15,12.06,61.56,4.77,21,10.4,41.78,13.39,63.15a14.88,14.88,0,0,1-4.12,13.22c-6.67,6.87-15.13,10.65-23.91,13.82a119.73,119.73,0,0,1-34.42,7.1c-7.17.38-14.45,1-21.57-.89-3.27-.87-3.48-1.27-1.65-4a93.73,93.73,0,0,0,10.37-20.4c5-14.24,7.55-29,9.91-43.88a27.64,27.64,0,0,0,.51-4.33c0-1.44.87-2.83.36-4.82-.51,1-.81,1.52-1,2.07A159.68,159.68,0,0,1,1014.81,523a6.36,6.36,0,0,0-1.65,4.63q.12,12,1,23.94c1.13,14.68,7.76,25.67,20.41,33.23,12.93,7.73,26.9,13,41,18.19,17.27,6.35,35,11.37,52.19,18,10.14,3.88,20.08,8.19,28.7,15,1.32,1,1.84.14,2.49-.6,3.68-4.2,7.46-8.33,11-12.67a276.66,276.66,0,0,0,39.55-65.32c14.68-34.07,21.68-69.75,22.19-106.75.08-6-.42-12-.77-18-.37-6.43-.81-12.84-1.59-19.24a267.93,267.93,0,0,0-9.88-46,273.2,273.2,0,0,0-44.16-85.77,265.06,265.06,0,0,0-51-51.18,258.77,258.77,0,0,0-81-41.79,248.56,248.56,0,0,0-65.78-11.22,283,283,0,0,0-29.41.37,262.64,262.64,0,0,0-30.62,3.93,256.61,256.61,0,0,0-56.2,17.6,266,266,0,0,0-52.9,31.41A271.38,271.38,0,0,0,766,271.33a275.89,275.89,0,0,0-32.31,47.75,269.32,269.32,0,0,0-25.56,69.22,262,262,0,0,0-6.24,45.6,276.05,276.05,0,0,0,6.94,78.55,270.17,270.17,0,0,0,30.95,76.71,277,277,0,0,0,33.83,45.75c1.38,1.52,2.32,1.67,4,.47a108.07,108.07,0,0,1,21.74-11.73c17.86-7.48,36.44-13,54.61-19.59,12.93-4.71,25.7-9.82,37.59-16.87,6.79-4,13-8.71,17.32-15.51,4.76-7.47,5.55-15.94,6.24-24.44,1.11,0,1.51.94,2.14,1.64,2.81,3.14,5.57,6.35,9,8.83,11.4,8.25,24.15,11,38,9.2,10-1.27,18.75-5.38,26.76-11.19s14.52-13.46,19.85-22c1.46-2.33,1.26-4.37,1.29-7.09-4.08,3.43-7.13,7.28-11,10.29-5.71,4.45-11.68,8.43-18.51,10.94a48.1,48.1,0,0,1-23.76,2.57,56.4,56.4,0,0,1-19.81-6.64,93.6,93.6,0,0,1-20.77-16.28C917.57,526.72,917,525.66,915.71,525.53Z" transform="translate(-8 -120.89)"/><path class="cls-4" d="M915.12,547.24c-.69,8.5-1.48,17-6.24,24.44-4.34,6.8-10.53,11.48-17.32,15.51-11.89,7-24.66,12.16-37.59,16.87-18.17,6.62-36.75,12.11-54.61,19.59a108.07,108.07,0,0,0-21.74,11.73c-1.67,1.2-2.61,1-4-.47a277,277,0,0,1-33.83-45.75,270.17,270.17,0,0,1-30.95-76.71,276.05,276.05,0,0,1-6.94-78.55,262,262,0,0,1,6.24-45.6,269.32,269.32,0,0,1,25.56-69.22A275.89,275.89,0,0,1,766,271.33a271.38,271.38,0,0,1,42.36-40.63,266,266,0,0,1,52.9-31.41,256.61,256.61,0,0,1,56.2-17.6,262.64,262.64,0,0,1,30.62-3.93,283,283,0,0,1,29.41-.37,248.56,248.56,0,0,1,65.78,11.22,258.77,258.77,0,0,1,81,41.79,265.06,265.06,0,0,1,51,51.18,273.2,273.2,0,0,1,44.16,85.77,267.93,267.93,0,0,1,9.88,46c.78,6.4,1.22,12.81,1.59,19.24.35,6,.85,12,.77,18-.51,37-7.51,72.68-22.19,106.75a276.66,276.66,0,0,1-39.55,65.32c-3.52,4.34-7.3,8.47-11,12.67-.65.74-1.17,1.63-2.49.6-8.62-6.77-18.56-11.08-28.7-15-17.19-6.59-34.92-11.61-52.19-18-14-5.16-28-10.46-41-18.19-12.65-7.56-19.28-18.55-20.41-33.23q-.91-12-1-23.94a6.36,6.36,0,0,1,1.65-4.63,159.68,159.68,0,0,0,27.69-46.56c.21-.55.51-1.06,1-2.07.51,2-.36,3.38-.36,4.82a27.64,27.64,0,0,1-.51,4.33c-2.36,14.84-4.86,29.64-9.91,43.88a93.73,93.73,0,0,1-10.37,20.4c-1.83,2.77-1.62,3.17,1.65,4,7.12,1.88,14.4,1.27,21.57.89a119.73,119.73,0,0,0,34.42-7.1c8.78-3.17,17.24-6.95,23.91-13.82a14.88,14.88,0,0,0,4.12-13.22c-3-21.37-8.62-42.17-13.39-63.15-4.64-20.41-8.88-40.88-12.06-61.56-2-13-3.39-26.18-5.29-39.23-3.82-26.27-12.36-50.7-28.9-71.85A93.68,93.68,0,0,0,1006,252a107.28,107.28,0,0,0-42.53-6.26c-12.18.59-24.11,2.64-34.46,9.88a19.55,19.55,0,0,0-4.69,4.74c-1.63,2.29-2,4.47-.07,6.81.42.5,1.21,1,.89,2.17a28.94,28.94,0,0,0-11.33-4.61c-7.2-1.3-13.58.82-19.56,4.61-11.51,7.3-19.54,17.74-26.09,29.41-8.39,14.95-12.92,31.16-15.65,48-2.63,16.16-4.13,32.48-6.7,48.64-2.79,17.52-6,35-10,52.27-5.43,23.65-10.61,47.37-16.17,71-1.82,7.77,1.34,12.94,7.14,17.29,9.51,7.11,20.54,10.66,31.88,13.34a147,147,0,0,0,39.12,3.71,31,31,0,0,0,8.32-1.54c1.79-.56,2.12-1.24,1-2.89a92.85,92.85,0,0,1-12.87-26.59,257.32,257.32,0,0,1-8.05-36.4A84.39,84.39,0,0,1,885,474.78c1.14,2.74,2.25,5.49,3.42,8.22a142.16,142.16,0,0,0,26,40.38c.58.63,1.3,1.18,1.32,2.15C915.46,532.76,915.82,540,915.12,547.24Z" transform="translate(-8 -120.89)"/><path class="cls-5" d="M915.12,547.24c.7-7.22.34-14.48.59-21.71,1.26.13,1.86,1.19,2.62,2a93.6,93.6,0,0,0,20.77,16.28,56.4,56.4,0,0,0,19.81,6.64,48.1,48.1,0,0,0,23.76-2.57c6.83-2.51,12.8-6.49,18.51-10.94,3.86-3,6.91-6.86,11-10.29,0,2.72.17,4.76-1.29,7.09-5.33,8.56-11.7,16.11-19.85,22s-16.79,9.92-26.76,11.19c-13.86,1.77-26.61-.95-38-9.2-3.43-2.48-6.19-5.69-9-8.83C916.63,548.18,916.23,547.29,915.12,547.24Z" transform="translate(-8 -120.89)"/></svg>