<?xml version="1.0" encoding="utf-8"?>
<!-- Generator: Adobe Illustrator 25.0.0, SVG Export Plug-In . SVG Version: 6.00 Build 0)  -->
<svg version="1.1" id="Capa_1" xmlns="http://www.w3.org/2000/svg" xmlns:xlink="http://www.w3.org/1999/xlink" x="0px" y="0px"
	 viewBox="0 0 595.28 841.89" style="enable-background:new 0 0 595.28 841.89;" xml:space="preserve">
<style type="text/css">
	.st0{fill:#FEFEFE;}
	.st1{fill:#C1C1C2;}
	.st2{fill:#FDFDFD;}
</style>
<g>
	<g>
		<path class="st0" d="M8.1,420.89c0-98.64,0.02-197.27-0.1-295.91c0-3.42,0.67-4.1,4.09-4.09c190.6,0.11,381.21,0.11,571.81,0
			c3.42,0,4.1,0.67,4.09,4.09c-0.11,197.27-0.11,394.54,0,591.81c0,3.42-0.67,4.1-4.09,4.09c-190.6-0.11-381.21-0.11-571.81,0
			c-3.42,0-4.1-0.67-4.09-4.09C8.12,618.16,8.1,519.53,8.1,420.89z M123.07,614.87c-0.01,1.18-0.11,2.48,0.9,3.25
			c6.57,5.04,11.54,11.76,18.15,16.82c10.78,8.27,21.88,15.98,33.63,22.83c8.95,5.22,18.51,9.07,27.81,13.47
			c3.98,1.88,7.65,4.81,12.14,5.45c5.95,0.85,11.44,2.89,16.95,5.23c4.21,1.79,8.77,3.07,13.52,2.85c1.26-0.06,3.58-0.56,1.91-1.91
			c-5.23-4.25-1.41-3.73,1.77-4.38c1.56-0.31,2.75-2.17,2.89-3.76c0.18-1.93-2.18-5-2.56-4.34c-2.8,4.99-4.93,2.25-7.37-0.01
			c-0.22-0.21-1.25-0.01-1.27,0.1c-0.87,5.26-6.14,1.34-8.39,4.01c-0.76,0.9-2.75,0.42-3.56-0.77c-2.03-2.97-3.64-6.52-8.17-3.13
			c-0.33,0.25-1.69-0.78-2.52-1.3c-1.91-1.18-3.86-1.7-6.16-1.29c-8.27,1.47-14.58-2.34-17.1-9.98c-1.13-3.43,0.72-4.78,3.37-4.03
			c3.76,1.07,7.2-0.38,10.78-0.4c1.89-0.01,3.76-1.39,5.67,0.14c1.63,1.31,3.19,1.44,4.87-0.16c1.26-1.21,2.78-0.89,4.07,0.19
			c1.08,0.91,1.91,1.93,0.76,3.39c-0.73,0.93-1.57,2.04-0.47,3.08c1.04,0.99,2.55,0.7,3.82,0.41c1.83-0.41,1.7-1.93,1.22-3.19
			c-0.67-1.74-0.37-3.15,1.38-3.59c2.76-0.69,5.93-4.26,8.04-1.95c3.3,3.62,7.17,2.97,9.87,1.6c3.79-1.93,9.08,0.93,11.75-4.16
			c0.63-1.19,1.95-0.02,2.24,1.37c0.8,3.87,3,4.27,6.67,3.51c2.89-0.6,6.02,0.01,8.54-2.12c2.67,3.49,5.79,0.84,8.77,0.75
			c7.91-0.22,15.82,0.05,23.76-0.6c2.23-0.18,5.14-0.82,7.58,0.45c4.51,2.35,12.96,0.51,15.91-3.74c1.66,3.76,4.23,5.48,8.26,3.89
			c0.54-0.21,1.32,0.32,1.94,0.21c4.68-0.81,9,1.64,13.84,1.29c2.62-0.19,5.31-1.89,8.26-0.61c4.85,2.1,12.56-0.23,15.87-4.6
			c0.89,3.08,1.61,6.57,5.77,3.18c0.85-0.69,1.94-0.57,2.78,0.12c3.58,2.93,8.38-2.57,11.78,1.69c0.03,0.04,0.56-0.28,0.81-0.48
			c1.25-0.98,2.47-2.85,4.16-1c1.41,1.55,3.08,3.35,1.86,5.77c-1.75,3.46,2.09,4.43,3.09,6.6c0.85,1.84,3.64,0.69,5.39-0.31
			c4.59-2.65,9.06-5.51,13.67-8.12c10.3-5.84,19.05-13.76,28.01-21.31c7.27-6.14,15.62-11.56,19.2-21.16
			c1.06-0.77,2.33-1.37,3.15-2.35c6.51-7.77,13.42-15.19,19.7-23.17c31.77-40.39,52.51-85.51,59.34-136.7
			c3.53-26.48,3.57-52.78-0.44-79.38c-4.35-28.83-13.47-55.79-26.87-81.38c-19.9-38.01-48.32-68.67-83.28-93.23
			c-20.03-14.07-41.83-24.65-65.12-32.67c-23.94-8.25-48.33-13.28-73.47-14.17c-16.27-0.58-32.6-1.18-48.86,2.44
			c-7.4,1.65-15.39,1.87-22.84,3.48c-48.4,10.47-90.17,33.71-126.06,67.55c-12.56,11.84-23.48,25.24-33.49,39.31
			c-20.74,29.17-33.83,61.75-41.35,96.53c-6.56,30.34-7.1,61.13-2.88,91.77c6.15,44.64,23.43,85.02,49.42,121.72
			c7.09,10.01,15.31,19.13,23.43,28.27C113.42,606.81,117.19,612.05,123.07,614.87z M408.7,668.64c-0.16-0.48-0.33-0.96-0.49-1.44
			c-0.47-0.12-0.94-0.37-1.4-0.35c-5.85,0.21-11.46,1.05-16.59,4.38c-1.78,1.16-4.26,1.42-6.39,2.33c-3.14,1.33-2.95-3.4-5.2-3.45
			c-2.76-0.07-1.1,5.44-4.09,4.37c-3.44-1.23-6.93,1.5-10.08-0.88c-0.86-0.65-1.89-0.76-2.5,0.44c-0.28,0.57-0.7,1.34-0.52,1.82
			c0.49,1.29,1.57,0.77,2.5,0.47c2.15-0.7,3.31,0.74,3.71,2.32c0.61,2.36-1.55,1.77-2.85,2.24c-4.16,1.49-8.25,3.18-12.37,4.8
			c0.2,0.52,0.39,1.04,0.59,1.57C372.35,683.36,391.56,679.1,408.7,668.64z M279.55,690.8c1.1,0,2.72-0.07,3.17-1.9
			c0.51-2.08-1.36-2.41-2.66-2.93c-2.32-0.94-4.8-1.02-7.28-1.26c-3.01-0.3-5.76,1.88-8.78,0.61c-1.09-0.46-2.43-0.86-2.72,0.87
			c-0.24,1.49,1.17,2.05,2.21,2.23C268.69,689.28,273.91,689.98,279.55,690.8z M340.72,687.53c0.07-1.2-0.68-1.69-1.53-1.63
			c-3.18,0.19-6.41,0.26-9.5,0.92c-1.19,0.25-2.93,1.05-3.31,2.7c-0.21,0.94,0.77,1.32,1.5,1.7c1.57,0.8,11.59-1.53,12.5-2.92
			C340.57,688.03,340.65,687.7,340.72,687.53z M310.54,675.15c2.95-0.6,6.14,3.45,8.05,0.13c0.92-1.59-1.84-4.45-3.78-5.08
			C310.89,668.93,312.67,673.81,310.54,675.15z M323.93,675.74c0.54-0.06,1.9,0.12,1.59-1.39c-0.37-1.81-1.25-3.63-3.22-4.03
			c-1.35-0.27-1.24,1.2-1.29,2.14C320.93,674.25,321.08,675.9,323.93,675.74z M267.11,676.67c0.8-0.71,2.83-0.52,2.7-2.62
			c-0.09-1.46-1.16-2.67-2.48-2.76c-1.65-0.11-1.91,1.61-2.18,2.86C264.9,675.33,265.03,676.53,267.11,676.67z M354.76,671.34
			c-0.21,1.82-2.58,3.54-0.47,5.23c0.79,0.63,2.62,0.64,3.15-0.45C358.57,673.8,356.31,672.75,354.76,671.34z M277.66,674.51
			c-0.41-1.04-0.61-2.32-2-2.49c-1.33-0.16-2.19,0.6-2.42,1.87c-0.22,1.22,0.53,1.82,1.67,1.85
			C275.99,675.77,277.28,676.13,277.66,674.51z M347.88,671.99c-1.32-0.05-1.8,0.65-1.8,1.82c0,1.51,0.94,1.97,2.24,1.96
			c0.96-0.01,2.32,0.11,2.19-1.24C350.38,673.19,349.22,672.34,347.88,671.99z M293.63,674.22c-0.6-0.77-1.14-1.87-2.43-2.01
			c-0.85-0.09-1.11,0.66-1.04,1.32c0.15,1.3,0.96,2.07,2.29,2.12C293.23,675.68,293.62,675.2,293.63,674.22z M403.85,658.47
			c-0.03-0.85-0.21-1.76-1.14-1.92c-1.34-0.22-1.56,0.91-1.65,1.87c-0.07,0.77-0.15,1.8,0.96,1.91
			C403.25,660.46,403.62,659.48,403.85,658.47z M315.03,690.76c1.71,1.32,3,1.23,5.18,0.03C318.17,689.68,316.9,689.5,315.03,690.76
			z M255.58,684.16c-1.04,0.04-1.43,0.52-1.39,1.23c0.03,0.71,0.52,1.2,1.23,1.23c0.72,0.03,1.34-0.4,1.17-1.13
			C256.46,684.96,255.87,684.52,255.58,684.16z M345.17,688.75c0.59-0.16,1.46-0.12,1.26-1.07c-0.16-0.74-0.91-0.85-1.56-0.77
			c-0.61,0.08-1.47,0.11-1.27,1.05C343.75,688.7,344.5,688.75,345.17,688.75z M208.67,660.56c-0.28-0.12-0.62-0.39-0.82-0.31
			c-0.2,0.08-0.26,0.51-0.38,0.79c0.28,0.12,0.61,0.39,0.81,0.31C208.49,661.27,208.55,660.84,208.67,660.56z M259.65,673.56
			c-0.28-0.12-0.62-0.39-0.82-0.31c-0.2,0.08-0.26,0.51-0.38,0.79c0.28,0.12,0.61,0.39,0.81,0.31
			C259.47,674.27,259.53,673.84,259.65,673.56z M339.57,673.53c-0.28-0.12-0.55-0.24-0.83-0.36c-0.12,0.28-0.39,0.61-0.31,0.82
			c0.08,0.2,0.51,0.26,0.79,0.38C339.33,674.09,339.45,673.81,339.57,673.53z"/>
		<path class="st1" d="M123.07,614.87c-5.88-2.82-9.64-8.06-13.76-12.7c-8.12-9.15-16.34-18.26-23.43-28.27
			c-26-36.71-43.27-77.08-49.42-121.72c-4.22-30.64-3.68-61.43,2.88-91.77c7.52-34.78,20.6-67.36,41.35-96.53
			c10-14.07,20.93-27.47,33.49-39.31c35.9-33.85,77.67-57.09,126.06-67.55c7.45-1.61,15.43-1.83,22.84-3.48
			c16.27-3.62,32.59-3.02,48.86-2.44c25.14,0.9,49.52,5.92,73.47,14.17c23.29,8.03,45.09,18.6,65.12,32.67
			c34.96,24.56,63.38,55.23,83.28,93.23c13.4,25.59,22.53,52.55,26.87,81.38c4.01,26.59,3.98,52.89,0.44,79.38
			c-6.83,51.2-27.57,96.32-59.34,136.7c-6.28,7.98-13.19,15.4-19.7,23.17c-0.82,0.98-2.09,1.58-3.15,2.35
			c-13.64-5.81-27.28-11.62-40.91-17.43c0,0-0.01,0.02-0.01,0.02c-1.61-2.66-4.88-2.08-7.07-3.62c-3.29-1.49-6.58-2.97-9.87-4.46
			c-10.81-5.5-21.6-11.06-32.45-16.49c-4.27-2.14-6.21-5.4-6.84-10.14c-1.35-10.12-0.73-20.27-1.08-30.4
			c-0.21-5.88-0.48-11.66,5.14-15.66c1-0.71,1.56-2.12,2.15-3.3c5.75-11.46,10.91-23.12,11.88-36.15c0.1-1.34-0.04-2.4,2.18-2.24
			c7.34,0.54,11.25-2.08,13.67-9.23c2.12-6.28,3.14-13.01,5.8-19.03c4.93-11.17,9.02-22.41,9.96-34.72
			c0.66-8.54-0.1-16.87-1.92-25.16c-0.28-1.27-0.36-3.05-2.51-3.22c-1.97-0.16-3.05,0.76-4,2.3c-1.71,2.77-3.52,5.47-5.66,8.76
			c-0.13-1.24-0.32-1.73-0.21-2.15c8.47-31.44,12.46-63.38,10.74-95.95c-0.8-15.11-6.23-28.3-16.84-39.23
			c-1.16-1.19-2.33-2.38-3.47-3.59c-0.63-0.67-0.81-1.53-0.32-2.29c0.39-0.61,1.09-0.42,1.79-0.28c1.34,0.26,3.08,1.33,3.71-0.88
			c0.51-1.76-0.54-3.15-1.63-4.48c-7.39-9.02-16.78-14.87-27.9-18.3c-9.38-2.89-19.03-4.52-29.86-6.44c2.41-1.19,3.76-1.74,5-2.48
			c2.03-1.2,6.14-0.39,5.95-3.23c-0.17-2.47-3.97-3.11-6.46-3.87c-24.38-7.5-48.42-6.73-72.06,3.17c-1.8,0.75-3.45,2.46-6.27,1.45
			c0.88-0.94,1.36-1.59,1.97-2.09c1.16-0.97,2.68-1.98,1.96-3.6c-0.62-1.4-2.38-0.58-3.64-0.76c-4.02-0.56-7.9,0.65-11.83,1.13
			c-8.35,1.01-16.85,1.37-24.7,4.92c-5,2.26-10.08,4.66-12.06,10.26c-1.52,4.29-3.47,6.31-8.03,3.81c-1.11-0.61-2.56-0.65-3.88-0.84
			c-8.06-1.17-18.14,1.46-21.35,8.49c3.12,0.85,6.14-0.67,10.82-0.55c-12.17,6.65-23.31,12.46-29.74,24
			c3.2,1.63,5.93-0.83,8.63,0.11c0.08,1.93-1.24,2.68-2.21,3.41c-8.79,6.7-12.22,16.18-13.75,26.55c-1.22,8.26-0.27,16.54,0.1,24.84
			c0.98,21.64,4.56,42.8,10.18,63.66c1.28,4.74,2.52,9.48,4.02,15.17c-2.47-2.13-3.11-4.08-3.76-5.9c-1-2.83-2.93-4.83-5.71-4.83
			c-3.23,0-3.63,3.35-3.91,5.59c-1.48,11.76-1.72,23.67,1.19,35.16c3.54,13.96,11.86,26.3,14.63,40.64
			c0.36,1.88,1.57,3.68,2.67,5.33c1.81,2.69,4.38,5.55,7.61,4.72c5.29-1.37,5.55,1.72,6.02,5.2c0.11,0.82,0.18,1.65,0.31,2.47
			c2.13,12.64,5.17,24.9,13.81,34.99c2.42,2.83,3.46,6.1,3.26,10.03c-0.2,3.81-1.38,7.76-0.83,11.3c1.07,6.84-0.16,13.46-0.49,20.14
			c-0.2,4.11,0.21,9.23-4.12,11.58c-8.28,4.49-16.07,9.85-24.74,13.67c-5.15,2.27-10.04,5.13-15.05,7.72
			c-5.97,2.73-11.95,5.45-17.92,8.18C147.05,604.89,135.06,609.88,123.07,614.87z"/>
		<path class="st2" d="M123.07,614.87c11.99-4.99,23.99-9.98,35.98-14.97c-0.21,1.87,0.7,4.04-1.72,5.28
			c-7.77,3.95-15.73,7.33-24.43,8.67c-1.25,0.19-3.56-0.87-3.28,1.64c0.21,1.87,0.05,4.44,3.46,4.38
			c7.21-0.12,14.41-0.28,21.13,3.45c1.28,0.71,3.65-0.36,3.76,2.31c0.12,2.76-1.81,3.15-4.02,3.23c-1.86,0.07-3.21,1.17-3.65,2.9
			c-0.51,1.99,0.97,3.42,2.53,3.75c3.55,0.74,5.08,3.56,7,5.99c0.85,1.08,1.51,2.28,3.04,2.24c4.49-0.1,9.16,1.46,13.32,0.77
			c9.76-1.62,19.47-0.02,29.13-0.17c10.18-0.16,20.53-0.59,30.84,0.26c11.16,0.92,22.47-0.18,33.69,0.31
			c14.13,0.62,28.23-0.67,42.39,0.34c10.81,0.77,21.8-0.17,32.65-1.04c9.54-0.76,18.97,0.14,28.43,0.57
			c8.66,0.4,17.3-0.24,25.93-0.35c4.97-0.06,10.32-0.87,15.09-0.25c9.93,1.29,19.47-0.09,29.14-1.35c1.61-0.21,3.37-0.56,3.27-2.34
			c-0.26-4.94,2.58-5.87,6.59-5.78c1.27,0.03,2.18-0.79,2.43-2.1c0.2-1.02,0.18-2.4-0.97-2.47c-2.61-0.16-5.07-2.14-7.75-0.82
			c-5,2.48-9.61,0.76-14.17-1.23c-1.06-0.46-1.87-1.43-3.11-0.51c-3.31,2.45-6.67-0.53-10.07,0.04c-1.7,0.29-1.71-1.65-1.71-2.99
			c0-1.19,0.05-2.42,1.62-2.65c1.44-0.21,2.1,0.55,2.36,1.92c0.51,2.66,2.83,1.54,3.37,0.82c3.32-4.46,8.66-1.56,12.66-3.7
			c1.64-0.87,4.72-0.73,6.27,0.29c2.68,1.75,4.58,3.64,7.69,0.68c0.9-0.85,2.89-0.01,3.82,1.48c0.72,1.16,1.9,1.88,2.8,0.64
			c2.63-3.62,6.73-4,10.5-5.09c1.53-0.44,2.88-0.6,2.88-2.67c0-2.15-1.39-3.21-3.06-3.28c-3.34-0.15-5.97-1.89-8.84-3.17
			c-2.56-1.13-4.83-3.28-7.82-3.02c-7.71,0.68-13.15-1.62-14.2-10.15c13.64,5.81,27.28,11.62,40.91,17.43
			c-3.58,9.6-11.92,15.02-19.2,21.16c-8.95,7.56-17.71,15.47-28.01,21.31c-4.61,2.61-9.08,5.47-13.67,8.12
			c-1.74,1.01-4.54,2.15-5.39,0.31c-1-2.17-4.84-3.15-3.09-6.6c1.22-2.42-0.45-4.23-1.86-5.77c-1.69-1.86-2.91,0.01-4.16,1
			c-0.26,0.2-0.78,0.52-0.81,0.48c-3.4-4.26-8.19,1.24-11.78-1.69c-0.85-0.69-1.94-0.81-2.78-0.12c-4.17,3.39-4.89-0.11-5.77-3.18
			c-3.31,4.37-11.02,6.71-15.87,4.6c-2.95-1.28-5.65,0.42-8.26,0.61c-4.83,0.35-9.16-2.1-13.84-1.29c-0.62,0.11-1.41-0.42-1.94-0.21
			c-4.03,1.58-6.6-0.13-8.26-3.89c-2.95,4.25-11.41,6.1-15.91,3.74c-2.44-1.27-5.36-0.63-7.58-0.45c-7.93,0.65-15.84,0.38-23.76,0.6
			c-2.99,0.08-6.11,2.74-8.77-0.75c-2.52,2.13-5.65,1.52-8.54,2.12c-3.67,0.76-5.87,0.36-6.67-3.51c-0.29-1.39-1.62-2.57-2.24-1.37
			c-2.67,5.09-7.97,2.23-11.75,4.16c-2.7,1.37-6.57,2.02-9.87-1.6c-2.1-2.3-5.28,1.26-8.04,1.95c-1.75,0.44-2.05,1.85-1.38,3.59
			c0.48,1.26,0.61,2.78-1.22,3.19c-1.28,0.29-2.78,0.58-3.82-0.41c-1.09-1.04-0.26-2.14,0.47-3.08c1.14-1.46,0.32-2.48-0.76-3.39
			c-1.29-1.08-2.81-1.4-4.07-0.19c-1.68,1.6-3.24,1.47-4.87,0.16c-1.91-1.54-3.77-0.16-5.67-0.14c-3.58,0.02-7.02,1.47-10.78,0.4
			c-2.65-0.75-4.5,0.6-3.37,4.03c2.52,7.65,8.82,11.46,17.1,9.98c2.31-0.41,4.26,0.11,6.16,1.29c0.83,0.52,2.19,1.55,2.52,1.3
			c4.52-3.39,6.13,0.16,8.17,3.13c0.82,1.2,2.81,1.67,3.56,0.77c2.26-2.67,7.52,1.25,8.39-4.01c0.02-0.11,1.05-0.31,1.27-0.1
			c2.44,2.26,4.57,5,7.37,0.01c0.37-0.67,2.74,2.4,2.56,4.34c-0.15,1.58-1.33,3.44-2.89,3.76c-3.18,0.64-7,0.13-1.77,4.38
			c1.67,1.36-0.65,1.85-1.91,1.91c-4.75,0.21-9.31-1.07-13.52-2.85c-5.51-2.34-10.99-4.38-16.95-5.23
			c-4.49-0.64-8.16-3.57-12.14-5.45c-9.3-4.4-18.86-8.25-27.81-13.47c-11.75-6.85-22.85-14.57-33.63-22.83
			c-6.6-5.06-11.58-11.78-18.15-16.82C122.95,617.35,123.05,616.05,123.07,614.87z"/>
		<path class="st2" d="M408.7,668.64c-17.14,10.46-36.35,14.71-55.68,18.61c-0.2-0.52-0.39-1.04-0.59-1.57
			c4.12-1.62,8.21-3.31,12.37-4.8c1.3-0.47,3.47,0.13,2.85-2.24c-0.41-1.57-1.56-3.02-3.71-2.32c-0.93,0.3-2.01,0.82-2.5-0.47
			c-0.18-0.48,0.24-1.25,0.52-1.82c0.6-1.21,1.64-1.09,2.5-0.44c3.15,2.38,6.64-0.35,10.08,0.88c2.99,1.07,1.33-4.43,4.09-4.37
			c2.25,0.05,2.06,4.78,5.2,3.45c2.12-0.9,4.6-1.17,6.39-2.33c5.13-3.33,10.74-4.18,16.59-4.38c0.46-0.02,0.93,0.23,1.4,0.35
			C408.37,667.69,408.54,668.16,408.7,668.64z"/>
		<path class="st2" d="M279.55,690.8c-5.64-0.82-10.86-1.52-16.05-2.39c-1.04-0.18-2.46-0.74-2.21-2.23
			c0.28-1.72,1.63-1.32,2.72-0.87c3.02,1.27,5.77-0.91,8.78-0.61c2.48,0.25,4.96,0.32,7.28,1.26c1.3,0.53,3.17,0.85,2.66,2.93
			C282.27,690.72,280.65,690.8,279.55,690.8z"/>
		<path class="st2" d="M340.72,687.53c-0.07,0.17-0.15,0.5-0.32,0.76c-0.91,1.4-10.93,3.72-12.5,2.92c-0.73-0.37-1.72-0.75-1.5-1.7
			c0.37-1.65,2.12-2.44,3.31-2.7c3.09-0.66,6.32-0.73,9.5-0.92C340.04,685.84,340.79,686.33,340.72,687.53z"/>
		<path class="st2" d="M310.54,675.15c2.14-1.34,0.35-6.22,4.26-4.95c1.95,0.63,4.7,3.49,3.78,5.08
			C316.68,678.6,313.48,674.55,310.54,675.15z"/>
		<path class="st2" d="M323.93,675.74c-2.85,0.16-3-1.49-2.92-3.27c0.04-0.94-0.06-2.41,1.29-2.14c1.98,0.39,2.85,2.22,3.22,4.03
			C325.84,675.86,324.48,675.68,323.93,675.74z"/>
		<path class="st2" d="M267.11,676.67c-2.07-0.13-2.21-1.34-1.96-2.53c0.26-1.25,0.53-2.97,2.18-2.86c1.31,0.09,2.39,1.3,2.48,2.76
			C269.94,676.15,267.91,675.95,267.11,676.67z"/>
		<path class="st2" d="M354.76,671.34c1.55,1.41,3.81,2.46,2.68,4.78c-0.53,1.09-2.36,1.08-3.15,0.45
			C352.18,674.88,354.56,673.16,354.76,671.34z"/>
		<path class="st2" d="M277.66,674.51c-0.38,1.63-1.67,1.26-2.75,1.24c-1.14-0.03-1.89-0.63-1.67-1.85
			c0.23-1.28,1.08-2.03,2.42-1.87C277.05,672.19,277.25,673.47,277.66,674.51z"/>
		<path class="st2" d="M347.88,671.99c1.34,0.35,2.5,1.2,2.63,2.54c0.13,1.34-1.23,1.23-2.19,1.24c-1.3,0.01-2.25-0.45-2.24-1.96
			C346.08,672.65,346.56,671.94,347.88,671.99z"/>
		<path class="st2" d="M293.63,674.22c-0.01,0.98-0.4,1.46-1.17,1.43c-1.34-0.05-2.14-0.82-2.29-2.12
			c-0.08-0.67,0.19-1.42,1.04-1.32C292.49,672.35,293.03,673.45,293.63,674.22z"/>
		<path class="st2" d="M403.85,658.48c-0.23,1-0.61,1.98-1.84,1.86c-1.11-0.11-1.04-1.14-0.96-1.91c0.09-0.96,0.31-2.1,1.65-1.87
			C403.64,656.71,403.82,657.62,403.85,658.48z"/>
		<path class="st2" d="M315.03,690.76c1.87-1.26,3.14-1.08,5.18,0.03C318.03,691.99,316.75,692.09,315.03,690.76z"/>
		<path class="st2" d="M255.58,684.16c0.29,0.36,0.88,0.79,1.01,1.33c0.17,0.73-0.45,1.17-1.17,1.13c-0.72-0.03-1.2-0.52-1.23-1.23
			C254.15,684.68,254.54,684.21,255.58,684.16z"/>
		<path class="st2" d="M345.16,688.74c-0.67,0.01-1.41-0.04-1.57-0.78c-0.2-0.95,0.65-0.97,1.27-1.05c0.66-0.08,1.4,0.03,1.56,0.77
			C346.63,688.62,345.76,688.58,345.16,688.74z"/>
		<path class="st2" d="M208.67,660.56c-0.12,0.28-0.18,0.71-0.38,0.79c-0.2,0.08-0.54-0.19-0.81-0.31c0.12-0.28,0.18-0.71,0.38-0.79
			C208.05,660.17,208.39,660.44,208.67,660.56z"/>
		<path class="st2" d="M259.65,673.56c-0.12,0.28-0.18,0.71-0.38,0.79c-0.2,0.08-0.54-0.19-0.81-0.31c0.12-0.28,0.18-0.71,0.38-0.79
			C259.03,673.17,259.37,673.44,259.65,673.56z"/>
		<path class="st2" d="M339.57,673.54c-0.12,0.28-0.24,0.55-0.36,0.83c-0.28-0.12-0.71-0.18-0.79-0.38
			c-0.08-0.2,0.19-0.54,0.31-0.82C339.01,673.3,339.29,673.41,339.57,673.54z"/>
		<path class="st2" d="M176.97,591.72c5.01-2.59,9.9-5.45,15.05-7.72c8.66-3.82,16.46-9.18,24.74-13.67
			c4.33-2.35,3.92-7.48,4.12-11.58c0.33-6.68,1.56-13.3,0.49-20.14c-0.56-3.54,0.63-7.49,0.83-11.3c0.2-3.93-0.84-7.2-3.26-10.03
			c-8.63-10.1-11.68-22.36-13.81-34.99c-0.14-0.82-0.2-1.65-0.31-2.47c-0.48-3.48-0.73-6.57-6.02-5.2c-3.23,0.83-5.8-2.02-7.61-4.72
			c-1.1-1.65-2.31-3.44-2.67-5.33c-2.76-14.34-11.08-26.68-14.63-40.64c-2.91-11.48-2.67-23.39-1.19-35.16
			c0.28-2.24,0.68-5.59,3.91-5.59c2.78,0,4.71,2,5.71,4.83c0.64,1.82,1.29,3.77,3.76,5.9c-1.51-5.69-2.75-10.43-4.02-15.17
			c-5.62-20.86-9.2-42.02-10.18-63.66c-0.38-8.31-1.33-16.58-0.1-24.84c1.54-10.37,4.97-19.85,13.75-26.55
			c0.96-0.73,2.28-1.48,2.21-3.41c-2.7-0.94-5.43,1.52-8.63-0.11c6.42-11.54,17.57-17.35,29.74-24c-4.68-0.12-7.71,1.41-10.82,0.55
			c3.21-7.03,13.29-9.66,21.35-8.49c1.31,0.19,2.76,0.23,3.88,0.84c4.56,2.5,6.51,0.48,8.03-3.81c1.98-5.6,7.06-7.99,12.06-10.26
			c7.84-3.55,16.35-3.91,24.7-4.92c3.93-0.47,7.8-1.68,11.83-1.13c1.25,0.17,3.01-0.65,3.64,0.76c0.72,1.62-0.8,2.64-1.96,3.6
			c-0.6,0.5-1.09,1.14-1.97,2.09c2.82,1.01,4.48-0.69,6.27-1.45c23.64-9.9,47.67-10.67,72.06-3.17c2.49,0.77,6.29,1.4,6.46,3.87
			c0.2,2.84-3.92,2.03-5.95,3.23c-1.24,0.74-2.59,1.3-5,2.48c10.83,1.92,20.48,3.55,29.86,6.44c11.11,3.43,20.51,9.28,27.9,18.3
			c1.08,1.32,2.13,2.72,1.63,4.48c-0.64,2.22-2.38,1.15-3.71,0.88c-0.69-0.14-1.39-0.33-1.79,0.28c-0.49,0.76-0.31,1.62,0.32,2.29
			c1.14,1.21,2.31,2.4,3.47,3.59c10.61,10.93,16.04,24.11,16.84,39.23c1.72,32.57-2.27,64.51-10.74,95.95
			c-0.11,0.42,0.08,0.91,0.21,2.15c2.14-3.29,3.95-5.99,5.66-8.76c0.95-1.54,2.03-2.45,4-2.3c2.15,0.17,2.24,1.95,2.51,3.22
			c1.82,8.28,2.58,16.62,1.92,25.16c-0.95,12.32-5.03,23.55-9.96,34.72c-2.66,6.02-3.67,12.75-5.8,19.03
			c-2.42,7.15-6.33,9.77-13.67,9.23c-2.22-0.16-2.08,0.9-2.18,2.24c-0.98,13.03-6.13,24.69-11.88,36.15
			c-0.59,1.17-1.15,2.58-2.15,3.3c-5.61,4-5.35,9.78-5.14,15.66c0.36,10.13-0.27,20.28,1.08,30.4c0.63,4.74,2.57,8.01,6.84,10.14
			c10.85,5.43,21.64,10.98,32.45,16.49c-4.35,2.49-8.82,0.35-12.75-0.73c-1.94-0.53-5.43,1.25-6.23-1.9
			c-0.85-3.37-3.17-3.98-5.91-4.2c-5.57-0.44-10.77-2.22-15.94-4.14c-2.8-1.04-3.13-3.34-1.22-5.02c1.93-1.71,1.32-2.89,0.62-4.68
			c-0.78-1.99-1.28-4.11-1.64-6.22c-0.64-3.74-2.6-4.31-6.08-3.49c-5.71,1.35-8.6,6.68-13.58,8.98c-1.13,0.53-2.51,1.55-1.89,3.1
			c0.65,1.64,2.33,3.11,3.91,2.29c3.12-1.62,6.14,0.55,9.22-0.45c2.77-0.89,3.39,1.24,3.38,3.48c-0.01,2.31,0.03,5.95-3.02,4.79
			c-3.09-1.17-9,3.65-9.42-3.85c-0.01-0.22-1.03-0.69-1.19-0.56c-3.4,2.79-8.14-0.28-11.55,2.82c-2.99,2.71-6.82,3.23-10.75,2.94
			c-2.55-0.19-5.01,0.13-7.18,1.56c-5.75,3.8-11.9,5.47-18.91,5.89c-2.94,0.18-6.74-0.54-9.72,1.7c-3.17,2.38-6.65,2.75-10.19,0.53
			c-1.52-0.95-3.35-1.15-4.73-0.13c-1.86,1.37-3.21,1.34-4.69-0.36c-1.1-1.27-2.66-1.15-4.17-1.19c-9.31-0.21-18.5-0.64-27.06-5.24
			c-5.37-2.88-12.36-2.29-16.56-8.04c-1.08-1.48-3.47-1.24-3.8,1.61c-0.11,0.94-0.18,2.65-1.29,2.16c-4.09-1.81-7.31,1.6-10.98,1.44
			c-5.27-0.22-10.17,0.84-15.06,2.66c-6.91,2.56-13.43,6.32-21.05,6.81C180.11,591.33,178.83,594.05,176.97,591.72z M278.63,216.23
			l-0.23,0.3l0.37,0.05L278.63,216.23z"/>
		<path class="st0" d="M176.97,591.72c1.86,2.32,3.14-0.39,4.68-0.49c7.62-0.48,14.14-4.25,21.05-6.81
			c4.89-1.81,9.8-2.88,15.06-2.66c3.66,0.15,6.89-3.25,10.98-1.44c1.11,0.49,1.18-1.22,1.29-2.16c0.33-2.85,2.71-3.09,3.8-1.61
			c4.2,5.75,11.19,5.16,16.56,8.04c8.56,4.59,17.75,5.03,27.06,5.24c1.51,0.03,3.06-0.08,4.17,1.19c1.48,1.7,2.83,1.74,4.69,0.36
			c1.38-1.02,3.21-0.82,4.73,0.13c3.54,2.22,7.02,1.86,10.19-0.53c2.98-2.24,6.78-1.52,9.72-1.7c7.01-0.42,13.16-2.1,18.91-5.89
			c2.17-1.43,4.62-1.75,7.18-1.56c3.93,0.29,7.75-0.23,10.75-2.94c3.41-3.09,8.15-0.03,11.55-2.82c0.16-0.13,1.18,0.34,1.19,0.56
			c0.42,7.5,6.33,2.68,9.42,3.85c3.06,1.16,3.02-2.48,3.02-4.79c0.01-2.24-0.62-4.38-3.38-3.48c-3.08,0.99-6.1-1.17-9.22,0.45
			c-1.58,0.82-3.27-0.65-3.91-2.29c-0.61-1.55,0.76-2.57,1.89-3.1c4.98-2.31,7.87-7.63,13.58-8.98c3.48-0.82,5.44-0.25,6.08,3.49
			c0.36,2.11,0.87,4.23,1.64,6.22c0.7,1.79,1.31,2.97-0.62,4.68c-1.91,1.69-1.58,3.98,1.22,5.02c5.17,1.92,10.38,3.7,15.94,4.14
			c2.74,0.22,5.06,0.83,5.91,4.2c0.8,3.15,4.29,1.37,6.23,1.9c3.93,1.08,8.39,3.22,12.75,0.73c3.29,1.49,6.58,2.97,9.88,4.46
			c0.6,5.53,2.51,6.51,7.07,3.62c0,0,0.01-0.02,0.01-0.02c1.06,8.53,6.49,10.83,14.21,10.15c2.99-0.26,5.26,1.89,7.82,3.02
			c2.87,1.27,5.5,3.02,8.84,3.17c1.67,0.08,3.06,1.13,3.06,3.28c0,2.07-1.35,2.22-2.88,2.67c-3.76,1.09-7.86,1.47-10.5,5.09
			c-0.9,1.23-2.08,0.52-2.8-0.64c-0.92-1.48-2.92-2.33-3.82-1.48c-3.11,2.96-5.01,1.07-7.69-0.68c-1.55-1.02-4.63-1.16-6.27-0.29
			c-4,2.14-9.34-0.76-12.66,3.7c-0.54,0.73-2.86,1.84-3.37-0.82c-0.26-1.37-0.92-2.12-2.36-1.92c-1.57,0.22-1.62,1.46-1.62,2.65
			c0,1.34,0,3.28,1.71,2.99c3.4-0.57,6.76,2.41,10.07-0.04c1.25-0.92,2.06,0.05,3.11,0.51c4.56,1.99,9.17,3.71,14.17,1.23
			c2.68-1.33,5.15,0.65,7.75,0.82c1.15,0.07,1.16,1.45,0.97,2.47c-0.25,1.31-1.16,2.13-2.43,2.1c-4.02-0.09-6.85,0.85-6.59,5.78
			c0.09,1.79-1.66,2.14-3.27,2.34c-9.67,1.25-19.21,2.64-29.14,1.35c-4.76-0.62-10.11,0.19-15.09,0.25
			c-8.63,0.11-17.27,0.74-25.93,0.35c-9.46-0.43-18.89-1.34-28.43-0.57c-10.85,0.87-21.84,1.81-32.65,1.04
			c-14.16-1.01-28.26,0.28-42.39-0.34c-11.21-0.49-22.53,0.61-33.69-0.31c-10.31-0.85-20.66-0.42-30.84-0.26
			c-9.66,0.15-19.37-1.45-29.13,0.17c-4.16,0.69-8.83-0.86-13.32-0.77c-1.53,0.03-2.19-1.17-3.04-2.24c-1.91-2.43-3.44-5.25-7-5.99
			c-1.56-0.33-3.04-1.76-2.53-3.75c0.44-1.73,1.79-2.83,3.65-2.9c2.2-0.09,4.13-0.47,4.02-3.23c-0.11-2.67-2.48-1.6-3.76-2.31
			c-6.72-3.73-13.92-3.57-21.13-3.45c-3.41,0.06-3.25-2.51-3.46-4.38c-0.28-2.51,2.03-1.45,3.28-1.64
			c8.7-1.34,16.66-4.72,24.43-8.67c2.42-1.23,1.51-3.4,1.72-5.28C165.02,597.18,171,594.45,176.97,591.72z M173.91,624.7
			c-1.88-0.95-3.29-0.59-4.27,0.76c-0.62,0.85,0.19,1.91,0.88,1.91c3.09-0.01,5.54,2.94,8.43,2.34c7.93-1.64,15.95,1.17,23.85-0.83
			c2.37-0.6,4.89-0.86,7.33-0.82c6.47,0.11,12.93,0.53,19.39,0.72c2.41,0.07,2.77-1.08,1.74-3.2c-1.73-3.56-4.81-4.16-8.92-3.46
			c-5.15,0.87-10.94,7.47-15.74-0.8c-0.23-0.39-1.24-0.5-1.87-0.44c-8.62,0.78-17.62-2.2-25.85,2.74
			C177.43,624.48,175.4,624.4,173.91,624.7z M254.28,627.4c7.97,0.48,15.08,0.92,22.2,1.35c1.33,0.08,2.75,0.3,3.73-0.87
			c1.23-1.46-0.48-2.34-0.8-3.51c-0.61-2.24-2.09-2.78-4.14-2.55c-3.82,0.43-8.06-1.35-11.28,2.31c-0.8,0.9-1.76-0.15-2.68-0.37
			c-4.95-1.19-9.92-3.3-14.97-2.73c-3.85,0.44-7.51,2.08-11.54,0.86c-0.95-0.29-2.68-0.25-2.28,1.6c0.62,2.84,1.56,5.94,5.38,5.11
			C243.63,627.36,249.63,630.1,254.28,627.4z M331.52,627.07c4.46,0.04,8.54,1.44,12.78,1.89c8.51,0.89,16.92-1.88,25.39-0.24
			c1.44,0.28,2.64-0.39,3.08-1.91c0.35-1.18,0.24-2.36-0.75-3.22c-1.24-1.08-2.4-0.66-3.57,0.27c-0.82,0.65-1.37,2.02-3.23,1.22
			c0.26-1.32,1.12-3.06-1.65-3.32c-4.13-0.38-8.22,0.25-12.31,0c-3.57-0.21-6.95,4.62-10.65,0.39c-0.05-0.06-0.82,0.45-1.21,0.76
			C337.07,624.74,334.49,626.04,331.52,627.07z M391.83,620.9c-3.49-0.99-5.34,2-7.7,3.61c-1.8,1.22-0.38,2.41,0.95,2.8
			c8.44,2.45,16.93,3.2,25.45,0.39c2.11-0.7,1.27-2.85,1.97-4.26c0.43-0.88-0.36-1.39-1.38-1.45
			C404.72,621.64,398.32,621.27,391.83,620.9z M314.49,628.82c2.44,0,4.44-0.12,6.42,0.03c4.12,0.31,3.73-3.64,4.31-5.51
			c0.78-2.48-2.34-0.94-3.58-1.58c-3.3-1.71-7.63-1.18-9.39,0.6c-3.08,3.12-6.18,2.22-9.43,2.38c-0.78,0.04-1.58-0.42-2.38-0.63
			c-1.26-0.34-2.3-0.04-2.99,1.12c-0.47,0.78-0.42,1.61,0.07,2.34c0.81,1.23,1.86,1.06,3.04,0.48c1.16-0.57,2.33-1.45,3.71-0.57
			C307.61,629.61,311.35,628.56,314.49,628.82z M291.36,623.24c-1.03,0.51-2.33,0.89-2.27,2.58c0.04,1.13,0.54,1.83,1.72,1.9
			c1.76,0.09,2.2-1,2.15-2.48C292.93,624.26,292.95,623.21,291.36,623.24z M282.24,624.38c1.05,0.1,1.58-0.15,1.58-0.98
			c0-0.7-0.28-1.3-1.06-1.36c-0.67-0.06-1.43,0.07-1.31,0.95C281.52,623.53,282.02,624.02,282.24,624.38z M298.84,604.85
			c-0.53-0.38-0.85-0.79-1.19-0.8c-0.38-0.01-1.04,0.26-1.11,0.54c-0.22,0.79,0.41,1.1,1.07,1.04
			C297.96,605.6,298.29,605.21,298.84,604.85z"/>
		<path class="st2" d="M438.02,596.75c-4.55,2.88-6.46,1.9-7.07-3.62C433.13,594.67,436.41,594.08,438.02,596.75z"/>
		<polygon class="st1" points="278.63,216.23 278.77,216.58 278.4,216.53 		"/>
		<path class="st2" d="M173.91,624.7c1.5-0.3,3.52-0.22,4.97-1.09c8.24-4.94,17.23-1.96,25.85-2.74c0.62-0.06,1.64,0.06,1.87,0.44
			c4.8,8.27,10.59,1.67,15.74,0.8c4.12-0.69,7.19-0.09,8.92,3.46c1.04,2.12,0.67,3.27-1.74,3.2c-6.47-0.19-12.93-0.6-19.39-0.72
			c-2.44-0.04-4.97,0.22-7.33,0.82c-7.9,2-15.91-0.81-23.85,0.83c-2.89,0.6-5.34-2.35-8.43-2.34c-0.69,0-1.5-1.06-0.88-1.91
			C170.62,624.11,172.02,623.75,173.91,624.7z"/>
		<path class="st2" d="M254.28,627.4c-4.65,2.7-10.66-0.04-16.37,1.21c-3.82,0.83-4.76-2.26-5.38-5.11c-0.4-1.85,1.33-1.89,2.28-1.6
			c4.02,1.22,7.69-0.42,11.54-0.86c5.05-0.58,10.02,1.53,14.97,2.73c0.92,0.22,1.88,1.27,2.68,0.37c3.22-3.65,7.46-1.88,11.28-2.31
			c2.05-0.23,3.52,0.3,4.14,2.55c0.32,1.17,2.02,2.05,0.8,3.51c-0.98,1.17-2.4,0.95-3.73,0.87
			C269.37,628.32,262.25,627.88,254.28,627.4z"/>
		<path class="st2" d="M331.52,627.07c2.98-1.04,5.56-2.33,7.88-4.16c0.39-0.31,1.16-0.82,1.21-0.76c3.7,4.23,7.08-0.6,10.65-0.39
			c4.09,0.25,8.18-0.38,12.31,0c2.77,0.26,1.9,2,1.65,3.32c1.86,0.8,2.41-0.56,3.23-1.22c1.17-0.93,2.33-1.36,3.57-0.27
			c0.98,0.86,1.1,2.03,0.75,3.22c-0.44,1.52-1.64,2.19-3.08,1.91c-8.47-1.63-16.88,1.13-25.39,0.24
			C340.06,628.51,335.98,627.11,331.52,627.07z"/>
		<path class="st2" d="M391.83,620.9c6.49,0.37,12.89,0.75,19.29,1.08c1.02,0.05,1.82,0.56,1.38,1.45
			c-0.69,1.41,0.14,3.56-1.97,4.26c-8.53,2.81-17.02,2.07-25.45-0.39c-1.34-0.39-2.75-1.57-0.95-2.8
			C386.49,622.9,388.34,619.91,391.83,620.9z"/>
		<path class="st2" d="M314.49,628.82c-3.13-0.26-6.88,0.79-10.23-1.34c-1.38-0.88-2.56,0.01-3.71,0.57
			c-1.17,0.57-2.22,0.75-3.04-0.48c-0.48-0.73-0.53-1.56-0.07-2.34c0.69-1.16,1.73-1.46,2.99-1.12c0.79,0.22,1.6,0.67,2.38,0.63
			c3.25-0.15,6.36,0.74,9.43-2.38c1.77-1.79,6.1-2.31,9.39-0.6c1.24,0.64,4.36-0.9,3.58,1.58c-0.59,1.87-0.2,5.81-4.31,5.51
			C318.92,628.7,316.93,628.82,314.49,628.82z"/>
		<path class="st2" d="M291.36,623.24c1.58-0.02,1.57,1.02,1.6,1.99c0.05,1.48-0.4,2.58-2.15,2.48c-1.18-0.06-1.68-0.77-1.72-1.9
			C289.03,624.13,290.34,623.75,291.36,623.24z"/>
		<path class="st2" d="M282.24,624.38c-0.22-0.36-0.72-0.85-0.79-1.39c-0.12-0.88,0.65-1,1.31-0.95c0.79,0.07,1.06,0.67,1.06,1.36
			C283.82,624.23,283.29,624.48,282.24,624.38z"/>
		<path class="st2" d="M298.84,604.85c-0.55,0.37-0.88,0.75-1.24,0.78c-0.66,0.06-1.29-0.25-1.07-1.04
			c0.08-0.28,0.73-0.55,1.11-0.54C297.99,604.06,298.31,604.47,298.84,604.85z"/>
	</g>
</g>
</svg>
