<svg id="Capa_1" data-name="Capa 1" xmlns="http://www.w3.org/2000/svg" viewBox="0 0 1024 1024"><defs><style>.cls-1{fill:#fefefe;}.cls-2{fill:#3d3d3d;}.cls-3{fill:#f1f1f1;}</style></defs><path class="cls-1" d="M393,907.75q-253.46,0-506.91.1c-3.75,0-4.59-.85-4.59-4.6q.15-507.4,0-1014.81c0-3.75.84-4.59,4.59-4.59q507.41.15,1014.82,0c3.74,0,4.59.84,4.59,4.59q-.15,507.41,0,1014.81c0,3.75-.85,4.6-4.59,4.6Q646.93,907.69,393,907.75ZM589.79,677.26c1.38,5.14,2.57,9.41,3.66,13.7,6,23.83,12.4,47.59,22,70.3,9.2,21.75,20.47,42.1,38.55,58.07,20.34,18,44.51,18.44,64.84.45,13.67-12.11,22-27.82,28.58-44.52,14.63-37.34,19-76.59,20.57-116.22.77-18.78.49-37.61.4-56.42-.13-24.3-2-48.53-4.38-72.69-1.83-18.47-4.28-36.89-7.46-55.21-5.71-33-11.32-66-19-98.64-9.74-41.37-20.74-82.38-34.87-122.53-14.65-41.61-32.65-81.48-58.62-117.33-22.52-31.1-50.11-57-83.73-75.69-54.28-30.15-112.43-45.41-174.87-43a374.23,374.23,0,0,0-67.08,8.26C240.24,43.14,181.85,87.2,141.11,155.61,121,189.42,106.76,225.76,94.68,263c-17.55,54.07-29.2,109.64-41.21,165.12A928.53,928.53,0,0,0,35.7,544.88q-2.82,32.73-3.57,65.61c-.53,22.61,0,45.24,1.28,67.86C34.75,701.83,38,725,44.65,747.5c7.57,25.7,18.68,49.43,39.32,67.62,18.06,15.92,39.9,17.08,59.28,2.8,9.53-7,16.75-16.14,22.76-26.21,18.24-30.56,27.59-64.24,34.52-98.77.83-4.16,1.06-8.55,3.42-13.33,5.44,25.06,9.64,49.29,17.64,72.59,9.3,27,21.23,52.57,43.88,71.27,18.49,15.27,39.24,20.94,62.2,11,14-6,23.41-17.44,30.93-30.23,15.53-26.4,24.12-55.33,29.88-85.21,1.72-9,3.41-18,5.27-27.75a18.33,18.33,0,0,1,.75,1.82c5.4,23.78,9.3,47.9,17.94,70.9,8.37,22.27,18.13,43.6,34.81,61.07,21.46,22.48,49.35,26,73.87,9.16a100,100,0,0,0,19.63-18.37c19.88-23.66,29.9-51.93,37.61-81.21C583.27,716.08,586.11,697,589.79,677.26Z" transform="translate(118.52 116.15)"/><path class="cls-2" d="M589.79,677.26c-3.68,19.77-6.52,38.82-11.43,57.43-7.71,29.28-17.73,57.55-37.61,81.21a100,100,0,0,1-19.63,18.37c-24.52,16.84-52.41,13.32-73.87-9.16-16.68-17.47-26.44-38.8-34.81-61.07-8.64-23-12.54-47.12-17.94-70.9a18.33,18.33,0,0,0-.75-1.82c-1.86,9.8-3.55,18.78-5.27,27.75-5.76,29.88-14.35,58.81-29.88,85.21-7.52,12.79-16.94,24.2-30.93,30.23-23,9.9-43.71,4.23-62.2-11-22.65-18.7-34.58-44.22-43.88-71.27-8-23.3-12.2-47.53-17.64-72.59-2.36,4.78-2.59,9.17-3.42,13.33-6.93,34.53-16.28,68.21-34.52,98.77-6,10.07-13.23,19.19-22.76,26.21C123.87,832.2,102,831,84,815.12,63.33,796.93,52.22,773.2,44.65,747.5,38,725,34.75,701.83,33.41,678.35c-1.3-22.62-1.81-45.25-1.28-67.86q.76-32.84,3.57-65.61A928.53,928.53,0,0,1,53.47,428.11c12-55.48,23.66-111,41.21-165.12,12.08-37.23,26.3-73.57,46.43-107.38C181.85,87.2,240.24,43.14,318.4,25.76a374.23,374.23,0,0,1,67.08-8.26c62.44-2.38,120.59,12.88,174.87,43,33.62,18.68,61.21,44.59,83.73,75.69,26,35.85,44,75.72,58.62,117.33,14.13,40.15,25.13,81.16,34.87,122.53,7.67,32.62,13.28,65.64,19,98.64,3.18,18.32,5.63,36.74,7.46,55.21,2.4,24.16,4.25,48.39,4.38,72.69.09,18.81.37,37.64-.4,56.42-1.62,39.63-5.94,78.88-20.57,116.22-6.55,16.7-14.91,32.41-28.58,44.52-20.33,18-44.5,17.52-64.84-.45-18.08-16-29.35-36.32-38.55-58.07-9.61-22.71-16-46.47-22-70.3C592.36,686.67,591.17,682.4,589.79,677.26Zm-.54-16.48c.42,1.58.87,3.15,1.25,4.74,8.13,33.88,15.93,67.87,30.17,99.9,9.6,21.61,21.61,41.47,41,56a41.68,41.68,0,0,0,47.64,1.73c14.15-9.25,23-22.82,30.25-37.54,10.4-21,15.73-43.53,19.62-66.4,6.23-36.72,6.79-73.86,6.28-111a864.34,864.34,0,0,0-9.94-120.07c-3.17-20.46-6.84-40.83-10.54-61.18-6.27-34.5-14.29-68.61-23.57-102.43-14.29-52.06-30.78-103.28-57.12-150.77C650,148,632.93,124.17,611.74,103.47A271.62,271.62,0,0,0,517.09,43.4C483.06,30.48,448,22,411.66,20.52a347.52,347.52,0,0,0-90,7.62c-28.3,6.33-55.36,16-80.59,30.39C205.3,79,177.1,107.39,154,141.2c-22.18,32.46-37.39,68.24-50.44,105.07-11.12,31.38-19.79,63.46-27.44,95.85-7.87,33.3-15.77,66.58-22.48,100.14A932.05,932.05,0,0,0,38.73,545.81c-1.82,21.32-3,42.74-3.36,64.13-.45,30.09-.57,60.19,3.11,90.18,2.62,21.31,6.62,42.26,14.4,62.29,7.52,19.37,17.58,37.19,33.78,50.89,15,12.69,33,15.15,48.48,6.34a67.25,67.25,0,0,0,20-17.82c18-23.46,27.59-50.78,35.26-78.88,5.32-19.54,8.93-39.48,13-59.45,1.66,6,2.89,12.06,4.13,18.12,5.84,28.29,11.14,56.74,22.1,83.67,9.51,23.37,21.9,44.78,43,59.83,20.95,14.93,49.87,16.3,70.53-5.64,9-9.56,15.64-20.61,21.06-32.42,14.09-30.69,21-63.37,26.15-96.5.89-5.77,1.94-11.52,2.92-17.28,1.62,4.71,2.29,9.3,3.22,13.84,6.14,30.17,11.62,60.5,23.87,89.06,8.73,20.35,19.4,39.24,36.7,53.73,16,13.41,39.31,15.58,57.23,4.93,15.7-9.34,27.1-22.9,36.33-38.34,17.65-29.51,25.53-62.31,31.68-95.66C584.84,687.49,587.1,674.12,589.25,660.78Z" transform="translate(118.52 116.15)"/><path class="cls-3" d="M589.25,660.78c-2.15,13.34-4.41,26.71-6.86,40.05-6.15,33.35-14,66.15-31.68,95.66-9.23,15.44-20.63,29-36.33,38.34-17.92,10.65-41.23,8.48-57.23-4.93-17.3-14.49-28-33.38-36.7-53.73-12.25-28.56-17.73-58.89-23.87-89.06-.93-4.54-1.6-9.13-3.22-13.84-1,5.76-2,11.51-2.92,17.28-5.16,33.13-12.06,65.81-26.15,96.5-5.42,11.81-12.06,22.86-21.06,32.42-20.66,21.94-49.58,20.57-70.53,5.64-21.11-15.05-33.5-36.46-43-59.83-11-26.93-16.26-55.38-22.1-83.67-1.24-6.06-2.47-12.12-4.13-18.12-4.11,20-7.72,39.91-13,59.45-7.67,28.1-17.22,55.42-35.26,78.88a67.25,67.25,0,0,1-20,17.82c-15.48,8.81-33.47,6.35-48.48-6.34-16.2-13.7-26.26-31.52-33.78-50.89-7.78-20-11.78-41-14.4-62.29-3.68-30-3.56-60.09-3.11-90.18.32-21.39,1.54-42.81,3.36-64.13A932.05,932.05,0,0,1,53.64,442.26c6.71-33.56,14.61-66.84,22.48-100.14,7.65-32.39,16.32-64.47,27.44-95.85,13-36.83,28.26-72.61,50.44-105.07,23.1-33.81,51.3-62.25,87.06-82.67,25.23-14.41,52.29-24.06,80.59-30.39a347.52,347.52,0,0,1,90-7.62C448,22,483.06,30.48,517.09,43.4a271.62,271.62,0,0,1,94.65,60.07c21.19,20.7,38.21,44.52,52.53,70.34,26.34,47.49,42.83,98.71,57.12,150.77C730.67,358.4,738.69,392.51,745,427c3.7,20.35,7.37,40.72,10.54,61.18a864.34,864.34,0,0,1,9.94,120.07c.51,37.09-.05,74.23-6.28,111-3.89,22.87-9.22,45.42-19.62,66.4-7.3,14.72-16.1,28.29-30.25,37.54a41.68,41.68,0,0,1-47.64-1.73c-19.37-14.53-31.38-34.39-41-56-14.24-32-22-66-30.17-99.9C590.12,663.93,589.67,662.36,589.25,660.78ZM529.91,248.56c.53-21.34-15.13-38-35.71-39.06-28.18-1.44-41.81,20.11-42.2,38.1-.48,21.89,16,39.39,37.86,40C512.77,288.25,529.32,272.11,529.91,248.56Zm-203.15-.89c0-21.69-15.92-38.17-36.91-38.25-24.81-.1-40.28,14.81-40.3,38.81,0,22.47,16.44,39.41,38.21,39.33C310,287.48,326.77,270.34,326.76,247.67Z" transform="translate(118.52 116.15)"/><path class="cls-2" d="M529.91,248.56c-.59,23.55-17.14,39.69-40,39C468,287,451.52,269.49,452,247.6c.39-18,14-39.54,42.2-38.1C514.78,210.55,530.44,227.22,529.91,248.56Zm-42.28-10.71c.06,6.93,5.52,12.71,12.09,12.79A12.22,12.22,0,0,0,512.36,238c-.18-6.72-6.27-12.87-12.82-12.94C492.8,225,487.57,230.63,487.63,237.85Z" transform="translate(118.52 116.15)"/><path class="cls-2" d="M326.76,247.67c0,22.67-16.75,39.81-39,39.89-21.77.08-38.23-16.86-38.21-39.33,0-24,15.49-38.91,40.3-38.81C310.84,209.5,326.75,226,326.76,247.67ZM297.58,225.3c-7.27.13-12.11,5.19-11.94,12.5a12.54,12.54,0,0,0,12.78,12.59c6.41,0,11.45-5.36,11.44-12.07C309.85,230.93,304.43,225.18,297.58,225.3Z" transform="translate(118.52 116.15)"/><path class="cls-3" d="M487.63,237.85c-.06-7.22,5.17-12.82,11.91-12.75,6.55.07,12.64,6.22,12.82,12.94a12.22,12.22,0,0,1-12.64,12.6C493.15,250.56,487.69,244.78,487.63,237.85Z" transform="translate(118.52 116.15)"/><path class="cls-3" d="M297.58,225.3c6.85-.12,12.27,5.63,12.28,13,0,6.71-5,12-11.44,12.07a12.54,12.54,0,0,1-12.78-12.59C285.47,230.49,290.31,225.43,297.58,225.3Z" transform="translate(118.52 116.15)"/></svg>